<?xml version="1.0" encoding="utf-8"?>
<!-- Generator: Adobe Illustrator 28.3.0, SVG Export Plug-In . SVG Version: 6.00 Build 0)  -->
<svg version="1.1" id="Layer_1" xmlns="http://www.w3.org/2000/svg" xmlns:xlink="http://www.w3.org/1999/xlink" x="0px" y="0px"
	 viewBox="0 0 1080 1080" style="enable-background:new 0 0 1080 1080;" xml:space="preserve">
<g>
	<path style="fill:#FFFFFF;" d="M964.77075,708.99512c-70.00989,40.53656-151.28784,63.7171-237.99512,63.7171
		c-262.79996,0-475.84396-213.04395-475.84396-475.84393c0-42.73174,5.63428-84.16101,16.2001-123.55611
		c12.2486-45.67319,31.11221-88.63903,55.52185-127.78537C132.64392,129.161,0,319.08289,0,540c0,298.22925,241.75603,540,540,540
		c270.1756,0,494.005-198.40979,533.73657-457.47803C1041.93652,656.38531,1005.23401,685.59509,964.77075,708.99512z"/>
	<path style="fill:#FFFFFF;" d="M540,0c-54.20493,0-106.53665,7.99019-155.89761,22.85853
		c-28.34631,35.4-51.32187,75.2927-67.68292,118.43414c30.04395-16.88777,62.20978-30.48295,95.9855-40.2732
		c-79.59534,86.73661-114.79034,205.50729-122.63422,235.05365c4.87329,55.03909,19.9024,107.15128,43.22931,154.44882
		c0-1.65366,0.26334-229.74142,144.96576-365.88293l32.50256,366.02927l-170.01959,14.32687
		c11.47314,21.2634,24.65851,41.45847,39.35126,60.4097l136.25848-11.85364l11.94153,134.54639
		c20.26825,10.31702,41.4292,19.09753,63.36578,26.20972l-15.70245-165.95129l185.34149-16.12677
		c4.94635,93.86346-10.87305,159.51221-29.78058,203.34149c20.51709-0.19025,40.69763-1.8147,60.45374-4.74152
		c17.48773-56.7951,29.18036-125.15118,25.8877-203.51703l178.6098-15.55609c0.5708,9.33661,0.86359,18.76099,0.86359,28.2439
		c0,39.02924-4.88794,76.91705-14.10754,113.07806c36.99518-26.63416,69.6734-58.9024,96.77582-95.54639
		C1079.91211,551.70734,1080,545.86829,1080,540C1080,241.77068,838.22931,0,540,0z M569.73669,485.67807l-36.00012-380.63422
		l3.33661-0.32191c0,0,183.07312,136.50726,217.84387,365.3414L569.73669,485.67807z M811.88788,465.2634
		C785.22449,280.27319,674.44391,147.86339,615.77563,89.2097C802.85852,120.42435,951.4682,265.27319,988.24396,450.4097
		L811.88788,465.2634z"/>
</g>
</svg>
