<?xml version="1.0" encoding="UTF-8"?><svg id="Layer_1" xmlns="http://www.w3.org/2000/svg" viewBox="0 0 50.49 51"><defs><style>.cls-1{fill:none;stroke:#222;stroke-linecap:round;stroke-linejoin:round;}</style></defs><polygon class="cls-1" points="37.62 21.93 37.62 7.64 25.24 .5 12.87 7.64 12.87 21.93 25.24 29.07 37.62 21.93"/><polygon class="cls-1" points="49.99 43.36 49.99 29.07 37.62 21.93 25.24 29.07 25.24 43.36 37.62 50.5 49.99 43.36"/><polygon class="cls-1" points="25.24 43.36 25.24 29.07 12.87 21.93 .5 29.07 .5 43.36 12.87 50.5 25.24 43.36"/><circle class="cls-1" cx="37.62" cy="34.62" r="4.11"/><path class="cls-1" d="M41.52,41.92c-1.19-.54-2.51-.84-3.91-.84s-2.71.3-3.91.84"/><circle class="cls-1" cx="12.87" cy="34.62" r="4.11"/><path class="cls-1" d="M16.78,41.92c-1.19-.54-2.51-.84-3.91-.84s-2.71.3-3.91.84"/><circle class="cls-1" cx="25.24" cy="13.19" r="4.11"/><path class="cls-1" d="M29.15,20.5c-1.19-.54-2.51-.84-3.91-.84s-2.71.3-3.91.84"/></svg>