<svg width="159" height="40" viewBox="0 0 159 40" fill="none" xmlns="http://www.w3.org/2000/svg">
<path d="M48 6H57.9945V7.78528H54.2027V17.2534H51.7918V7.78528H48V6Z" fill="white"/>
<path d="M59.9012 6H62.2969V10.6616H67.0271V6H69.4304V17.2534H67.0271V12.424H62.2969V17.2534H59.9012V6Z" fill="white"/>
<path d="M72.1229 6H80.294V7.78528H74.5186V10.6005H79.5158V12.3782H74.5186V15.4757H80.4542V17.2534H72.1229V6Z" fill="white"/>
<path d="M87.3957 6H89.7914V10.6616H94.5216V6H96.9249V17.2534H94.5216V12.424H89.7914V17.2534H87.3957V6Z" fill="white"/>
<path d="M99.6174 6H105.195C106.217 6 107.054 6.2416 107.705 6.72479C108.356 7.20799 108.681 7.89972 108.681 8.79999C108.681 9.15603 108.63 9.479 108.529 9.76892C108.427 10.0588 108.305 10.2928 108.162 10.4708C108.02 10.6488 107.847 10.8065 107.644 10.9438C107.445 11.0812 107.27 11.1829 107.117 11.249C106.965 11.3101 106.804 11.3635 106.636 11.4092V11.5695C108.101 11.9204 108.834 12.8105 108.834 14.2397C108.834 14.8806 108.666 15.4325 108.33 15.8953C108 16.3582 107.565 16.7015 107.026 16.9253C106.486 17.144 105.876 17.2534 105.195 17.2534H99.6174V6ZM102.013 7.78528V10.6616H104.569C105.098 10.6616 105.523 10.5395 105.843 10.2953C106.163 10.0512 106.324 9.69263 106.324 9.2196C106.324 8.7415 106.163 8.38291 105.843 8.14386C105.528 7.90481 105.103 7.78528 104.569 7.78528H102.013ZM102.013 12.4392V15.4757H104.599C105.164 15.4757 105.617 15.3511 105.957 15.1019C106.303 14.8476 106.476 14.4661 106.476 13.9575C106.476 13.4488 106.303 13.0699 105.957 12.8207C105.617 12.5664 105.164 12.4392 104.599 12.4392H102.013Z" fill="white"/>
<path d="M110.115 17.2534V17.0168L113.96 6H116.989L120.834 17.0168V17.2534H118.423L117.599 14.7357H113.35L112.518 17.2534H110.115ZM113.876 12.9885H117.065L115.555 8.36511H115.394L113.876 12.9885Z" fill="white"/>
<path d="M132.064 9.45612C132.064 10.3004 131.83 11.0125 131.362 11.5923C130.894 12.1671 130.269 12.5587 129.485 12.7673L131.95 17.0168V17.2534H129.455L127.044 12.9275H125.159V17.2534H122.764V6H128.249C129.348 6 130.258 6.31026 130.981 6.93079C131.703 7.55131 132.064 8.39309 132.064 9.45612ZM125.159 7.78528V11.1422H127.769C128.354 11.1422 128.819 10.9973 129.165 10.7073C129.511 10.4123 129.684 9.99526 129.684 9.45612C129.684 8.92206 129.511 8.51007 129.165 8.22015C128.819 7.93024 128.354 7.78528 127.769 7.78528H125.159Z" fill="white"/>
<path d="M48.7782 21.625H56.5754V23.4103H51.1738V26.3629H55.9498V28.1405H51.1738V32.8784H48.7782V21.625Z" fill="white"/>
<path d="M58.1083 27.2555C58.1083 26.0958 58.3525 25.076 58.8408 24.1961C59.3341 23.3162 60.0284 22.6372 60.9236 22.1591C61.8188 21.6809 62.8538 21.4419 64.0287 21.4419C65.814 21.4419 67.2458 21.9734 68.3241 23.0364C69.4075 24.0944 69.9492 25.5007 69.9492 27.2555C69.9492 29.0052 69.4075 30.4115 68.3241 31.4745C67.2407 32.5376 65.8089 33.0691 64.0287 33.0691C62.8589 33.0691 61.8239 32.83 60.9236 32.3519C60.0284 31.8687 59.3341 31.1872 58.8408 30.3073C58.3525 29.4273 58.1083 28.4101 58.1083 27.2555ZM60.5116 27.2555C60.5116 28.4711 60.8244 29.4426 61.45 30.1699C62.0807 30.8922 62.9403 31.2533 64.0287 31.2533C65.1223 31.2533 65.9844 30.8922 66.6151 30.1699C67.2458 29.4477 67.5612 28.4762 67.5612 27.2555C67.5612 26.0348 67.2458 25.0633 66.6151 24.3411C65.9844 23.6137 65.1223 23.2501 64.0287 23.2501C62.9403 23.2501 62.0807 23.6137 61.45 24.3411C60.8244 25.0633 60.5116 26.0348 60.5116 27.2555Z" fill="white"/>
<path d="M72.0771 21.625H74.4804V28.9263C74.4804 29.6689 74.6889 30.2437 75.106 30.6506C75.5231 31.0524 76.1182 31.2533 76.8913 31.2533C77.6644 31.2533 78.257 31.0524 78.6689 30.6506C79.086 30.2488 79.2946 29.674 79.2946 28.9263V21.625H81.7054V28.7814C81.7054 30.1191 81.2884 31.1694 80.4542 31.9323C79.6252 32.6902 78.4375 33.0691 76.8913 33.0691C75.3756 33.0691 74.193 32.6876 73.3436 31.9247C72.4993 31.1617 72.0771 30.114 72.0771 28.7814V21.625Z" fill="white"/>
<path d="M84.3293 21.625H86.9844L91.5925 29.4375H91.7527V21.625H94.0492V32.8784H91.4094L86.786 25.0659H86.6258V32.8784H84.3293V21.625Z" fill="white"/>
<path d="M96.7341 21.625H101.129C102.914 21.625 104.33 22.1336 105.378 23.1509C106.431 24.163 106.958 25.5312 106.958 27.2555C106.958 28.9797 106.431 30.3479 105.378 31.3601C104.33 32.3723 102.914 32.8784 101.129 32.8784H96.7341V21.625ZM99.1298 23.4103V31.1007H101.083C102.166 31.1007 103.013 30.7548 103.623 30.0631C104.239 29.3714 104.547 28.4355 104.547 27.2555C104.547 26.0755 104.239 25.1396 103.623 24.4479C103.013 23.7561 102.166 23.4103 101.083 23.4103H99.1298Z" fill="white"/>
<path d="M107.964 32.8784V32.6418L111.809 21.625H114.838L118.683 32.6418V32.8784H116.272L115.448 30.3607H111.199L110.367 32.8784H107.964ZM111.725 28.6135H114.914L113.404 23.9901H113.244L111.725 28.6135Z" fill="white"/>
<path d="M118.736 21.625H128.731V23.4103H124.939V32.8784H122.528V23.4103H118.736V21.625Z" fill="white"/>
<path d="M130.637 21.625H133.033V32.8784H130.637V21.625Z" fill="white"/>
<path d="M135.207 27.2555C135.207 26.0958 135.451 25.076 135.939 24.1961C136.433 23.3162 137.127 22.6372 138.022 22.1591C138.917 21.6809 139.952 21.4419 141.127 21.4419C142.912 21.4419 144.344 21.9734 145.422 23.0364C146.506 24.0944 147.048 25.5007 147.048 27.2555C147.048 29.0052 146.506 30.4115 145.422 31.4745C144.339 32.5376 142.907 33.0691 141.127 33.0691C139.957 33.0691 138.922 32.83 138.022 32.3519C137.127 31.8687 136.433 31.1872 135.939 30.3073C135.451 29.4273 135.207 28.4101 135.207 27.2555ZM137.61 27.2555C137.61 28.4711 137.923 29.4426 138.548 30.1699C139.179 30.8922 140.039 31.2533 141.127 31.2533C142.221 31.2533 143.083 30.8922 143.713 30.1699C144.344 29.4477 144.66 28.4762 144.66 27.2555C144.66 26.0348 144.344 25.0633 143.713 24.3411C143.083 23.6137 142.221 23.2501 141.127 23.2501C140.039 23.2501 139.179 23.6137 138.548 24.3411C137.923 25.0633 137.61 26.0348 137.61 27.2555Z" fill="white"/>
<path d="M149.237 21.625H151.892L156.5 29.4375H156.66V21.625H158.956V32.8784H156.317L151.693 25.0659H151.533V32.8784H149.237V21.625Z" fill="white"/>
<g clip-path="url(#clip0_335:638)">
<path d="M19.1592 5.625C20.7125 5.625 21.9717 4.3658 21.9717 2.8125C21.9717 1.2592 20.7125 0 19.1592 0C17.6059 0 16.3467 1.2592 16.3467 2.8125C16.3467 4.3658 17.6059 5.625 19.1592 5.625Z" fill="white"/>
<path d="M9.05566 8.90747C10.609 8.90747 11.8682 7.64827 11.8682 6.09497C11.8682 4.54167 10.609 3.28247 9.05566 3.28247C7.50236 3.28247 6.24316 4.54167 6.24316 6.09497C6.24316 7.64827 7.50236 8.90747 9.05566 8.90747Z" fill="white"/>
<path d="M2.8125 17.5017C4.3658 17.5017 5.625 16.2425 5.625 14.6892C5.625 13.1359 4.3658 11.8767 2.8125 11.8767C1.2592 11.8767 0 13.1359 0 14.6892C0 16.2425 1.2592 17.5017 2.8125 17.5017Z" fill="white"/>
<path d="M2.8125 28.123C4.3658 28.123 5.625 26.8638 5.625 25.3105C5.625 23.7572 4.3658 22.498 2.8125 22.498C1.2592 22.498 0 23.7572 0 25.3105C0 26.8638 1.2592 28.123 2.8125 28.123Z" fill="white"/>
<path d="M9.05566 36.7175C10.609 36.7175 11.8682 35.4583 11.8682 33.905C11.8682 32.3517 10.609 31.0925 9.05566 31.0925C7.50236 31.0925 6.24316 32.3517 6.24316 33.905C6.24316 35.4583 7.50236 36.7175 9.05566 36.7175Z" fill="white"/>
<path d="M19.1592 39.9998C20.7125 39.9998 21.9717 38.7406 21.9717 37.1873C21.9717 35.634 20.7125 34.3748 19.1592 34.3748C17.6059 34.3748 16.3467 35.634 16.3467 37.1873C16.3467 38.7406 17.6059 39.9998 19.1592 39.9998Z" fill="white"/>
<path d="M29.2617 36.7175C30.815 36.7175 32.0742 35.4583 32.0742 33.905C32.0742 32.3517 30.815 31.0925 29.2617 31.0925C27.7084 31.0925 26.4492 32.3517 26.4492 33.905C26.4492 35.4583 27.7084 36.7175 29.2617 36.7175Z" fill="white"/>
<path d="M35.5059 28.123C37.0592 28.123 38.3184 26.8638 38.3184 25.3105C38.3184 23.7572 37.0592 22.498 35.5059 22.498C33.9526 22.498 32.6934 23.7572 32.6934 25.3105C32.6934 26.8638 33.9526 28.123 35.5059 28.123Z" fill="white"/>
<path d="M35.5059 17.5017C37.0592 17.5017 38.3184 16.2425 38.3184 14.6892C38.3184 13.1359 37.0592 11.8767 35.5059 11.8767C33.9526 11.8767 32.6934 13.1359 32.6934 14.6892C32.6934 16.2425 33.9526 17.5017 35.5059 17.5017Z" fill="white"/>
<path d="M29.2617 8.90747C30.815 8.90747 32.0742 7.64827 32.0742 6.09497C32.0742 4.54167 30.815 3.28247 29.2617 3.28247C27.7084 3.28247 26.4492 4.54167 26.4492 6.09497C26.4492 7.64827 27.7084 8.90747 29.2617 8.90747Z" fill="white"/>
<path d="M16.0649 12.5044C17.2731 12.5044 18.2524 11.525 18.2524 10.3169C18.2524 9.10877 17.2731 8.12939 16.0649 8.12939C14.8568 8.12939 13.8774 9.10877 13.8774 10.3169C13.8774 11.525 14.8568 12.5044 16.0649 12.5044Z" fill="white"/>
<path d="M10.9634 16.1716C12.1715 16.1716 13.1509 15.1923 13.1509 13.9841C13.1509 12.776 12.1715 11.7966 10.9634 11.7966C9.75526 11.7966 8.77588 12.776 8.77588 13.9841C8.77588 15.1923 9.75526 16.1716 10.9634 16.1716Z" fill="white"/>
<path d="M8.99414 22.1375C10.2023 22.1375 11.1816 21.1581 11.1816 19.95C11.1816 18.7418 10.2023 17.7625 8.99414 17.7625C7.78602 17.7625 6.80664 18.7418 6.80664 19.95C6.80664 21.1581 7.78602 22.1375 8.99414 22.1375Z" fill="white"/>
<path d="M10.9058 28.1235C12.1139 28.1235 13.0933 27.1442 13.0933 25.936C13.0933 24.7279 12.1139 23.7485 10.9058 23.7485C9.69764 23.7485 8.71826 24.7279 8.71826 25.936C8.71826 27.1442 9.69764 28.1235 10.9058 28.1235Z" fill="white"/>
<path d="M15.9717 31.8406C17.1798 31.8406 18.1592 30.8612 18.1592 29.6531C18.1592 28.445 17.1798 27.4656 15.9717 27.4656C14.7636 27.4656 13.7842 28.445 13.7842 29.6531C13.7842 30.8612 14.7636 31.8406 15.9717 31.8406Z" fill="white"/>
<path d="M22.2544 31.8701C23.4625 31.8701 24.4419 30.8907 24.4419 29.6826C24.4419 28.4745 23.4625 27.4951 22.2544 27.4951C21.0463 27.4951 20.0669 28.4745 20.0669 29.6826C20.0669 30.8907 21.0463 31.8701 22.2544 31.8701Z" fill="white"/>
<path d="M27.3545 28.2029C28.5626 28.2029 29.542 27.2235 29.542 26.0154C29.542 24.8073 28.5626 23.8279 27.3545 23.8279C26.1464 23.8279 25.167 24.8073 25.167 26.0154C25.167 27.2235 26.1464 28.2029 27.3545 28.2029Z" fill="white"/>
<path d="M29.3252 22.2376C30.5333 22.2376 31.5127 21.2582 31.5127 20.0501C31.5127 18.8419 30.5333 17.8625 29.3252 17.8625C28.1171 17.8625 27.1377 18.8419 27.1377 20.0501C27.1377 21.2582 28.1171 22.2376 29.3252 22.2376Z" fill="white"/>
<path d="M27.4121 16.2517C28.6202 16.2517 29.5996 15.2723 29.5996 14.0642C29.5996 12.8561 28.6202 11.8767 27.4121 11.8767C26.204 11.8767 25.2246 12.8561 25.2246 14.0642C25.2246 15.2723 26.204 16.2517 27.4121 16.2517Z" fill="white"/>
<path d="M22.3481 12.5344C23.5563 12.5344 24.5356 11.555 24.5356 10.3469C24.5356 9.1388 23.5563 8.15942 22.3481 8.15942C21.14 8.15942 20.1606 9.1388 20.1606 10.3469C20.1606 11.555 21.14 12.5344 22.3481 12.5344Z" fill="white"/>
<path d="M19.1592 2.8125L22.3482 10.3469" stroke="white" stroke-width="1.25" stroke-miterlimit="10"/>
<path d="M29.2622 6.09521L22.3481 10.3468" stroke="white" stroke-width="1.25" stroke-miterlimit="10"/>
<path d="M27.4121 14.064L29.2621 6.09521" stroke="white" stroke-width="1.25" stroke-miterlimit="10"/>
<path d="M35.5059 14.689L27.4121 14.064" stroke="white" stroke-width="1.25" stroke-miterlimit="10"/>
<path d="M29.3242 20.0499L35.5055 14.689" stroke="white" stroke-width="1.25" stroke-miterlimit="10"/>
<path d="M35.5055 25.311L29.3242 20.05" stroke="white" stroke-width="1.25" stroke-miterlimit="10"/>
<path d="M27.3545 26.0155L35.5061 25.3108" stroke="white" stroke-width="1.25" stroke-miterlimit="10"/>
<path d="M29.2623 33.9047L27.3545 26.0156" stroke="white" stroke-width="1.25" stroke-miterlimit="10"/>
<path d="M22.2544 29.6826L29.2622 33.9045" stroke="white" stroke-width="1.25" stroke-miterlimit="10"/>
<path d="M19.1592 37.1873L22.2545 29.6826" stroke="white" stroke-width="1.25" stroke-miterlimit="10"/>
<path d="M15.9717 29.6531L19.1592 37.1875" stroke="white" stroke-width="1.25" stroke-miterlimit="10"/>
<path d="M9.05664 33.9046L15.9723 29.6531" stroke="white" stroke-width="1.25" stroke-miterlimit="10"/>
<path d="M10.9066 25.9358L9.05664 33.9045" stroke="white" stroke-width="1.25" stroke-miterlimit="10"/>
<path d="M2.8125 25.3108L10.9062 25.9358" stroke="white" stroke-width="1.25" stroke-miterlimit="10"/>
<path d="M8.99375 19.9497L2.8125 25.3106" stroke="white" stroke-width="1.25" stroke-miterlimit="10"/>
<path d="M2.8125 14.689L8.99375 19.9499" stroke="white" stroke-width="1.25" stroke-miterlimit="10"/>
<path d="M10.9641 13.9844L2.8125 14.6891" stroke="white" stroke-width="1.25" stroke-miterlimit="10"/>
<path d="M9.05664 6.09521L10.9645 13.9843" stroke="white" stroke-width="1.25" stroke-miterlimit="10"/>
<path d="M16.066 10.3171L9.05664 6.09521" stroke="white" stroke-width="1.25" stroke-miterlimit="10"/>
<path d="M19.1597 2.8125L16.0659 10.3172" stroke="white" stroke-width="1.25" stroke-miterlimit="10"/>
</g>
<defs>
<clipPath id="clip0_335:638">
<rect width="38.3188" height="40" fill="white"/>
</clipPath>
</defs>
</svg>
