<svg width="1021" height="256" viewBox="0 0 1021 256" fill="none" xmlns="http://www.w3.org/2000/svg">
<path d="M310.62 41.38H374.585V52.8058H350.317V113.401H334.888V52.8058H310.62V41.38Z" fill="#1B1B1B"/>
<path d="M386.788 41.38H402.12V71.214H432.394V41.38H447.774V113.401H432.394V82.4933H402.12V113.401H386.788V41.38Z" fill="#1B1B1B"/>
<path d="M465.007 41.38H517.302V52.8058H480.339V70.8234H512.321V82.2003H480.339V102.025H518.327V113.401H465.007V41.38Z" fill="#1B1B1B"/>
<path d="M562.753 41.38H578.085V71.214H608.358V41.38H623.739V113.401H608.358V82.4933H578.085V113.401H562.753V41.38Z" fill="#1B1B1B"/>
<path d="M640.972 41.38H676.665C683.208 41.38 688.563 42.9262 692.729 46.0187C696.896 49.1111 698.979 53.5382 698.979 59.2999C698.979 61.5786 698.654 63.6456 698.003 65.5011C697.352 67.3566 696.571 68.854 695.659 69.9933C694.748 71.1326 693.641 72.1417 692.339 73.0206C691.069 73.8995 689.946 74.5506 688.97 74.9738C687.993 75.3644 686.968 75.7062 685.894 75.9991V77.0245C695.269 79.2706 699.956 84.9672 699.956 94.1144C699.956 98.2159 698.882 101.748 696.733 104.71C694.618 107.672 691.834 109.87 688.384 111.302C684.933 112.702 681.027 113.401 676.665 113.401H640.972V41.38ZM656.304 52.8058V71.214H672.661C676.047 71.214 678.765 70.4327 680.815 68.8702C682.866 67.3077 683.892 65.0128 683.892 61.9855C683.892 58.9256 682.866 56.6307 680.815 55.1007C678.797 53.5708 676.079 52.8058 672.661 52.8058H656.304ZM656.304 82.5909V102.025H672.856C676.47 102.025 679.367 101.227 681.548 99.632C683.761 98.0044 684.868 95.5629 684.868 92.3077C684.868 89.0525 683.761 86.6274 681.548 85.0323C679.367 83.4047 676.47 82.5909 672.856 82.5909H656.304Z" fill="#1B1B1B"/>
<path d="M708.155 113.401V111.888L732.765 41.38H752.149L776.759 111.888V113.401H761.329L756.056 97.2882H728.858L723.536 113.401H708.155ZM732.228 86.1066H752.638L742.97 56.5167H741.944L732.228 86.1066Z" fill="#1B1B1B"/>
<path d="M848.63 63.4991C848.63 68.9028 847.133 73.4601 844.138 77.171C841.143 80.8494 837.139 83.3559 832.126 84.6906L847.897 111.888V113.401H831.931L816.501 85.7159H804.44V113.401H789.108V41.38H824.216C831.247 41.38 837.074 43.3657 841.696 47.337C846.319 51.3084 848.63 56.6958 848.63 63.4991ZM804.44 52.8058V74.2902H821.14C824.883 74.2902 827.862 73.3624 830.075 71.507C832.289 69.6189 833.396 66.9497 833.396 63.4991C833.396 60.0812 832.289 57.4445 830.075 55.589C827.862 53.7335 824.883 52.8058 821.14 52.8058H804.44Z" fill="#1B1B1B"/>
<path d="M315.601 141.38H365.503V152.806H330.933V171.702H361.499V183.079H330.933V213.401H315.601V141.38Z" fill="#1B1B1B"/>
<path d="M375.313 177.415C375.313 169.993 376.876 163.467 380.001 157.835C383.159 152.204 387.602 147.858 393.331 144.798C399.06 141.738 405.685 140.208 413.204 140.208C424.63 140.208 433.793 143.61 440.694 150.413C447.628 157.184 451.095 166.185 451.095 177.415C451.095 188.613 447.628 197.614 440.694 204.417C433.761 211.221 424.597 214.622 413.204 214.622C405.717 214.622 399.093 213.092 393.331 210.032C387.602 206.94 383.159 202.578 380.001 196.946C376.876 191.315 375.313 184.804 375.313 177.415ZM390.694 177.415C390.694 185.195 392.696 191.413 396.7 196.068C400.737 200.69 406.238 203.001 413.204 203.001C420.203 203.001 425.72 200.69 429.757 196.068C433.793 191.445 435.812 185.228 435.812 177.415C435.812 169.603 433.793 163.385 429.757 158.763C425.72 154.108 420.203 151.78 413.204 151.78C406.238 151.78 400.737 154.108 396.7 158.763C392.696 163.385 390.694 169.603 390.694 177.415Z" fill="#1B1B1B"/>
<path d="M464.714 141.38H480.095V188.109C480.095 192.861 481.429 196.54 484.099 199.144C486.768 201.715 490.576 203.001 495.524 203.001C500.472 203.001 504.265 201.715 506.901 199.144C509.571 196.572 510.905 192.894 510.905 188.109V141.38H526.335V187.181C526.335 195.742 523.666 202.464 518.327 207.347C513.021 212.197 505.42 214.622 495.524 214.622C485.824 214.622 478.256 212.181 472.819 207.298C467.416 202.415 464.714 195.709 464.714 187.181V141.38Z" fill="#1B1B1B"/>
<path d="M543.128 141.38H560.12L589.612 191.38H590.638V141.38H605.335V213.401H588.44L558.851 163.401H557.825V213.401H543.128V141.38Z" fill="#1B1B1B"/>
<path d="M622.519 141.38H650.644C662.069 141.38 671.135 144.635 677.841 151.146C684.579 157.623 687.948 166.38 687.948 177.415C687.948 188.45 684.579 197.207 677.841 203.685C671.135 210.163 662.069 213.401 650.644 213.401H622.519V141.38ZM637.851 152.806V202.025H650.351C657.284 202.025 662.704 199.811 666.61 195.384C670.549 190.957 672.519 184.967 672.519 177.415C672.519 169.863 670.549 163.873 666.61 159.446C662.704 155.019 657.284 152.806 650.351 152.806H637.851Z" fill="#1B1B1B"/>
<path d="M694.39 213.401V211.888L718.999 141.38H738.384L762.993 211.888V213.401H747.563L742.29 197.288H715.093L709.771 213.401H694.39ZM718.462 186.107H738.872L729.204 156.517H728.179L718.462 186.107Z" fill="#1B1B1B"/>
<path d="M763.331 141.38H827.296V152.806H803.028V213.401H787.599V152.806H763.331V141.38Z" fill="#1B1B1B"/>
<path d="M839.499 141.38H854.831V213.401H839.499V141.38Z" fill="#1B1B1B"/>
<path d="M868.743 177.415C868.743 169.993 870.306 163.467 873.431 157.835C876.588 152.204 881.032 147.858 886.761 144.798C892.49 141.738 899.114 140.208 906.634 140.208C918.06 140.208 927.223 143.61 934.124 150.413C941.058 157.184 944.524 166.185 944.524 177.415C944.524 188.613 941.058 197.614 934.124 204.417C927.19 211.221 918.027 214.622 906.634 214.622C899.147 214.622 892.522 213.092 886.761 210.032C881.032 206.94 876.588 202.578 873.431 196.946C870.306 191.315 868.743 184.804 868.743 177.415ZM884.124 177.415C884.124 185.195 886.126 191.413 890.13 196.068C894.166 200.69 899.668 203.001 906.634 203.001C913.633 203.001 919.15 200.69 923.187 196.068C927.223 191.445 929.241 185.228 929.241 177.415C929.241 169.603 927.223 163.385 923.187 158.763C919.15 154.108 913.633 151.78 906.634 151.78C899.668 151.78 894.166 154.108 890.13 158.763C886.126 163.385 884.124 169.603 884.124 177.415Z" fill="#1B1B1B"/>
<path d="M958.534 141.38H975.526L1005.02 191.38H1006.04V141.38H1020.74V213.401H1003.85L974.257 163.401H973.231V213.401H958.534V141.38Z" fill="#1B1B1B"/>
<path fill-rule="evenodd" clip-rule="evenodd" d="M140.62 18C140.62 24.0116 137.673 29.3348 133.145 32.6039L141.484 52.3044C141.991 52.2486 142.507 52.22 143.03 52.22C146.616 52.22 149.887 53.568 152.363 55.785L170.231 44.7981C169.614 42.9816 169.28 41.0348 169.28 39.01C169.28 29.0689 177.339 21.01 187.28 21.01C197.221 21.01 205.28 29.0689 205.28 39.01C205.28 48.9511 197.221 57.01 187.28 57.01L187.208 57.0099L182.371 77.8433C185.772 79.7849 188.28 83.1116 189.128 87.055L210.045 88.6703C212.32 81.3364 219.158 76.01 227.24 76.01C237.181 76.01 245.24 84.0689 245.24 94.01C245.24 103.951 237.181 112.01 227.24 112.01C223.26 112.01 219.582 110.718 216.602 108.531L200.439 122.549C201.236 124.309 201.68 126.263 201.68 128.32C201.68 130.331 201.256 132.243 200.492 133.972L216.467 147.568C219.471 145.321 223.2 143.99 227.24 143.99C237.181 143.99 245.24 152.049 245.24 161.99C245.24 171.931 237.181 179.99 227.24 179.99C219.216 179.99 212.418 174.74 210.095 167.487L188.784 169.329C187.972 173.285 185.492 176.631 182.112 178.603L187.043 198.992C187.122 198.991 187.201 198.99 187.28 198.99C197.221 198.99 205.28 207.049 205.28 216.99C205.28 226.931 197.221 234.99 187.28 234.99C177.339 234.99 169.28 226.931 169.28 216.99C169.28 215.023 169.596 213.129 170.179 211.357L151.858 200.32C149.37 202.587 146.061 203.97 142.43 203.97C141.951 203.97 141.478 203.946 141.012 203.899L133.01 223.3C137.614 226.56 140.62 231.929 140.62 238C140.62 247.941 132.561 256 122.62 256C112.679 256 104.62 247.941 104.62 238C104.62 231.987 107.568 226.663 112.098 223.394L103.764 203.696C103.257 203.751 102.742 203.78 102.22 203.78C98.6338 203.78 95.3625 202.432 92.8855 200.214L75.0098 211.204C75.6259 213.02 75.96 214.966 75.96 216.99C75.96 226.931 67.9011 234.99 57.96 234.99C48.0189 234.99 39.96 226.931 39.96 216.99C39.96 207.049 48.0189 198.99 57.96 198.99L58.0324 198.99L62.869 178.157C59.468 176.215 56.9597 172.888 56.1124 168.945L35.1948 167.33C32.9198 174.664 26.0819 179.99 18 179.99C8.05887 179.99 0 171.931 0 161.99C0 152.049 8.05887 143.99 18 143.99C21.9799 143.99 25.6581 145.282 28.6383 147.469L44.801 133.451C44.0038 131.691 43.56 129.737 43.56 127.68C43.56 125.669 43.9841 123.757 44.7478 122.028L28.7729 108.432C25.7692 110.679 22.04 112.01 18 112.01C8.05887 112.01 0 103.951 0 94.01C0 84.0689 8.05887 76.01 18 76.01C26.024 76.01 32.8217 81.2603 35.1452 88.5129L56.456 86.6706C57.2678 82.7154 59.7475 79.3686 63.1279 77.3974L58.1973 57.0085C58.1183 57.0095 58.0392 57.01 57.96 57.01C48.0189 57.01 39.96 48.9511 39.96 39.01C39.96 29.0689 48.0189 21.01 57.96 21.01C67.9011 21.01 75.96 29.0689 75.96 39.01C75.96 40.9766 75.6446 42.8696 75.0616 44.6411L93.391 55.6812C95.879 53.4131 99.188 52.03 102.82 52.03C103.298 52.03 103.77 52.0539 104.236 52.1007L112.233 32.7022C107.627 29.4421 104.62 24.0722 104.62 18C104.62 8.05887 112.679 0 122.62 0C132.561 0 140.62 8.05887 140.62 18ZM119.628 35.7525L111.632 55.1503C114.797 57.7171 116.82 61.6373 116.82 66.03C116.82 73.762 110.552 80.03 102.82 80.03C95.088 80.03 88.82 73.762 88.82 66.03C88.82 64.8223 88.9729 63.6503 89.2605 62.5324L70.9297 51.4915C69.5058 52.9708 67.8311 54.2071 65.9741 55.132L70.9043 75.5189C78.2949 75.9008 84.17 82.0143 84.17 89.5C84.17 97.232 77.902 103.5 70.17 103.5C64.2531 103.5 59.1935 99.8294 57.1441 94.641L35.8315 96.4834C35.5445 98.5715 34.8994 100.545 33.9601 102.341L49.9344 115.937C52.1284 114.509 54.7473 113.68 57.56 113.68C65.292 113.68 71.56 119.948 71.56 127.68C71.56 135.412 65.292 141.68 57.56 141.68C54.794 141.68 52.2153 140.878 50.0439 139.493L33.8817 153.511C34.8386 155.299 35.5022 157.268 35.8082 159.353L56.7275 160.969C58.7459 155.717 63.8377 151.99 69.8 151.99C77.532 151.99 83.8 158.258 83.8 165.99C83.8 173.432 77.9927 179.518 70.6622 179.964L65.8261 200.795C67.6926 201.703 69.3786 202.925 70.8157 204.391L88.6927 193.401C88.3844 192.246 88.22 191.032 88.22 189.78C88.22 182.048 94.488 175.78 102.22 175.78C109.952 175.78 116.22 182.048 116.22 189.78C116.22 194.126 114.239 198.01 111.131 200.578L119.465 220.276C120.489 220.094 121.544 220 122.62 220C123.64 220 124.641 220.085 125.615 220.248L133.616 200.848C130.452 198.281 128.43 194.362 128.43 189.97C128.43 182.238 134.698 175.97 142.43 175.97C150.162 175.97 156.43 182.238 156.43 189.97C156.43 191.178 156.277 192.351 155.989 193.469L174.311 204.507C175.735 203.029 177.409 201.793 179.266 200.868L174.336 180.481C166.945 180.099 161.07 173.986 161.07 166.5C161.07 158.768 167.338 152.5 175.07 152.5C180.987 152.5 186.047 156.171 188.096 161.359L209.409 159.517C209.696 157.428 210.341 155.455 211.28 153.659L195.306 140.063C193.112 141.491 190.493 142.32 187.68 142.32C179.948 142.32 173.68 136.052 173.68 128.32C173.68 120.588 179.948 114.32 187.68 114.32C190.446 114.32 193.025 115.122 195.196 116.507L211.358 102.489C210.401 100.701 209.738 98.7319 209.432 96.6468L188.513 95.0314C186.494 100.283 181.402 104.01 175.44 104.01C167.708 104.01 161.44 97.742 161.44 90.01C161.44 82.5676 167.247 76.4815 174.578 76.0361L179.414 55.2048C177.548 54.2968 175.862 53.0758 174.426 51.6101L156.557 62.5978C156.865 63.7532 157.03 64.9674 157.03 66.22C157.03 73.952 150.762 80.22 143.03 80.22C135.298 80.22 129.03 73.952 129.03 66.22C129.03 61.8745 131.01 57.9914 134.117 55.4236L125.778 35.7238C124.753 35.9053 123.698 36 122.62 36C121.601 36 120.601 35.9153 119.628 35.7525Z" fill="#1B1B1B"/>
</svg>
