<svg width="1879" height="870" viewBox="0 0 1879 870" fill="none" xmlns="http://www.w3.org/2000/svg">
<g opacity="0.24" clip-path="url(#clip0_129_6028)">
<path d="M88.8329 252.871L89.0706 253.482L89.2234 253.703L89.6817 254.246C90.6493 254.857 91.8716 254.789 92.7543 254.026C93.7559 253.262 94.1464 251.87 93.671 250.868L93.2127 250.325L92.9411 250.087L92.1262 249.782C90.8191 249.697 90.0043 250.24 89.6647 250.546C89.0536 251.157 88.748 251.938 88.816 252.854L88.8329 252.871Z" fill="#8259ef"/>
<path d="M3.22372 187.451C2.52771 187.383 1.8317 187.603 1.37335 188.147L1.06779 188.758L0.98291 189.063V189.759L1.13569 190.217C1.37335 190.676 1.74682 191.066 2.20517 191.372L2.96908 191.592H3.54626C4.20832 191.44 4.66667 191.049 4.97224 190.523C5.2099 189.98 5.24385 189.369 4.97224 188.826C4.66667 188.062 3.97066 187.586 3.20675 187.434L3.22372 187.451Z" fill="#8259ef"/>
<path d="M39.4164 286.057L39.0769 287.364C39.009 287.601 38.9581 288.128 39.2297 288.671L39.3825 289.061V289.129L40.2312 289.893L40.6896 290.131L41.8779 290.046C42.5739 289.74 42.9134 289.197 42.9983 289.044L43.5415 287.89V287.347C43.5415 287.041 43.5076 286.651 43.236 286.04L42.3193 285.191L41.8609 285.106L41.1989 285.191H41.2328L39.8068 285.649L39.4164 286.04V286.057Z" fill="#8259ef"/>
<path d="M212.06 406.068L211.398 404.761L210.906 404.456H209.361C208.699 404.846 207.969 405.525 208.241 407.07L209.124 408.139L209.582 408.377L211.008 408.292C212.077 407.596 212.043 406.526 212.043 406.051L212.06 406.068Z" fill="#8259ef"/>
<path d="M189.346 206.341C189.108 206.731 188.768 207.495 189.227 208.496L189.651 209.192L190.568 209.804L191.026 209.888L192.113 209.736L191.536 209.888H192.35L193.267 209.43L193.505 209.125L193.59 208.887H193.742C194.591 208.496 195.016 207.58 194.778 206.731L194.625 206.035C194.286 205.254 193.437 204.881 192.554 205.034L192.045 205.339L191.281 205.186L190.364 205.339L190.025 205.56L189.363 206.324L189.346 206.341Z" fill="#8259ef"/>
<path d="M132.104 166.13L132.8 167.064L133.445 167.369C133.598 167.454 134.056 167.607 134.634 167.522L135.516 167.064L135.822 166.758L136.128 165.842L135.975 164.993C135.516 163.991 134.362 163.533 133.326 163.839C132.359 164.229 131.833 165.146 132.087 166.147L132.104 166.13Z" fill="#8259ef"/>
<path d="M82.7554 368.113L82.9082 368.961V368.656L83.1458 369.81L83.4514 370.201L84.453 370.812C85.3357 370.896 86.1505 370.744 86.7277 370.268L85.845 369.199V368.503L85.811 368.113L85.7771 366.653L86.2354 366.738C84.7755 365.974 83.6211 366.5 83.0779 367.349L82.7723 368.113H82.7554Z" fill="#8259ef"/>
<path d="M55.5265 338.645L54.491 339.188L54.3722 339.256C53.7611 339.714 53.5234 340.495 53.7101 341.191L53.829 341.344L53.8629 341.955L54.2024 342.566L54.4401 342.803L55.0173 343.109C55.5944 343.347 56.0528 343.347 56.63 343.262L57.4448 343.024L57.7504 342.803L58.2936 342.107C58.5992 341.344 58.4124 340.8 58.3276 340.495L58.3615 340.885L58.2087 339.816L57.9711 339.51L57.1223 338.814C56.579 338.661 56.1207 338.661 55.5096 338.661L55.5265 338.645Z" fill="#8259ef"/>
<path d="M9.08055 255.808L9.43704 256.266L10.9818 256.724C11.4062 256.639 12.3229 256.571 12.9001 255.723C13.2396 255.18 13.3245 254.653 13.1717 254.025L12.8152 253.414L12.6285 253.261L12.0513 252.871C10.7781 252.413 9.31821 253.414 8.85986 254.263L9.09753 255.808H9.08055Z" fill="#8259ef"/>
<path d="M70.0748 93.6821C69.4128 93.9876 69.1072 94.446 69.0054 94.8364L69.0733 95.9907L69.3109 96.3811C69.3958 96.5338 69.6165 96.9922 70.1597 97.2977C70.8557 97.6881 71.8573 97.6881 72.5873 96.8394L72.7061 96.1434C72.774 95.9058 73.0966 95.3796 72.8589 94.6836C72.7401 94.2253 72.4005 93.8349 71.7724 93.5293L70.703 93.4614L70.0918 93.6991L70.0748 93.6821Z" fill="#8259ef"/>
<path d="M45.3747 10.6925L45.7142 10.1493L45.7991 9.91165L45.833 9.21569C45.6802 8.06141 44.7635 7.28057 43.6092 7.1278C42.3699 6.97502 41.0628 7.58611 40.6044 8.58762L40.4517 9.28359L40.5196 9.58913L40.7912 10.353C41.606 11.4224 42.5567 11.6601 43.0659 11.6601C43.9147 11.6601 44.7635 11.3545 45.3747 10.6585V10.6925Z" fill="#8259ef"/>
<path d="M70.6177 45.2701V45.2022L71.7381 44.4384C72.2813 42.9785 71.5853 42.1977 71.2458 41.8922C70.5498 41.1962 69.5143 41.0434 68.4448 41.5017L67.8337 41.8922L67.4942 42.3505L67.4602 42.4353C67.1546 43.1313 67.2735 43.6575 67.3414 43.98L67.4263 44.3535L67.4942 44.659L68.0374 45.2701C68.343 45.5078 69.4973 46.1868 70.6517 45.2701H70.6177Z" fill="#8259ef"/>
<path d="M110.986 110.623L111.75 110.47L112.056 110.317L112.667 109.774L112.973 109.316C113.465 108.161 113.125 107.075 112.056 106.396L111.445 106.243L111.139 106.158L110.375 106.311C109.832 106.549 109.408 107.007 109.136 107.55C108.83 108.246 108.898 108.942 109.221 109.553C109.611 110.164 110.222 110.555 110.986 110.623Z" fill="#8259ef"/>
<path d="M163.917 105.225C164.494 105.14 165.105 104.834 165.53 104.155L165.682 103.918C166.073 102.611 165.377 101.304 164.07 100.76H163L162.542 100.981L161.778 101.677L161.438 102.441L161.472 103.68L161.659 104.054L161.999 104.359L161.914 104.427C162.033 104.58 162.338 104.97 162.915 105.208H163.917V105.225Z" fill="#8259ef"/>
<path d="M101.446 65.8942L101.531 65.2831L100.92 63.8912C100.614 63.5857 99.8504 63.0425 98.7979 63.1952C98.2207 63.2631 97.7284 63.5687 97.3719 64.1119L97.1343 64.723V65.0285L97.2022 65.7245C97.6945 66.9467 99.426 67.2692 100.428 66.9467L101.429 65.8773L101.446 65.8942Z" fill="#8259ef"/>
<path d="M568.893 213.693V213.456L568.74 212.845C568.282 211.843 567.196 211.232 565.973 211.3C564.853 211.368 563.936 212.064 563.665 213.15L563.597 213.999L563.834 214.61L563.987 214.916L564.598 215.459C564.904 215.612 565.413 215.917 566.211 216.002L567.06 215.849L567.45 215.697L568.061 215.085L567.875 215.391C568.061 215.238 568.537 214.848 568.757 214.322L568.91 213.71L568.893 213.693Z" fill="#8259ef"/>
<path d="M420.202 312.537H420.592L420.982 312.385L421.746 311.621L421.899 311.247C422.052 310.704 422.052 310.178 421.831 309.618L421.526 309.074L421.22 308.854C420.456 308.243 419.522 308.243 418.759 308.769H418.725L417.842 309.465L417.604 309.923C417.367 310.687 417.604 311.298 417.995 311.689L418.063 311.841L418.826 312.537C419.522 312.843 420.049 312.69 420.218 312.69V312.537H420.202Z" fill="#8259ef"/>
<path d="M427.824 380.521L426.822 378.824L426.975 379.061C426.822 378.671 426.364 377.907 425.277 377.754L424.666 377.839C424.021 377.992 423.512 378.45 423.291 378.994L422.833 379.214C422.374 380.674 423.478 382.134 424.751 382.439C425.362 382.592 425.99 382.524 426.517 382.287C426.941 382.066 427.518 381.523 427.824 380.521Z" fill="#8259ef"/>
<path d="M373.331 222.164L373.722 221.926C373.841 221.858 374.299 221.536 374.452 220.925L374.537 220.619L374.231 219.55L373.959 219.159L373.077 218.616C371.77 218.311 370.921 218.99 370.615 219.686V220.755C370.7 221.672 371.311 222.062 371.617 222.3L372.856 222.385L373.348 222.147L373.331 222.164Z" fill="#8259ef"/>
<path d="M368.442 72.5146L368.289 73.1256C368.255 74.9759 369.511 75.6719 370.292 75.8925L370.598 75.9604C371.718 76.0453 372.669 75.3493 372.992 74.263C373.178 73.567 373.144 72.8031 372.805 72.192L372.38 71.7337L372.109 71.5809L371.498 71.2754H371.226C370.309 71.0378 369.732 71.1905 369.002 71.8186L368.578 72.2769L368.459 72.4976L368.442 72.5146Z" fill="#8259ef"/>
<path d="M328.362 168.354L328.209 167.743C328.362 166.589 327.666 165.893 327.021 165.655L326.444 165.502H326.172L325.833 165.655H324.763C324.22 165.961 323.88 166.351 323.728 166.962C323.609 167.42 323.643 167.879 323.694 168.354L323.999 169.05L324.186 169.355L324.848 169.814C325.154 169.967 326.155 170.272 327.157 169.814C327.768 169.593 328.158 169.05 328.396 168.354H328.362Z" fill="#8259ef"/>
<path d="M699.03 150.191V150.802L699.115 151.108L699.42 151.651C700.116 152.568 701.339 152.89 702.425 152.5C703.579 151.956 704.428 150.802 704.275 149.733L704.038 149.037L703.851 148.799L703.189 148.256C701.967 147.713 701.033 148.018 700.575 148.256C699.811 148.646 699.267 149.257 699.03 150.174V150.191Z" fill="#8259ef"/>
<path d="M543.888 396.987H543.82C543.056 397.445 542.818 398.056 542.818 398.447L543.056 399.142V399.227C543.09 399.771 543.362 400.229 543.82 400.534L544.431 400.84L544.703 400.925H545.28L546.01 400.687L546.4 400.602L547.215 399.906L547.402 399.601L547.555 398.599C547.368 397.598 546.672 396.987 545.331 396.681L543.99 396.919L543.922 396.987H543.888Z" fill="#8259ef"/>
<path d="M643.96 108.077L643.417 107.924C642.534 107.856 641.719 108.077 641.142 108.688C640.565 109.146 640.327 109.927 640.412 110.691C640.497 111.387 640.803 111.998 641.329 112.456L641.872 112.762L642.297 112.83C643.179 112.982 643.723 112.677 644.028 112.524V112.439L644.334 112.371L644.639 112.219L645.182 111.523C645.369 111.064 645.42 110.606 645.42 110.216C645.335 109.52 645.03 108.908 644.571 108.433L643.96 108.043V108.077Z" fill="#8259ef"/>
<path d="M404.431 332.856L404.499 333.094L404.856 333.552C405.67 334.401 406.893 334.554 408.013 334.01C409.049 333.552 409.592 332.551 409.507 331.549L409.235 330.7L408.811 330.157L408.573 330.004L407.809 329.699C407.419 329.614 406.808 329.546 406.044 329.699L405.28 330.157L405.042 330.463L404.652 331.226L404.72 330.921C404.567 331.159 404.329 331.617 404.295 332.228L404.414 332.839L404.431 332.856Z" fill="#8259ef"/>
<path d="M466.019 198.993L466.053 198.841L465.9 197.754L465.663 197.449L464.814 196.753C463.541 196.362 462.743 196.838 462.352 197.143C461.843 197.534 461.283 198.297 461.436 199.689L461.826 200.606L462.132 200.844L463.014 201.302C463.778 201.387 465.595 201.302 466.019 198.993Z" fill="#8259ef"/>
<path d="M638.341 62.3467C637.73 62.0411 636.949 62.109 636.389 62.4316L635.88 62.9748L635.727 63.2124L635.489 63.9084V64.3667C635.557 64.9099 635.795 65.3682 636.185 65.8265L636.796 66.2169L637.374 66.3697C638.036 66.4546 638.613 66.2169 639.02 65.8265C639.479 65.3682 639.631 64.825 639.597 64.129C639.529 63.3652 639.02 62.7541 638.324 62.3637L638.341 62.3467Z" fill="#8259ef"/>
<path d="M674.653 208.686C674.347 208.992 673.77 209.603 673.889 210.689L674.042 211.538L674.738 212.387L675.162 212.624L676.283 212.777L675.671 212.692L676.401 212.93L677.437 212.777L677.827 212.539L677.912 212.387H678.065C678.982 212.302 679.678 211.623 679.763 210.689L679.796 209.993C679.712 209.144 679.067 208.533 678.15 208.38L677.607 208.533L676.911 208.143L675.994 208.075L675.604 208.143L674.687 208.686H674.653Z" fill="#8259ef"/>
<path d="M543.735 64.2818L543.497 63.4331L542.886 62.7371L542.496 62.5843L541.766 62.4316C541.494 62.3467 540.883 62.1939 540.119 62.4316L539.457 62.8899L539.219 63.1275L538.948 63.5858C538.829 63.8235 538.557 64.2818 538.642 65.0457L538.71 65.4361L539.253 66.0472C539.746 67.0487 540.645 67.2015 541.019 67.2015L541.63 67.0487H541.698L542.581 66.7431L542.852 66.5055L543.429 65.6568C543.548 65.4191 543.769 64.9608 543.701 64.2818H543.735Z" fill="#8259ef"/>
<path d="M767.731 80.5267L768.122 81.5961L768.665 82.1393C768.818 82.2242 769.123 82.5298 769.735 82.5977L770.736 82.4449L771.127 82.2072L771.738 81.4434L771.823 80.5946C771.738 79.5252 770.753 78.7444 769.667 78.7444C768.665 78.7444 767.816 79.5082 767.748 80.5098L767.731 80.5267Z" fill="#8259ef"/>
<path d="M583.425 256.046L583.187 256.419C583.068 256.572 582.797 257.03 582.881 257.658L582.915 257.879L583.611 258.88L584.002 259.118L585.037 259.271C586.378 259.118 586.888 258.201 586.888 257.421L586.497 256.419H586.531C586.107 255.57 585.377 255.418 584.986 255.35L583.798 255.74L583.408 256.046H583.425Z" fill="#8259ef"/>
<path d="M644.045 393.761L643.926 393.15C643.281 391.453 641.855 391.232 641.04 391.3L640.735 391.368C639.648 391.674 639.003 392.675 639.122 393.761C639.207 394.457 639.58 395.153 640.09 395.612L640.667 395.917L640.972 396.002H641.668L641.906 395.917C642.823 395.764 643.366 395.459 643.824 394.61L643.977 394.067L644.045 393.761Z" fill="#8259ef"/>
<path d="M738.872 265.585L738.482 266.129C738.329 266.366 738.21 266.74 738.244 267.198L738.278 267.351H738.312L738.38 268.047L738.533 268.352L739.263 269.048C740.451 269.659 741.385 269.286 741.758 269.048C742.216 268.811 742.912 268.284 743.065 266.96L742.76 265.959L742.454 265.568L741.385 265.025C740.994 264.94 740.468 264.872 739.687 265.025L739.076 265.331L738.838 265.568L738.872 265.585Z" fill="#8259ef"/>
<path d="M830.559 229.242L830.016 229.327C829.167 229.48 828.471 229.938 828.097 230.719C827.758 231.33 827.707 232.179 828.097 232.875C828.335 233.486 828.861 233.944 829.489 234.267L830.151 234.42L830.576 234.335C831.425 234.182 831.883 233.724 832.07 233.486L832.341 233.333L832.579 233.028L832.885 232.179C832.918 231.721 832.851 231.33 832.647 230.872C832.375 230.329 831.883 229.803 831.34 229.497L830.576 229.259L830.559 229.242Z" fill="#8259ef"/>
<path d="M641.584 261.817H641.618L641.737 262.275L641.974 262.581L642.942 263.192C643.757 263.345 644.487 263.192 645.064 263.039L645.879 262.496L646.15 262.19L646.456 261.342L646.218 260.272C645.641 259.033 643.994 258.422 642.721 258.965C642.144 259.203 641.754 259.661 641.533 260.119C641.414 260.51 641.295 261.121 641.601 261.817H641.584Z" fill="#8259ef"/>
<path d="M846.957 286.057L846.567 287.364C846.567 287.601 846.499 288.128 846.72 288.671L846.957 289.061V289.129L847.806 289.893L848.231 290.131L849.419 290.046C850.115 289.74 850.454 289.197 850.573 289.044L851.066 287.89V287.347C851.066 287.041 851.032 286.651 850.76 286.04H850.726L849.843 285.191L849.334 285.106L848.723 285.191H848.757L847.331 285.649L846.94 286.04L846.957 286.057Z" fill="#8259ef"/>
<path d="M724.731 346.877L724.46 347.115L724.273 347.505L724.154 348.575L724.307 348.965C724.545 349.508 724.884 349.882 725.427 350.187L725.971 350.425H726.429C727.431 350.34 728.127 349.814 728.347 348.965L728.381 348.88L728.653 347.879L728.5 347.336C728.195 346.64 727.583 346.266 727.04 346.181L726.887 346.113L725.818 346.029C725.122 346.266 724.816 346.725 724.698 346.792L724.731 346.86V346.877Z" fill="#8259ef"/>
<path d="M999.52 209.857L998.857 210.468L998.246 210.536L997.398 210.842L997.092 211.08L996.634 211.775C996.396 212.319 996.175 213.167 996.566 214.016C996.753 214.474 997.109 214.865 997.482 215.086L998.246 215.323H998.552L999.316 215.17L1000.16 214.78C1000.86 214.542 1001.81 214.169 1002.54 213.235L1002.85 212.539V212.234L1002.76 211.538V211.453L1002.15 210.604L1002.07 210.299C1000.84 209.06 999.604 209.382 998.79 210.078L999.486 209.84L999.52 209.857Z" fill="#8259ef"/>
<path d="M791.956 146.032C791.565 146.491 791.412 147.102 791.565 147.645L791.752 147.883L791.939 148.341V148.494L792.007 148.562L792.091 148.646L792.703 149.342L793.127 149.495H794.468C796.42 149.037 796.386 147.424 796.268 146.728L795.419 145.727L795.079 145.574C793.891 144.657 792.771 145.184 792.465 145.421L791.922 146.032H791.956Z" fill="#8259ef"/>
<path d="M875.409 208.686C875.799 209.535 876.716 210.078 877.718 209.908L878.38 209.603L878.651 209.45L879.076 208.907C879.5 208.143 879.5 207.294 879.11 206.445L878.448 205.749L878.023 205.529L876.954 205.376C876.343 205.597 875.765 205.987 875.46 206.615C875.154 207.311 875.12 208.075 875.426 208.686H875.409Z" fill="#8259ef"/>
<path d="M1019.55 406.068L1018.94 404.761L1018.43 404.456H1016.85C1016.24 404.846 1015.54 405.525 1015.78 407.07L1016.63 408.139L1017.17 408.377L1018.57 408.292C1019.64 407.596 1019.64 406.526 1019.64 406.051H1019.55V406.068Z" fill="#8259ef"/>
<path d="M926.71 288.518V288.433C926.099 289.129 926.099 289.74 926.167 290.131L926.286 290.895L927.202 291.744L927.661 291.896L928.934 291.744C930.156 290.98 930.309 289.978 930.241 289.503L929.545 288.349L929.46 288.281C928.849 287.67 928.153 287.67 927.763 287.737L926.693 288.433V288.518H926.71Z" fill="#8259ef"/>
<path d="M721.387 217.547L720.895 216.783L720.046 216.324L719.656 216.257L718.892 216.324C718.586 216.409 718.009 216.409 717.347 216.868L716.855 217.479L716.736 217.784L716.583 218.328C716.583 218.565 716.464 219.091 716.736 219.787L716.973 220.178L717.703 220.568C718.518 221.417 719.35 221.264 719.741 221.179L720.284 220.789H720.352L721.048 220.178L721.285 219.872L721.557 218.956C721.591 218.718 721.676 218.192 721.404 217.564L721.387 217.547Z" fill="#8259ef"/>
<path d="M777.102 343.245L776.406 343.092H775.947C775.183 343.245 774.487 343.703 774.097 344.399C773.707 345.095 773.707 345.944 774.063 346.64C774.369 347.336 774.946 347.879 775.608 348.032C776.338 348.184 777.102 348.032 777.764 347.641L778.035 347.336L778.188 347.183C778.697 346.487 778.731 345.485 778.307 344.569C778.035 344.026 777.645 343.567 777.119 343.262L777.102 343.245Z" fill="#8259ef"/>
<path d="M819.983 388.126L819.83 388.584C819.796 388.737 819.677 389.195 819.949 389.823L820.068 390.044L821.035 390.74L821.494 390.808L822.495 390.74C823.718 390.129 823.955 389.128 823.718 388.432L823.022 387.583C822.326 386.887 821.63 386.972 821.256 387.04L820.254 387.736L819.983 388.126Z" fill="#8259ef"/>
<path d="M973.631 284.988L974.124 285.683L974.48 286.227C975.516 286.77 976.364 286.464 976.636 286.379L977.4 286.142L977.672 285.989L978.181 285.378C978.486 284.835 978.52 284.156 978.249 283.613L977.943 283.154L977.756 282.764L976.789 282C975.719 281.694 974.565 282.221 973.988 282.917C973.445 283.528 973.326 284.309 973.648 284.988H973.631Z" fill="#8259ef"/>
<path d="M882.403 372.747L882.675 372.594C883.167 372.289 883.405 371.898 883.489 371.661L883.642 371.423L883.795 370.965L883.676 369.658L883.184 368.962L882.488 368.418L882.148 368.266H881.181C880.638 368.35 880.213 368.503 879.874 368.724C879.33 369.029 879.025 369.488 878.872 370.031V370.642L878.94 371.1C879.398 372.17 880.315 372.492 880.705 372.56L881.096 372.781H881.486L882.403 372.713V372.747Z" fill="#8259ef"/>
<path d="M313.984 45.7283L314.221 45.4907C315.189 44.5741 314.985 43.5725 314.917 43.1821H314.85L314.884 42.7917L314.765 42.4013L314.221 41.6374L313.984 41.4847L313.441 41.247L313.356 41.3998L312.201 41.0094H312.049C311.132 40.9245 310.589 41.3149 310.283 41.6205L309.893 42.3164L309.825 42.8596C309.825 43.4028 309.893 44.9475 311.217 45.7114C311.675 46.0169 312.439 46.2546 313.525 45.932L313.984 45.7114V45.7283Z" fill="#8259ef"/>
<path d="M399.44 234.64C398.829 234.182 398.218 234.097 397.827 234.182L396.826 234.793L396.52 235.099C396.435 235.251 396.096 235.642 396.062 236.253C396.062 237.017 396.486 237.866 397.607 238.171L398.218 237.933C398.49 237.933 399.135 237.933 399.678 237.475C400.017 237.17 400.255 236.711 400.289 236.015L399.865 235.014L399.44 234.623V234.64Z" fill="#8259ef"/>
<path d="M345.898 125.934L346.357 126.172C347.239 126.324 348.088 126.24 348.75 125.713C349.361 125.323 349.752 124.559 349.786 123.795C349.82 123.099 349.599 122.488 349.124 121.945L348.631 121.555L348.292 121.402C347.443 121.164 346.832 121.402 346.526 121.487V121.555H346.221L345.83 121.707L345.134 122.318C344.948 122.709 344.829 123.167 344.795 123.625C344.761 124.237 344.982 124.865 345.372 125.476L345.915 125.934H345.898Z" fill="#8259ef"/>
<path d="M535.705 61.3621L535.637 61.5827L535.671 62.5843L535.824 62.9747L536.554 63.7385C537.742 64.2817 538.591 63.9592 539.049 63.7385C539.593 63.3481 540.238 62.737 540.356 61.3451L540.051 60.4285L539.813 60.038L538.964 59.4949C538.268 59.3421 536.418 59.1044 535.688 61.3451L535.705 61.3621Z" fill="#8259ef"/>
<path d="M334.134 99.759L334.898 98.6047C334.813 97.06 333.896 96.5168 333.472 96.3641C332.589 95.9736 331.503 96.2792 330.654 97.06L330.263 97.6711L330.111 98.1294V98.2822C330.077 98.9782 330.382 99.5044 330.501 99.742L330.586 99.6741L330.739 100.048L330.976 100.285L331.672 100.676C332.063 100.828 333.438 101.066 334.134 99.759Z" fill="#8259ef"/>
<path d="M344.523 171.902C345.067 172.292 345.831 172.36 346.476 172.139L347.053 171.681L347.291 171.443L347.562 170.832L347.596 170.374C347.63 169.831 347.511 169.305 347.206 168.829L346.595 168.286L346.051 168.049C345.44 167.981 344.812 168.048 344.354 168.439C343.861 168.829 343.539 169.356 343.505 169.984C343.505 170.747 343.844 171.528 344.506 171.902H344.523Z" fill="#8259ef"/>
<path d="M566.041 119.551L566.347 119.484L566.652 119.178L567.195 118.261V117.956C567.263 116.954 566.856 116.106 566.041 115.715L565.464 115.647C564.038 115.104 563.189 115.8 562.883 116.19L562.578 117.124C562.493 117.277 562.34 117.582 562.34 118.041C562.306 118.889 562.731 119.585 563.529 119.959L563.885 120.112L564.191 120.197C565.192 120.264 565.803 119.806 566.041 119.585V119.551Z" fill="#8259ef"/>
<path d="M396.13 146.575L396.826 146.202L397.064 145.964L397.454 145.268L397.539 144.725C397.539 143.486 396.843 142.569 395.621 142.332H394.925L394.619 142.4L394.008 142.79C393.584 143.181 393.312 143.792 393.312 144.335C393.278 145.099 393.55 145.795 394.127 146.185C394.704 146.643 395.4 146.796 396.164 146.558L396.13 146.575Z" fill="#8259ef"/>
<path d="M493.283 13.4763L493.317 13.8668L493.707 14.7155L493.979 14.9362L494.743 15.3945C495.286 15.4624 495.778 15.3945 496.203 15.1568C496.814 14.9192 497.357 14.4609 497.476 13.7649L497.442 13.069L497.357 12.8313L497.051 12.2202C496.508 11.6091 495.557 11.3036 494.709 11.6091C493.894 11.9147 493.368 12.6106 493.283 13.4594V13.4763Z" fill="#8259ef"/>
<path d="M483.623 201.217L483.895 201.37C485.236 201.743 486.051 201.064 486.356 200.827H486.271L486.662 200.589L486.967 200.351L487.358 199.503V199.197C487.392 198.824 487.358 198.586 487.358 198.654H487.205L486.967 197.5L486.883 197.347C486.492 196.498 485.881 196.278 485.508 196.193H484.659L484.116 196.345C483.657 196.651 482.265 197.415 482.197 198.892C482.197 199.435 482.35 200.199 483.199 200.98L483.623 201.2V201.217Z" fill="#8259ef"/>
<path d="M438.366 183.529L438.518 184.446L439.062 185.142L439.367 185.38L440.063 185.685C440.335 185.77 440.878 185.991 441.676 185.838L442.406 185.532L442.678 185.295L443.017 184.904C443.136 184.684 443.509 184.208 443.509 183.529V183.071L443.051 182.375C442.745 181.306 441.863 181.068 441.472 180.983L440.861 181.136L440.742 181.051L439.86 181.289L439.52 181.441L438.909 182.137C438.722 182.358 438.417 182.833 438.366 183.529Z" fill="#8259ef"/>
<path d="M476.816 272.664V273.275L477.274 274.344L477.665 274.65L478.734 275.04C480.041 275.04 480.703 274.276 480.805 273.495L480.652 273.037H480.72C480.72 272.036 480.228 271.492 479.871 271.34C479.328 270.949 478.632 270.881 477.953 271.102L477.291 271.645L477.104 271.883L476.799 272.647L476.816 272.664Z" fill="#8259ef"/>
<path d="M458.822 134.489L458.669 134.099L458.007 133.488L457.345 133.182L456.275 133.03L455.817 133.182L454.934 133.878L454.815 134.116L454.748 135.423L454.985 135.881L455.681 136.492L455.987 136.73C456.802 137.12 457.447 136.951 457.837 136.798C458.414 136.577 458.839 136.034 458.907 135.338L458.839 134.489H458.822Z" fill="#8259ef"/>
<path d="M601.232 175.517V175.432L601.198 175.365V175.28L601.045 174.974V174.889L601.011 174.974L600.587 174.057L600.349 173.905C598.957 173.209 597.497 173.599 596.733 174.974L596.648 176.196L596.767 176.502C596.954 177.266 597.497 177.656 597.803 177.894L598.499 178.047H598.838L599.11 177.962C600.57 177.894 601.113 176.96 601.3 176.349L601.232 175.5V175.517Z" fill="#8259ef"/>
<path d="M704.649 57.8823L704.106 56.6431C703.953 56.3376 703.715 55.9472 703.138 55.6416L702.782 55.4889L702.714 55.404L701.559 55.2512L701.101 55.404L700.184 56.1679C699.845 56.7789 699.879 57.407 699.947 57.6277L700.218 58.782L700.558 59.2403C700.711 59.4779 701.016 59.7835 701.627 60.089L702.866 60.1739L703.325 60.0211L703.783 59.5628L703.749 59.6477L704.598 58.4255L704.632 57.8823H704.649Z" fill="#8259ef"/>
<path d="M883.371 5.61714L883.557 5.3795C884.525 4.37799 884.253 3.37648 884.168 3.07093H884.1V2.68051L883.982 2.29009L883.404 1.59413L883.133 1.44136L882.59 1.20371L882.522 1.35648L881.333 0.966064L881.181 1.05094C880.264 0.966064 879.721 1.44136 879.483 1.7469L879.093 2.51077L879.059 3.05396C879.093 3.51228 879.245 5.05698 880.603 5.82084C881.113 6.05849 881.877 6.27916 882.946 5.82084L883.371 5.60017V5.61714Z" fill="#8259ef"/>
<path d="M793.297 6.61858C793.331 6.00749 793.025 5.37942 792.38 4.9211L792.108 4.76833C790.801 4.31001 789.409 4.85321 788.764 6.07539L788.696 7.1448L788.815 7.53521L789.545 8.38395L790.309 8.77437L791.497 8.85924L791.956 8.70647L792.346 8.40093L792.38 8.4858C792.533 8.40093 792.957 8.09538 793.195 7.56916L793.348 6.65253H793.314L793.297 6.61858Z" fill="#8259ef"/>
<path d="M658.661 25.8679L659.204 24.8664V24.7136C659.442 24.0177 659.17 23.2538 658.542 22.7785L658.389 22.7106L657.965 22.3202L657.269 22.0146H656.267C655.724 22.2523 655.351 22.5578 654.892 22.8634L654.434 23.5593L654.366 23.9498V24.7985C654.604 25.5624 655.096 25.9528 655.368 26.1056L655.13 25.8L655.894 26.5639L656.284 26.7167H657.32C657.897 26.5639 658.237 26.2583 658.661 25.8679Z" fill="#8259ef"/>
<path d="M971.408 105.225C972.019 105.14 972.63 104.834 973.054 104.155L973.173 103.918C973.564 102.611 972.902 101.304 971.628 100.76H970.474L970.084 100.981L969.269 101.677L968.929 102.441V103.68L969.167 104.054L969.506 104.359L969.438 104.427C969.557 104.58 969.863 104.97 970.474 105.208H971.391L971.408 105.225Z" fill="#8259ef"/>
<path d="M1002.17 35.0345L1002.47 35.6456L1002.81 36.036C1003.48 36.4943 1004.24 36.6471 1005 36.4264C1005.77 36.2736 1006.46 35.6625 1006.77 34.9666C1007.07 34.2706 1007.07 33.5067 1006.77 32.9635C1006.46 32.2676 1005.8 31.8941 1005 31.6565H1004.39C1003.54 31.8093 1002.78 32.4204 1002.35 33.354C1002.08 33.8972 1002.02 34.5083 1002.17 35.0514V35.0345Z" fill="#8259ef"/>
<path d="M908.987 65.8945L909.106 65.2834L908.41 63.8915C908.105 63.5859 907.375 63.0427 906.339 63.1955C905.762 63.2634 905.27 63.5689 904.913 64.1121L904.676 64.7232L904.642 65.0288L904.76 65.7247C905.253 66.9469 907.035 67.2694 907.952 66.9469L908.987 65.8775V65.8945Z" fill="#8259ef"/>
<path d="M1060.7 278.045H1059.63C1059.17 278.13 1058.87 278.283 1058.56 278.435C1058.02 278.826 1057.64 279.284 1057.49 279.895L1057.42 280.659L1057.49 280.965L1057.65 281.202L1057.88 281.966L1058.19 282.356L1059.34 282.9C1059.65 282.9 1060.5 282.9 1061.26 282.441C1062.02 281.898 1062.5 281.134 1062.5 280.133L1061.96 279.063L1061.8 278.673L1061.11 278.215L1060.72 278.062L1060.7 278.045Z" fill="#8259ef"/>
<path d="M1068.71 164.501L1069.26 164.195C1070.56 162.82 1070.11 161.496 1069.71 160.817L1069.48 160.58C1068.71 159.816 1067.56 159.663 1066.56 160.274C1065.95 160.664 1065.49 161.276 1065.32 161.887L1065.23 162.583L1065.32 162.82L1065.62 163.431L1065.78 163.652C1066.32 164.348 1066.85 164.654 1067.85 164.721L1068.46 164.569L1068.7 164.501H1068.71Z" fill="#8259ef"/>
<path d="M1177.94 340.257V339.714L1177.39 338.645L1177 338.254L1175.93 337.949C1174.63 337.949 1174.01 338.797 1173.86 339.578L1174.08 340.037H1174.01C1174.01 341.038 1174.56 341.496 1174.86 341.734C1175.47 342.125 1176.17 342.192 1176.87 341.887L1177.48 341.344L1177.63 341.038L1177.94 340.274V340.257Z" fill="#8259ef"/>
<path d="M1285.16 379.978H1285.46L1285.92 379.74L1286.62 378.977L1286.68 378.671C1286.99 377.754 1286.77 376.821 1286.07 376.21L1285.53 376.057C1284.22 375.208 1283.29 375.751 1282.91 376.057L1282.37 376.906L1282.29 376.821C1282.22 377.058 1282.07 377.279 1281.9 377.67C1281.66 378.518 1281.96 379.282 1282.59 379.893L1282.9 380.046L1283.2 380.199C1284.12 380.504 1284.9 380.199 1285.21 380.046L1285.12 379.961L1285.16 379.978Z" fill="#8259ef"/>
<path d="M1208.48 148.035L1208.54 147.645L1208.39 146.575L1208.15 146.27L1207.24 145.574L1206.54 145.421L1205.3 145.642L1204.91 145.879L1204.67 146.27H1204.6C1204.45 146.423 1203.99 146.813 1203.76 147.492L1203.91 148.494L1204.06 148.884V149.19L1204.37 149.648L1205.52 150.344C1206.06 150.412 1207.83 150.259 1208.44 148.035H1208.48Z" fill="#8259ef"/>
<path d="M1703.9 252.871L1704.14 253.482L1704.29 253.703L1704.75 254.246C1705.66 254.857 1706.9 254.789 1707.82 254.026C1708.82 253.262 1709.19 251.87 1708.74 250.868L1708.28 250.325L1707.97 250.087L1707.21 249.782C1705.9 249.697 1705.05 250.24 1704.75 250.546C1704.14 251.157 1703.83 251.938 1703.9 252.854V252.871Z" fill="#8259ef"/>
<path d="M1443.85 329.869L1443.61 330.106L1443.39 330.497V331.566L1443.54 331.872C1443.93 332.721 1444.69 333.332 1445.54 333.332L1446.15 333.179C1447.7 333.026 1448.07 332.025 1448.23 331.566L1448.07 330.565L1447.85 329.716C1447.55 328.952 1446.78 328.494 1445.85 328.409L1445.54 328.494L1445.24 328.562C1444.24 328.867 1443.93 329.563 1443.78 329.869H1443.85Z" fill="#8259ef"/>
<path d="M1532.29 346.877L1531.98 347.115L1531.75 347.505L1531.68 348.575L1531.83 348.965C1532.05 349.508 1532.44 349.882 1532.9 350.187L1533.51 350.425H1533.9C1534.9 350.34 1535.67 349.814 1535.91 348.965V348.88L1536.14 347.879L1535.99 347.336C1535.68 346.64 1535.14 346.266 1534.53 346.181L1534.38 346.113L1533.38 346.029C1532.68 346.266 1532.31 346.725 1532.22 346.792L1532.29 346.86V346.877Z" fill="#8259ef"/>
<path d="M1557.6 393.524L1557.36 393.218L1556.67 392.675L1556.28 392.522L1555.36 392.438C1554.9 392.59 1554.44 392.896 1554.21 393.286C1553.75 393.745 1553.51 394.441 1553.66 395.136L1554.05 395.68L1554.21 395.9L1554.75 396.291C1555.6 396.596 1556.51 396.444 1557.14 395.832C1557.75 395.221 1557.91 394.288 1557.6 393.524Z" fill="#8259ef"/>
<path d="M1571.61 316.611L1571.54 316.917L1571.69 317.681C1572.08 318.445 1572.61 318.835 1572.91 318.988L1573.61 319.141L1573.91 319.056L1574.61 318.903C1575.76 318.292 1576.22 317.053 1575.68 315.898L1575.53 315.661L1574.83 315.05L1574.44 314.897L1573.44 314.829C1572.52 315.05 1572.06 315.593 1571.74 316.051L1571.59 316.594L1571.61 316.611Z" fill="#8259ef"/>
<path d="M1398.54 284.512L1398.47 284.275C1398.23 283.731 1397.86 283.426 1397.71 283.358L1397.47 283.205L1397.01 282.9H1395.7L1394.94 283.205L1394.24 283.748L1394 284.139L1393.85 285.055C1393.85 285.514 1393.92 285.972 1394.09 286.362C1394.33 286.906 1394.79 287.279 1395.33 287.517L1395.94 287.602H1396.4C1397.62 287.296 1398.01 286.532 1398.25 286.142H1398.16L1398.47 285.751L1398.54 285.446V284.529V284.512Z" fill="#8259ef"/>
<path d="M1482.08 298.907L1483.99 299.603H1483.69C1484.08 299.671 1484.99 300.061 1485.84 299.518L1486.3 299.06C1486.69 298.516 1486.76 297.905 1486.61 297.362L1486.85 296.819C1486.23 295.427 1484.38 294.969 1483.23 295.512C1482.62 295.75 1482.23 296.208 1481.99 296.734C1481.75 297.192 1481.68 297.888 1482.06 298.89L1482.08 298.907Z" fill="#8259ef"/>
<path d="M1697.45 402.215L1697.99 402.673C1698.6 403.675 1699.54 403.743 1700.23 403.59L1700.77 403.284L1701 403.132L1701.15 402.826L1702 402.13C1702.23 401.587 1702.23 401.061 1702 400.518C1701.76 400.059 1701.39 399.754 1701.08 399.363L1700.38 399.058L1700.08 398.973H1699.23C1698.92 399.058 1697.92 399.431 1697.46 400.365C1697.16 400.976 1697.16 401.587 1697.46 402.215H1697.45Z" fill="#8259ef"/>
<path d="M1781.12 284.988L1781.66 285.683L1782.06 286.227C1783.06 286.77 1783.91 286.464 1784.21 286.379L1784.91 286.142L1785.21 285.989L1785.76 285.378C1786.06 284.835 1786.06 284.156 1785.76 283.613L1785.52 283.154H1785.45L1785.3 282.764L1784.3 282C1783.29 281.694 1782.14 282.221 1781.53 282.917C1780.99 283.528 1780.83 284.309 1781.14 284.988H1781.12Z" fill="#8259ef"/>
<path d="M1778.44 350.799L1778.22 351.41C1778.22 351.647 1778.22 352.106 1778.37 352.479L1778.44 352.632H1778.52L1778.76 353.243L1779.07 353.549L1779.92 353.939C1781.31 354.177 1781.99 353.549 1782.29 353.243C1782.68 352.853 1783.21 352.089 1782.9 350.85L1782.29 349.933L1781.9 349.712L1780.68 349.475C1780.29 349.543 1779.76 349.627 1779.07 350.018L1778.61 350.476L1778.46 350.782L1778.44 350.799Z" fill="#8259ef"/>
<path d="M1121.47 45.7283L1121.71 45.4907C1122.71 44.5741 1122.48 43.5725 1122.48 43.1821H1122.41V42.7917L1122.34 42.4013L1121.73 41.6374L1121.49 41.4847L1121.03 41.247L1120.88 41.3998L1119.73 41.0094H1119.57C1118.72 40.9245 1118.11 41.3149 1117.87 41.6205L1117.42 42.3164L1117.35 42.8596C1117.42 43.4028 1117.42 44.9475 1118.74 45.7114C1119.2 46.0169 1120.05 46.2546 1121.05 45.932L1121.51 45.7114L1121.47 45.7283Z" fill="#8259ef"/>
<path d="M1152.01 171.902C1152.62 172.292 1153.32 172.36 1154.02 172.139L1154.63 171.681L1154.78 171.443L1155.09 170.832L1155.15 170.374C1155.15 169.831 1155 169.305 1154.7 168.829L1154.15 168.286L1153.61 168.049C1153 167.981 1152.3 168.048 1151.84 168.439C1151.39 168.829 1151.08 169.356 1151.08 169.984C1151.01 170.747 1151.39 171.528 1152 171.902H1152.01Z" fill="#8259ef"/>
<path d="M1300.84 13.4763V13.8668L1301.23 14.7155L1301.45 14.9362L1302.3 15.3945C1302.76 15.4624 1303.3 15.3945 1303.69 15.1568C1304.39 14.9192 1304.85 14.4609 1305 13.7649V13.069L1304.93 12.8313L1304.63 12.2202C1304.02 11.6091 1303.08 11.3036 1302.25 11.6091C1301.4 11.9147 1300.86 12.6106 1300.86 13.4594L1300.84 13.4763Z" fill="#8259ef"/>
<path d="M1284.39 272.664L1284.32 273.275L1284.78 274.344L1285.17 274.65L1286.33 275.04C1287.63 275.04 1288.24 274.276 1288.4 273.495L1288.24 273.037C1288.31 272.036 1287.79 271.492 1287.48 271.34C1286.94 270.949 1286.17 270.881 1285.48 271.102L1284.87 271.645L1284.65 271.883L1284.41 272.647L1284.39 272.664Z" fill="#8259ef"/>
<path d="M1174.39 13.9347H1175.61L1175.76 13.8498C1176.46 13.697 1177.07 13.1538 1177.22 12.4579V12.3051L1177.38 11.694V10.998L1177.31 10.7604L1176.92 10.1493C1176.53 9.75888 1176.07 9.53821 1175.53 9.30056L1174.68 9.23267H1174.29L1173.52 9.62309C1172.91 10.2342 1172.76 10.7774 1172.76 11.0829L1172.91 10.7774L1172.52 11.7789L1172.59 12.1693L1172.98 13.0859C1173.44 13.4594 1173.83 13.697 1174.37 13.9347H1174.39Z" fill="#8259ef"/>
<path d="M1439.77 208.771L1439.84 207.922L1440.3 207.464L1440.76 206.768L1440.82 206.377V205.529C1440.59 204.985 1440.28 204.137 1439.43 203.678C1438.97 203.441 1438.51 203.373 1437.97 203.441L1437.28 203.678L1436.97 203.916L1436.51 204.459L1436.05 205.308C1435.66 205.851 1435.14 206.683 1435.2 207.922L1435.36 208.618L1435.51 208.839L1436.05 209.382L1436.14 209.467L1437.14 209.704L1437.36 209.925C1439.13 210.163 1439.91 209.229 1440.13 208.16L1439.74 208.771H1439.77Z" fill="#8259ef"/>
<path d="M1608.14 258.66L1607.22 258.354L1606.15 258.422L1605.76 258.66L1605 259.661C1604.78 260.204 1604.62 260.73 1605 261.664L1605.85 262.36L1605.91 262.428L1606.15 262.581L1606.39 262.733L1607.54 262.886L1607.93 262.801L1608.78 262.19C1609.09 261.647 1609.55 260.883 1609.33 260.035C1609.09 259.423 1608.72 258.948 1608.17 258.643L1608.14 258.66Z" fill="#8259ef"/>
<path d="M1299.92 65.5888L1301.32 66.2848L1301.86 66.1999L1303.08 65.2833C1303.39 64.5873 1303.47 63.5858 1302.32 62.5843L1300.93 62.1938L1300.38 62.3466L1299.38 63.2633C1298.92 64.4175 1299.62 65.2663 1299.92 65.5718V65.5888Z" fill="#8259ef"/>
<path d="M1358.24 33.7103L1357.93 33.4727L1356.86 33.5575L1356.47 33.6254L1355.71 34.3214L1355.32 34.9325L1355.16 35.934L1355.32 36.3923L1355.93 37.2411L1356.08 37.3259C1356.62 37.6315 1357.08 37.6315 1357.23 37.6315V37.5636L1357.63 37.6315L1358.02 37.5636L1358.93 37.0204C1359.39 36.4093 1359.54 35.7812 1359.39 35.1022C1359.32 34.4911 1358.85 34.0328 1358.24 33.7103Z" fill="#8259ef"/>
<path d="M1447.61 103.375C1447.77 102.458 1447.31 101.915 1447 101.677L1446.39 101.134L1445.15 101.049L1444.69 101.202L1443.78 102.051C1443.32 103.443 1443.85 104.291 1444.17 104.665L1445.41 105.123H1445.56C1446.48 105.208 1447.02 104.817 1447.26 104.58L1447.65 103.341L1447.61 103.375Z" fill="#8259ef"/>
<path d="M1594.61 182.358L1594.3 181.357L1593.93 180.898L1592.69 180.44H1592.15L1591.08 181.051C1590.23 182.205 1590.62 183.444 1591.47 184.056L1592.54 184.293V184.361C1593.45 184.446 1594.08 183.971 1594.3 183.75L1594.69 182.749L1594.62 182.358H1594.61Z" fill="#8259ef"/>
<path d="M1373.38 80.3739L1373.16 79.7628C1373.01 79.5422 1372.77 79.2197 1372.31 78.999L1372.16 78.9141L1371.55 78.6086L1371.15 78.5237L1370.15 78.7613C1369 79.3724 1368.76 80.306 1368.69 80.7644C1368.69 81.2227 1368.78 82.1563 1369.76 83.005L1370.83 83.3106H1371.29L1372.36 82.6995C1372.6 82.4788 1372.97 82.0884 1373.28 81.3924L1373.34 80.6965V80.3909L1373.38 80.3739Z" fill="#8259ef"/>
<path d="M1660.44 10.6925L1660.75 10.1493L1660.83 9.91165L1660.9 9.21569C1660.75 8.06141 1659.83 7.28057 1658.68 7.1278C1657.44 6.97502 1656.13 7.58611 1655.67 8.58762L1655.52 9.28359L1655.6 9.58913L1655.82 10.353C1656.67 11.4224 1657.67 11.6601 1658.13 11.6601C1658.98 11.6601 1659.83 11.3545 1660.44 10.6585V10.6925Z" fill="#8259ef"/>
<path d="M1726.05 110.623L1726.82 110.47L1727.12 110.317L1727.73 109.774L1728.04 109.316C1728.5 108.161 1728.19 107.075 1727.12 106.396L1726.51 106.243L1726.2 106.158L1725.44 106.311C1724.9 106.549 1724.44 107.007 1724.2 107.55C1723.9 108.246 1723.98 108.942 1724.29 109.553C1724.68 110.164 1725.29 110.555 1726.05 110.623Z" fill="#8259ef"/>
<path d="M1520.61 132.86L1520.83 132.011L1520.61 130.925L1520.37 130.551L1519.3 129.855C1518.76 129.702 1518.15 129.634 1517.23 130.008L1516.62 130.925L1516.47 131.009L1516.4 131.247L1516.25 131.468L1516.16 132.622L1516.32 133.012L1517.01 133.708C1517.55 134.014 1518.4 134.32 1519.24 134.099C1519.85 133.861 1520.3 133.488 1520.63 132.86H1520.61Z" fill="#8259ef"/>
<path d="M1751.75 159.816L1751.52 160.664L1751.75 161.581L1751.91 161.887L1752.52 162.43C1752.67 162.583 1753.13 162.973 1753.91 163.194L1754.76 163.109L1755.06 162.956L1755.52 162.718C1755.76 162.566 1756.22 162.26 1756.52 161.649L1756.68 161.191L1756.52 160.427C1756.61 159.273 1755.91 158.729 1755.61 158.577L1754.91 158.424H1754.84L1753.99 158.271H1753.6L1752.69 158.729C1752.45 158.882 1751.99 159.188 1751.77 159.799L1751.75 159.816Z" fill="#8259ef"/>
<path d="M1748.51 77.3694C1749.9 77.4373 1750.97 76.4527 1751.43 75.4512C1751.89 74.3818 1751.74 73.2106 1750.97 72.3788L1749.28 72.0732L1748.73 72.3109L1748.19 72.7692L1748.49 72.4637C1748.04 72.6164 1747.03 73.0069 1746.49 74.1611L1746.42 74.3139V75.3154L1746.49 75.621C1746.8 76.7752 1747.65 77.1657 1748.19 77.3184L1748.49 77.4033L1748.51 77.3694Z" fill="#8259ef"/>
<path d="M1809.74 35.0345L1810.05 35.6456L1810.35 36.036C1810.96 36.4943 1811.81 36.6471 1812.58 36.4264C1813.34 36.2736 1813.97 35.6625 1814.34 34.9666C1814.65 34.2706 1814.65 33.5067 1814.26 32.9635C1813.95 32.2676 1813.34 31.8941 1812.56 31.6565H1811.86C1811.02 31.8093 1810.25 32.4204 1809.86 33.354C1809.56 33.8972 1809.56 34.5083 1809.71 35.0514L1809.74 35.0345Z" fill="#8259ef"/>
<path d="M1565.29 38.3276L1565.44 37.2581L1565.29 36.5622C1565.22 36.4094 1565.07 35.9511 1564.59 35.5607L1563.59 35.2551L1563.13 35.34L1562.22 35.6455L1561.76 36.3415C1561.3 37.343 1561.67 38.4973 1562.68 39.0405C1563.59 39.4988 1564.68 39.1933 1565.29 38.3445V38.3276Z" fill="#8259ef"/>
<path d="M1828.82 78.897V78.8121C1828.06 78.3538 1827.36 78.4387 1826.97 78.5915L1826.52 79.0498L1826.43 79.1347C1825.97 79.4402 1825.67 79.8985 1825.51 80.4417V81.0528L1825.6 81.2904L1825.82 81.8336L1826.36 82.3768L1826.6 82.6824L1827.6 83.0728H1827.98L1828.98 82.8352C1829.83 82.2241 1830.13 81.2904 1829.83 79.9834L1828.91 78.9819L1828.84 78.897H1828.82Z" fill="#8259ef"/>
<path d="M1868.28 278.045H1867.21C1866.75 278.13 1866.36 278.283 1866.05 278.435C1865.51 278.826 1865.14 279.284 1864.98 279.895V280.659L1865.05 280.965L1865.2 281.202L1865.44 281.966L1865.75 282.356L1866.82 282.9C1867.12 282.9 1867.97 282.9 1868.73 282.441C1869.58 281.898 1870.04 281.134 1870.04 280.133L1869.43 279.063H1869.51L1869.28 278.673L1868.58 278.215L1868.28 278.062V278.045Z" fill="#8259ef"/>
<path d="M1875.42 46.0341L1874.51 46.4245L1874.2 46.73L1873.74 47.6467L1873.67 48.1899C1873.59 48.733 1873.44 49.429 1873.67 50.1929L1873.89 50.804L1874.13 51.0416L1874.68 51.4151C1875.29 51.7206 1875.98 51.6527 1876.59 51.3472L1876.81 51.0416L1877.51 50.6512C1877.97 49.8025 1877.97 49.1065 1877.9 48.6482L1877.6 49.412L1878.14 48.0201L1877.99 47.4769L1876.98 46.3226C1876.68 46.1699 1876.14 45.9322 1875.46 46.0171L1875.42 46.0341Z" fill="#8259ef"/>
<path d="M1876.27 164.501L1876.73 164.195C1878.1 162.82 1877.58 161.496 1877.19 160.817L1877.04 160.58C1876.27 159.816 1875.03 159.663 1874.03 160.274C1873.42 160.664 1872.94 161.276 1872.79 161.887V162.583L1872.88 162.82L1873.11 163.431L1873.27 163.652C1873.81 164.348 1874.42 164.654 1875.34 164.721L1875.95 164.569L1876.25 164.501H1876.27Z" fill="#8259ef"/>
<path d="M1820.44 402.69L1820.52 402.996L1820.74 403.539C1821.35 404.456 1822.51 404.931 1823.66 404.608C1824.82 404.388 1825.58 403.539 1825.73 402.537L1825.65 401.621L1825.34 401.078L1825.11 400.84L1824.41 400.382C1824.1 400.229 1823.56 399.991 1822.71 399.991L1821.86 400.297L1821.56 400.534L1821.01 401.23L1821.17 400.925C1821.01 401.078 1820.62 401.468 1820.47 402.147L1820.39 402.69H1820.44Z" fill="#8259ef"/>
<path d="M1790.29 617.505L1790.05 616.894L1789.9 616.674L1789.44 616.131C1788.47 615.519 1787.25 615.587 1786.37 616.351C1785.37 617.115 1784.98 618.507 1785.45 619.508L1785.91 620.052L1786.18 620.289L1787 620.595C1788.3 620.68 1789.12 620.137 1789.46 619.831C1790.07 619.22 1790.37 618.439 1790.31 617.522L1790.29 617.505Z" fill="#8259ef"/>
<path d="M1875.9 682.926C1876.59 682.994 1877.29 682.773 1877.75 682.23L1878.05 681.619L1878.14 681.314V680.618L1877.99 680.159C1877.75 679.701 1877.37 679.311 1876.92 679.005L1876.15 678.784H1875.58C1874.91 678.937 1874.45 679.327 1874.15 679.854C1873.91 680.397 1873.88 681.008 1874.15 681.551C1874.45 682.315 1875.15 682.79 1875.91 682.943L1875.9 682.926Z" fill="#8259ef"/>
<path d="M1839.71 584.32L1840.04 583.013C1840.11 582.775 1840.16 582.249 1839.89 581.706L1839.74 581.315V581.247L1838.89 580.484L1838.43 580.246L1837.24 580.331C1836.55 580.636 1836.21 581.18 1836.12 581.332L1835.58 582.487V583.03C1835.58 583.335 1835.61 583.726 1835.89 584.337L1836.8 585.186L1837.26 585.271L1837.92 585.186H1837.89L1839.31 584.727L1839.71 584.337V584.32Z" fill="#8259ef"/>
<path d="M1667.06 464.309L1667.72 465.616L1668.22 465.921H1669.76C1670.42 465.531 1671.15 464.852 1670.88 463.307L1670 462.238L1669.54 462L1668.11 462.085C1667.04 462.781 1667.08 463.85 1667.08 464.326L1667.06 464.309Z" fill="#8259ef"/>
<path d="M1689.78 664.036C1690.01 663.646 1690.35 662.882 1689.89 661.88L1689.47 661.184L1688.55 660.573L1688.1 660.488L1687.01 660.641L1687.59 660.488H1686.77L1685.85 660.947L1685.62 661.252L1685.53 661.49H1685.38C1684.53 661.88 1684.11 662.797 1684.34 663.646L1684.5 664.342C1684.84 665.122 1685.68 665.496 1686.57 665.343L1687.08 665.038L1687.84 665.19L1688.76 665.038L1689.1 664.817L1689.76 664.053L1689.78 664.036Z" fill="#8259ef"/>
<path d="M1796.37 502.264L1796.21 501.415V501.721L1795.98 500.567L1795.67 500.176L1794.67 499.565C1793.79 499.48 1792.97 499.633 1792.39 500.108L1793.28 501.178V501.874L1793.31 502.264L1793.34 503.724L1792.89 503.639C1794.35 504.403 1795.5 503.877 1796.04 503.028L1796.35 502.264H1796.37Z" fill="#8259ef"/>
<path d="M1823.6 531.732L1824.63 531.189L1824.75 531.121C1825.36 530.663 1825.6 529.882 1825.41 529.186L1825.29 529.033L1825.26 528.422L1824.92 527.811L1824.68 527.573L1824.1 527.268C1823.53 527.03 1823.07 527.03 1822.49 527.115L1821.68 527.353L1821.37 527.573L1820.83 528.269C1820.52 529.033 1820.71 529.576 1820.79 529.882L1820.76 529.492L1820.91 530.561L1821.15 530.866L1822 531.562C1822.54 531.715 1823 531.715 1823.61 531.715L1823.6 531.732Z" fill="#8259ef"/>
<path d="M1870.04 614.569L1869.68 614.111L1868.14 613.652C1867.72 613.737 1866.8 613.805 1866.22 614.654C1865.88 615.197 1865.8 615.723 1865.95 616.351L1866.31 616.963L1866.49 617.115L1867.07 617.506C1868.34 617.964 1869.8 616.963 1870.26 616.114L1870.02 614.569H1870.04Z" fill="#8259ef"/>
<path d="M1833.75 859.684L1833.41 860.227L1833.32 860.465L1833.29 861.161C1833.44 862.315 1834.36 863.096 1835.51 863.249C1836.75 863.402 1838.06 862.791 1838.52 861.789L1838.67 861.093L1838.6 860.788L1838.33 860.024C1837.52 858.954 1836.56 858.717 1836.06 858.717C1835.21 858.717 1834.36 859.022 1833.75 859.718V859.684Z" fill="#8259ef"/>
<path d="M1808.5 825.107V825.174L1807.38 825.938C1806.84 827.398 1807.54 828.179 1807.88 828.485C1808.57 829.181 1809.61 829.333 1810.68 828.875L1811.29 828.485L1811.63 828.026L1811.66 827.941C1811.97 827.245 1811.85 826.719 1811.78 826.397L1811.7 826.023L1811.63 825.718L1811.08 825.107C1810.78 824.869 1809.62 824.19 1808.47 825.107H1808.5Z" fill="#8259ef"/>
<path d="M1768.14 759.754L1767.37 759.907L1767.07 760.059L1766.45 760.603L1766.15 761.061C1765.66 762.215 1766 763.302 1767.07 763.981L1767.68 764.133L1767.98 764.218L1768.75 764.065C1769.29 763.828 1769.71 763.37 1769.99 762.826C1770.29 762.13 1770.22 761.434 1769.9 760.823C1769.51 760.212 1768.9 759.822 1768.14 759.754Z" fill="#8259ef"/>
<path d="M1715.2 765.152C1714.63 765.237 1714.02 765.542 1713.59 766.221L1713.44 766.459C1713.05 767.766 1713.74 769.073 1715.05 769.616H1716.12L1716.58 769.396L1717.34 768.7L1717.68 767.936L1717.65 766.697L1717.46 766.323L1717.12 766.018L1717.21 765.95C1717.09 765.797 1716.78 765.406 1716.21 765.169H1715.2V765.152Z" fill="#8259ef"/>
<path d="M1458.92 557.839H1458.53L1458.14 557.992L1457.38 558.756L1457.22 559.129C1457.07 559.673 1457.07 560.199 1457.29 560.759L1457.6 561.302L1457.9 561.523C1458.67 562.134 1459.6 562.134 1460.36 561.608H1460.4L1461.28 560.912L1461.52 560.453C1461.76 559.69 1461.52 559.079 1461.13 558.688L1461.06 558.535L1460.3 557.839C1459.6 557.534 1459.07 557.687 1458.9 557.687V557.839H1458.92Z" fill="#8259ef"/>
<path d="M1451.3 489.855L1452.3 491.553L1452.15 491.315C1452.3 491.706 1452.76 492.47 1453.84 492.622L1454.46 492.537C1455.1 492.385 1455.61 491.926 1455.83 491.383L1456.29 491.162C1456.75 489.703 1455.64 488.243 1454.37 487.937C1453.76 487.784 1453.13 487.852 1452.6 488.09C1452.18 488.311 1451.6 488.854 1451.3 489.855Z" fill="#8259ef"/>
<path d="M1505.79 648.213L1505.4 648.45C1505.28 648.518 1504.82 648.841 1504.67 649.452L1504.58 649.757L1504.89 650.827L1505.16 651.217L1506.04 651.76C1507.35 652.066 1508.2 651.387 1508.51 650.691V649.622C1508.42 648.705 1507.81 648.315 1507.5 648.077L1506.27 647.992L1505.77 648.23L1505.79 648.213Z" fill="#8259ef"/>
<path d="M1550.76 702.023L1550.91 702.634C1550.76 703.788 1551.46 704.484 1552.1 704.722L1552.68 704.875H1552.95L1553.29 704.722H1554.36C1554.9 704.416 1555.24 704.026 1555.39 703.415C1555.51 702.956 1555.48 702.498 1555.43 702.023L1555.12 701.327L1554.94 701.021L1554.27 700.563C1553.97 700.41 1552.97 700.105 1551.96 700.563C1551.35 700.784 1550.96 701.327 1550.73 702.023H1550.76Z" fill="#8259ef"/>
<path d="M1335.23 473.39H1335.3C1336.07 472.932 1336.3 472.321 1336.3 471.93L1336.07 471.234V471.149C1336.03 470.606 1335.76 470.148 1335.3 469.842L1334.69 469.537L1334.42 469.452H1333.84L1333.11 469.69L1332.72 469.774L1331.91 470.47L1331.72 470.776L1331.57 471.777C1331.75 472.779 1332.45 473.39 1333.79 473.696L1335.13 473.458L1335.2 473.39H1335.23Z" fill="#8259ef"/>
<path d="M1219.58 738.128H1219.54L1220.15 736.906C1219.85 735.361 1218.85 734.971 1218.39 734.903C1217.47 734.665 1216.47 735.056 1215.77 735.904L1215.47 736.6L1215.4 737.144V737.228C1215.47 737.992 1215.86 738.383 1216.01 738.62H1216.1L1216.34 738.926L1216.57 739.147L1217.34 739.452C1217.73 739.452 1219.1 739.52 1219.61 738.145L1219.58 738.128Z" fill="#8259ef"/>
<path d="M1335.39 806.095L1335.62 806.944L1336.24 807.64L1336.63 807.792L1337.36 807.945C1337.63 808.03 1338.24 808.183 1339 807.945L1339.66 807.487L1339.9 807.249L1340.17 806.791C1340.29 806.553 1340.56 806.095 1340.48 805.331L1340.41 804.941L1339.87 804.33C1339.38 803.328 1338.48 803.175 1338.1 803.175L1337.49 803.328H1337.42L1336.54 803.634L1336.27 803.871L1335.69 804.72C1335.57 804.958 1335.35 805.416 1335.42 806.095H1335.39Z" fill="#8259ef"/>
<path d="M1111.39 789.85L1111 788.781L1110.46 788.237C1110.3 788.153 1110 787.847 1109.39 787.779L1108.39 787.932L1108 788.169L1107.38 788.933L1107.3 789.782C1107.38 790.851 1108.37 791.632 1109.46 791.632C1110.46 791.632 1111.31 790.868 1111.37 789.867L1111.39 789.85Z" fill="#8259ef"/>
<path d="M1295.7 614.331L1295.94 613.958C1296.05 613.805 1296.33 613.347 1296.24 612.719L1296.21 612.498L1295.51 611.496L1295.12 611.259L1294.08 611.106C1292.74 611.259 1292.23 612.175 1292.23 612.956L1292.62 613.958H1292.59C1293.02 614.806 1293.75 614.959 1294.14 615.027L1295.32 614.637L1295.71 614.331H1295.7Z" fill="#8259ef"/>
<path d="M1235.08 476.615L1235.2 477.226C1235.84 478.924 1237.27 479.145 1238.08 479.077L1238.39 479.009C1239.47 478.703 1240.12 477.702 1240 476.615C1239.91 475.919 1239.54 475.223 1239.03 474.765L1238.45 474.459L1238.15 474.375H1237.45L1237.22 474.459C1236.3 474.612 1235.76 474.918 1235.3 475.767L1235.14 476.31L1235.08 476.615Z" fill="#8259ef"/>
<path d="M1140.25 604.791L1140.64 604.248C1140.79 604.01 1140.91 603.637 1140.88 603.179L1140.84 603.026H1140.81L1140.74 602.33L1140.59 602.024L1139.86 601.328C1138.67 600.717 1137.74 601.091 1137.36 601.328C1136.91 601.566 1136.21 602.092 1136.06 603.416L1136.36 604.418L1136.67 604.808L1137.74 605.352C1138.13 605.436 1138.65 605.504 1139.43 605.352L1140.05 605.046L1140.28 604.808L1140.25 604.791Z" fill="#8259ef"/>
<path d="M1048.56 641.134L1049.11 641.049C1049.95 640.897 1050.65 640.438 1051.02 639.657C1051.36 639.046 1051.41 638.198 1051.02 637.502C1050.79 636.891 1050.26 636.432 1049.63 636.11L1048.97 635.957L1048.55 636.042C1047.7 636.195 1047.24 636.653 1047.05 636.891L1046.78 637.043L1046.54 637.349L1046.24 638.198C1046.2 638.656 1046.27 639.046 1046.47 639.505C1046.75 640.048 1047.24 640.574 1047.78 640.88L1048.55 641.117L1048.56 641.134Z" fill="#8259ef"/>
<path d="M1237.54 608.56H1237.5L1237.39 608.102L1237.15 607.796L1236.18 607.185C1235.37 607.032 1234.64 607.185 1234.06 607.338L1233.24 607.881L1232.97 608.186L1232.67 609.035L1232.9 610.105C1233.48 611.344 1235.13 611.955 1236.4 611.412C1236.98 611.174 1237.37 610.716 1237.59 610.257C1237.71 609.867 1237.83 609.256 1237.52 608.56H1237.54Z" fill="#8259ef"/>
<path d="M1032.16 584.32L1032.55 583.013C1032.55 582.775 1032.62 582.249 1032.4 581.706L1032.16 581.315V581.247L1031.32 580.484L1030.89 580.246L1029.7 580.331C1029.01 580.636 1028.67 581.18 1028.55 581.332L1028.06 582.487V583.03C1028.06 583.335 1028.09 583.726 1028.36 584.337H1028.4L1029.28 585.186L1029.79 585.271L1030.4 585.186H1030.36L1031.79 584.727L1032.18 584.337L1032.16 584.32Z" fill="#8259ef"/>
<path d="M879.602 660.519L880.264 659.908L880.875 659.84L881.724 659.535L882.03 659.297L882.488 658.601C882.726 658.058 882.946 657.209 882.556 656.361C882.369 655.902 882.013 655.512 881.639 655.291L880.875 655.054H880.57L879.806 655.206L878.957 655.597C878.261 655.834 877.31 656.208 876.58 657.141L876.275 657.837V658.143L876.36 658.839V658.924L876.971 659.772L877.056 660.078C878.278 661.317 879.517 660.995 880.332 660.299L879.636 660.536L879.602 660.519Z" fill="#8259ef"/>
<path d="M1087.17 724.344C1087.56 723.886 1087.71 723.275 1087.56 722.732L1087.37 722.494L1087.18 722.036V721.883L1087.12 721.815L1087.03 721.73L1086.42 721.034L1085.99 720.882H1084.65C1082.7 721.34 1082.74 722.952 1082.85 723.648L1083.7 724.65L1084.04 724.803C1085.23 725.719 1086.35 725.193 1086.66 724.955L1087.2 724.344H1087.17Z" fill="#8259ef"/>
<path d="M1003.71 661.691C1003.32 660.842 1002.41 660.299 1001.4 660.468L1000.74 660.774L1000.47 660.927L1000.05 661.47C999.622 662.234 999.622 663.083 1000.01 663.931L1000.67 664.627L1001.1 664.848L1002.17 665.001C1002.78 664.78 1003.36 664.39 1003.66 663.762C1003.97 663.066 1004 662.302 1003.7 661.691H1003.71Z" fill="#8259ef"/>
<path d="M859.57 464.309L860.182 465.616L860.691 465.921H862.27C862.881 465.531 863.577 464.852 863.339 463.307L862.49 462.238L861.947 462L860.555 462.085C859.486 462.781 859.486 463.85 859.486 464.326H859.57V464.309Z" fill="#8259ef"/>
<path d="M952.411 581.858V581.943C953.023 581.247 953.023 580.636 952.955 580.246L952.836 579.482L951.919 578.633L951.461 578.48L950.188 578.633C948.965 579.397 948.813 580.399 948.88 580.874L949.576 582.028L949.661 582.096C950.272 582.707 950.968 582.707 951.359 582.639L952.428 581.943V581.858H952.411Z" fill="#8259ef"/>
<path d="M1157.73 652.83L1158.23 653.594L1159.08 654.052L1159.47 654.12L1160.23 654.052C1160.54 653.967 1161.11 653.967 1161.77 653.509L1162.27 652.898L1162.39 652.592L1162.54 652.049C1162.54 651.812 1162.66 651.285 1162.39 650.589L1162.15 650.199L1161.42 649.809C1160.6 648.96 1159.77 649.113 1159.38 649.197L1158.84 649.588H1158.77L1158.07 650.199L1157.84 650.504L1157.56 651.421C1157.53 651.659 1157.45 652.185 1157.72 652.813L1157.73 652.83Z" fill="#8259ef"/>
<path d="M1102.02 527.132L1102.72 527.285H1103.17C1103.94 527.132 1104.63 526.674 1105.02 525.978C1105.42 525.282 1105.41 524.433 1105.06 523.737C1104.75 523.041 1104.18 522.498 1103.51 522.345C1102.78 522.192 1102.02 522.345 1101.36 522.735L1101.09 523.041L1100.93 523.194C1100.42 523.89 1100.39 524.891 1100.81 525.808C1101.09 526.351 1101.48 526.809 1102 527.115L1102.02 527.132Z" fill="#8259ef"/>
<path d="M1059.14 482.251L1059.29 481.792C1059.33 481.64 1059.44 481.181 1059.17 480.553L1059.05 480.333L1058.09 479.637L1057.63 479.569L1056.63 479.637C1055.4 480.248 1055.17 481.249 1055.4 481.945L1056.1 482.794C1056.8 483.49 1057.49 483.405 1057.87 483.337L1058.87 482.641L1059.14 482.251Z" fill="#8259ef"/>
<path d="M905.49 585.389L904.998 584.693L904.641 584.15C903.606 583.607 902.757 583.912 902.486 583.997L901.722 584.235L901.45 584.388L900.941 584.999C900.635 585.542 900.601 586.221 900.873 586.764L901.178 587.222L901.365 587.613L902.333 588.377C903.402 588.682 904.557 588.156 905.134 587.46C905.677 586.849 905.796 586.068 905.473 585.389H905.49Z" fill="#8259ef"/>
<path d="M996.719 497.63L996.447 497.783C995.955 498.088 995.717 498.478 995.632 498.716L995.479 498.954L995.326 499.412L995.445 500.719L995.938 501.415L996.634 501.958L996.973 502.111H997.941C998.484 502.026 998.908 501.873 999.248 501.653C999.791 501.347 1000.1 500.889 1000.25 500.346V499.735L1000.18 499.276C999.723 498.207 998.807 497.884 998.416 497.816L998.026 497.596H997.635L996.719 497.664V497.63Z" fill="#8259ef"/>
<path d="M1565.14 824.648L1564.9 824.886C1563.93 825.803 1564.14 826.804 1564.2 827.195H1564.27L1564.24 827.585L1564.36 827.975L1564.9 828.739L1565.14 828.892L1565.68 829.13L1565.77 828.977L1566.92 829.367H1567.07C1567.99 829.452 1568.53 829.062 1568.84 828.756L1569.23 828.06L1569.3 827.517C1569.3 826.974 1569.23 825.429 1567.9 824.665C1567.45 824.36 1566.68 824.122 1565.6 824.445L1565.14 824.665V824.648Z" fill="#8259ef"/>
<path d="M1343.42 809.015L1343.48 808.794L1343.45 807.792L1343.3 807.402L1342.57 806.638C1341.38 806.095 1340.53 806.417 1340.07 806.638C1339.53 807.029 1338.88 807.64 1338.77 809.032L1339.07 809.948L1339.31 810.339L1340.16 810.882C1340.85 811.035 1342.7 811.272 1343.43 809.032L1343.42 809.015Z" fill="#8259ef"/>
<path d="M1521.83 802.411L1520.95 803.413C1520.8 803.651 1520.53 804.024 1520.44 804.635L1520.47 805.026L1520.44 805.11L1520.83 806.18L1521.14 806.57L1522.21 807.029C1522.97 807.029 1523.51 806.723 1523.75 806.57L1524.67 805.806L1524.94 805.348C1525.06 805.11 1525.24 804.652 1525.28 804.041L1524.82 802.887L1524.43 802.581L1523.82 802.344L1523.9 802.428L1522.36 802.191L1521.82 802.428L1521.83 802.411Z" fill="#8259ef"/>
<path d="M1482.99 723.801L1482.3 724.175L1482.06 724.412L1481.67 725.108L1481.58 725.651C1481.58 726.891 1482.28 727.807 1483.5 728.045H1484.2L1484.5 727.977L1485.11 727.587C1485.54 727.196 1485.81 726.585 1485.81 726.042C1485.84 725.278 1485.57 724.582 1484.99 724.192C1484.42 723.733 1483.72 723.581 1482.96 723.818L1482.99 723.801Z" fill="#8259ef"/>
<path d="M1385.84 856.9L1385.8 856.51L1385.41 855.661L1385.14 855.441L1384.38 854.982C1383.84 854.914 1383.34 854.982 1382.92 855.22C1382.31 855.458 1381.76 855.916 1381.65 856.612L1381.68 857.308L1381.76 857.545L1382.07 858.156C1382.61 858.768 1383.56 859.073 1384.41 858.768C1385.23 858.462 1385.75 857.766 1385.84 856.917V856.9Z" fill="#8259ef"/>
<path d="M1395.5 669.16L1395.23 669.007C1393.89 668.633 1393.07 669.312 1392.77 669.55H1392.85L1392.46 669.788L1392.15 670.025L1391.76 670.874V671.18C1391.73 671.553 1391.76 671.791 1391.76 671.723H1391.92L1392.15 672.877L1392.24 673.03C1392.63 673.879 1393.24 674.099 1393.61 674.184H1394.46L1395.01 674.031C1395.46 673.726 1396.86 672.962 1396.92 671.485C1396.92 670.942 1396.77 670.178 1395.92 669.397L1395.5 669.177V669.16Z" fill="#8259ef"/>
<path d="M1402.31 597.713V597.102L1401.85 596.033L1401.46 595.727L1400.39 595.337C1399.08 595.337 1398.42 596.1 1398.32 596.881L1398.47 597.34H1398.4C1398.4 598.341 1398.89 598.884 1399.25 599.037C1399.79 599.427 1400.49 599.495 1401.17 599.275L1401.83 598.731L1402.02 598.494L1402.32 597.73L1402.31 597.713Z" fill="#8259ef"/>
<path d="M1420.3 735.887L1420.45 736.278L1421.11 736.889L1421.78 737.194L1422.85 737.347L1423.3 737.194L1424.19 736.498L1424.31 736.261L1424.37 734.954L1424.14 734.495L1423.44 733.884L1423.13 733.647C1422.32 733.256 1421.67 733.426 1421.28 733.579C1420.71 733.799 1420.28 734.343 1420.21 735.039L1420.28 735.887H1420.3Z" fill="#8259ef"/>
<path d="M1277.89 694.859V694.944L1277.92 695.012V695.097L1278.08 695.403V695.487L1278.11 695.403L1278.53 696.319L1278.77 696.472C1280.16 697.168 1281.62 696.778 1282.39 695.403L1282.47 694.18L1282.35 693.875C1282.17 693.111 1281.62 692.721 1281.32 692.483L1280.62 692.33H1280.28L1280.01 692.415C1278.55 692.483 1278.01 693.417 1277.82 694.028L1277.89 694.876V694.859Z" fill="#8259ef"/>
<path d="M1174.47 812.494L1175.02 813.734C1175.17 814.039 1175.41 814.43 1175.98 814.735L1176.34 814.888L1176.41 814.973L1177.56 815.125L1178.02 814.973L1178.94 814.209C1179.28 813.598 1179.24 812.97 1179.17 812.749L1178.9 811.595L1178.56 811.136C1178.41 810.899 1178.11 810.593 1177.49 810.288L1176.26 810.203L1175.8 810.356L1175.34 810.814L1175.37 810.729L1174.52 811.951L1174.49 812.494H1174.47Z" fill="#8259ef"/>
<path d="M995.751 864.76L995.564 864.997C994.596 865.999 994.868 867 994.953 867.306H995.021V867.696L995.139 868.087L995.717 868.783L995.988 868.935L996.531 869.173L996.599 869.02L997.788 869.411L997.941 869.326C998.857 869.411 999.4 868.935 999.638 868.63L1000.03 867.866L1000.06 867.323C1000.03 866.864 999.876 865.32 998.518 864.556C998.008 864.318 997.244 864.098 996.175 864.556L995.751 864.777V864.76Z" fill="#8259ef"/>
<path d="M1085.82 863.758C1085.79 864.369 1086.1 864.997 1086.74 865.456L1087.01 865.608C1088.32 866.067 1089.71 865.524 1090.36 864.301L1090.43 863.232L1090.31 862.841L1089.58 861.993L1088.81 861.602L1087.62 861.517L1087.17 861.67L1086.78 861.976L1086.74 861.891C1086.59 861.976 1086.16 862.281 1085.93 862.808L1085.77 863.724H1085.81L1085.82 863.758Z" fill="#8259ef"/>
<path d="M1220.46 844.509L1219.92 845.51V845.663C1219.68 846.359 1219.95 847.123 1220.58 847.598L1220.73 847.666L1221.16 848.057L1221.85 848.362H1222.85C1223.4 848.124 1223.77 847.819 1224.23 847.513L1224.69 846.817L1224.75 846.427V845.578C1224.52 844.814 1224.02 844.424 1223.75 844.271L1223.99 844.577L1223.23 843.813L1222.84 843.66H1221.8C1221.22 843.813 1220.88 844.118 1220.46 844.509Z" fill="#8259ef"/>
<path d="M907.714 765.152C907.103 765.237 906.492 765.542 906.067 766.221L905.948 766.459C905.558 767.766 906.22 769.073 907.493 769.616H908.648L909.038 769.396L909.853 768.7L910.192 767.936V766.697L909.955 766.323L909.615 766.018L909.683 765.95C909.564 765.797 909.259 765.406 908.648 765.169H907.731L907.714 765.152Z" fill="#8259ef"/>
<path d="M876.954 835.342L876.649 834.731L876.309 834.341C875.647 833.882 874.883 833.73 874.119 833.95C873.355 834.103 872.659 834.714 872.354 835.41C872.048 836.106 872.048 836.87 872.354 837.413C872.659 838.109 873.321 838.483 874.119 838.72H874.73C875.579 838.567 876.343 837.956 876.767 837.023C877.039 836.48 877.107 835.868 876.954 835.325V835.342Z" fill="#8259ef"/>
<path d="M970.134 804.482L970.015 805.093L970.711 806.485C971.017 806.791 971.747 807.334 972.782 807.181C973.36 807.113 973.852 806.808 974.208 806.265L974.446 805.653L974.48 805.348L974.361 804.652C973.869 803.43 972.086 803.107 971.17 803.43L970.134 804.499V804.482Z" fill="#8259ef"/>
<path d="M818.421 592.332H819.49C819.949 592.247 820.254 592.094 820.56 591.941C821.103 591.551 821.477 591.093 821.629 590.482L821.697 589.718L821.629 589.412L821.477 589.174L821.239 588.411L820.933 588.02L819.779 587.477C819.473 587.477 818.625 587.477 817.861 587.935C817.097 588.479 816.622 589.242 816.622 590.244L817.165 591.313L817.317 591.704L818.014 592.162L818.404 592.315L818.421 592.332Z" fill="#8259ef"/>
<path d="M810.409 705.876L809.865 706.182C808.558 707.556 809.017 708.88 809.407 709.559L809.645 709.797C810.409 710.561 811.563 710.714 812.565 710.103C813.176 709.712 813.634 709.101 813.804 708.49L813.889 707.794L813.804 707.556L813.498 706.945L813.345 706.725C812.802 706.029 812.276 705.723 811.274 705.655L810.663 705.808L810.426 705.876H810.409Z" fill="#8259ef"/>
<path d="M701.186 530.119V530.663L701.729 531.732L702.119 532.122L703.189 532.428C704.496 532.428 705.107 531.579 705.26 530.798L705.039 530.34H705.107C705.107 529.339 704.564 528.88 704.258 528.643C703.647 528.252 702.951 528.184 702.255 528.49L701.644 529.033L701.491 529.339L701.186 530.102V530.119Z" fill="#8259ef"/>
<path d="M593.966 490.399H593.661L593.202 490.636L592.506 491.4L592.438 491.706C592.133 492.622 592.354 493.556 593.05 494.167L593.593 494.32C594.9 495.168 595.834 494.625 596.207 494.32L596.75 493.471L596.835 493.556C596.903 493.318 597.056 493.098 597.226 492.707C597.463 491.858 597.158 491.095 596.53 490.483L596.224 490.331L595.919 490.178C595.002 489.872 594.221 490.178 593.915 490.331L594 490.416L593.966 490.399Z" fill="#8259ef"/>
<path d="M670.646 722.341L670.579 722.732L670.731 723.801L670.969 724.107L671.886 724.803L672.582 724.956L673.821 724.735L674.211 724.497L674.449 724.107H674.517C674.67 723.954 675.128 723.564 675.366 722.885L675.213 721.883L675.06 721.493V721.187L674.755 720.729L673.6 720.033C673.057 719.965 671.292 720.118 670.68 722.341H670.646Z" fill="#8259ef"/>
<path d="M426.126 580.008L425.736 579.465C425.43 578.311 424.581 577.92 423.817 577.92L423.274 578.005L422.968 578.158L422.731 578.311L421.729 578.769C421.339 579.227 421.186 579.771 421.271 580.314C421.271 580.857 421.509 581.23 421.729 581.621L422.273 582.232L422.578 582.385L423.342 582.622C423.732 582.622 424.717 582.622 425.498 581.774C425.956 581.315 426.109 580.704 426.109 580.008H426.126Z" fill="#8259ef"/>
<path d="M175.223 617.505L174.985 616.894L174.833 616.674L174.374 616.131C173.458 615.519 172.218 615.587 171.302 616.351C170.3 617.115 169.927 618.507 170.385 619.508L170.843 620.052L171.149 620.289L171.913 620.595C173.22 620.68 174.069 620.137 174.374 619.831C174.985 619.22 175.291 618.439 175.223 617.522V617.505Z" fill="#8259ef"/>
<path d="M260.832 682.926C261.528 682.994 262.208 682.773 262.683 682.23L262.988 681.619L263.073 681.314V680.618L262.921 680.159C262.7 679.701 262.309 679.311 261.851 679.005L261.087 678.784H260.476C259.865 678.937 259.406 679.327 259.084 679.854C258.846 680.397 258.846 681.008 259.084 681.551C259.39 682.315 260.085 682.79 260.849 682.943L260.832 682.926Z" fill="#8259ef"/>
<path d="M435.276 540.508L435.514 540.27L435.734 539.88V538.81L435.582 538.505C435.191 537.656 434.427 537.045 433.578 537.045L432.967 537.198C431.423 537.351 431.049 538.352 430.896 538.81L431.049 539.812L431.27 540.661C431.575 541.425 432.339 541.883 433.273 541.968L433.578 541.883L433.884 541.815C434.886 541.509 435.191 540.813 435.344 540.508H435.276Z" fill="#8259ef"/>
<path d="M346.832 523.499L347.138 523.262L347.375 522.871L347.443 521.802L347.291 521.411C347.07 520.868 346.679 520.495 346.221 520.189L345.61 519.952H345.22C344.218 520.037 343.454 520.563 343.216 521.411V521.496L342.979 522.498L343.132 523.041C343.437 523.737 343.98 524.11 344.591 524.195L344.744 524.263L345.746 524.348C346.442 524.11 346.815 523.652 346.9 523.584L346.832 523.516V523.499Z" fill="#8259ef"/>
<path d="M321.521 476.853L321.758 477.158L322.454 477.702L322.845 477.854L323.762 477.939C324.22 477.786 324.678 477.481 324.916 477.09C325.374 476.632 325.612 475.936 325.459 475.24L325.069 474.697L324.916 474.476L324.373 474.086C323.524 473.78 322.607 473.933 321.979 474.544C321.368 475.155 321.215 476.089 321.521 476.853Z" fill="#8259ef"/>
<path d="M307.516 553.765L307.584 553.46L307.431 552.696C307.041 551.932 306.515 551.542 306.209 551.389L305.513 551.236L305.207 551.321L304.511 551.474C303.357 552.085 302.899 553.324 303.442 554.478L303.595 554.716L304.291 555.327L304.681 555.48L305.683 555.548C306.599 555.327 307.058 554.784 307.38 554.325L307.533 553.782L307.516 553.765Z" fill="#8259ef"/>
<path d="M480.585 585.864L480.653 586.102C480.89 586.645 481.264 586.951 481.416 587.019L481.654 587.172L482.113 587.477H483.42L484.184 587.172L484.88 586.628L485.117 586.238L485.27 585.321C485.27 584.863 485.202 584.405 485.032 584.014C484.795 583.471 484.336 583.098 483.793 582.86L483.182 582.775H482.724C481.501 583.081 481.111 583.844 480.873 584.235H480.958L480.653 584.625L480.585 584.931V585.847V585.864Z" fill="#8259ef"/>
<path d="M397.047 571.47L395.128 570.774H395.434C395.043 570.706 394.127 570.316 393.278 570.859L392.82 571.317C392.429 571.86 392.361 572.471 392.514 573.015L392.276 573.558C392.887 574.95 394.738 575.408 395.892 574.865C396.503 574.627 396.894 574.169 397.131 573.643C397.369 573.184 397.437 572.488 397.064 571.487L397.047 571.47Z" fill="#8259ef"/>
<path d="M181.674 468.162L181.131 467.703C180.52 466.702 179.586 466.634 178.89 466.787L178.347 467.092L178.126 467.245L177.973 467.551L177.125 468.247C176.887 468.79 176.887 469.316 177.125 469.859C177.362 470.317 177.736 470.623 178.041 471.013L178.737 471.319L179.043 471.404H179.892C180.197 471.319 181.199 470.945 181.657 470.012C181.963 469.401 181.963 468.79 181.657 468.162H181.674Z" fill="#8259ef"/>
<path d="M97.9998 585.389L97.4566 584.693L97.066 584.15C96.0644 583.607 95.2158 583.912 94.9103 583.997L94.2142 584.235L93.9085 584.388L93.3654 584.999C93.0598 585.542 93.0598 586.221 93.3654 586.764L93.6031 587.222H93.6708L93.8238 587.613L94.8253 588.377C95.8269 588.682 96.9812 588.156 97.5924 587.46C98.1356 586.849 98.2883 586.068 97.9828 585.389H97.9998Z" fill="#8259ef"/>
<path d="M100.682 519.578L100.903 518.967C100.903 518.729 100.903 518.271 100.75 517.898L100.682 517.745H100.597L100.36 517.134L100.054 516.828L99.2052 516.438C97.8132 516.2 97.1342 516.828 96.8286 517.134C96.4381 517.524 95.9119 518.288 96.2175 519.527L96.8286 520.444L97.2192 520.664L98.4414 520.902C98.8319 520.834 99.358 520.749 100.054 520.359L100.512 519.901L100.665 519.595L100.682 519.578Z" fill="#8259ef"/>
<path d="M757.647 824.648L757.41 824.886C756.408 825.803 756.646 826.804 756.646 827.195H756.714V827.585L756.782 827.975L757.393 828.739L757.63 828.892L758.089 829.13L758.241 828.977L759.396 829.367H759.549C760.397 829.452 761.009 829.062 761.246 828.756L761.704 828.06L761.772 827.517C761.705 826.974 761.705 825.429 760.38 824.665C759.922 824.36 759.073 824.122 758.072 824.445L757.613 824.665L757.647 824.648Z" fill="#8259ef"/>
<path d="M727.108 698.475C726.497 698.085 725.801 698.017 725.105 698.237L724.494 698.696L724.341 698.933L724.035 699.544L723.968 700.003C723.968 700.546 724.12 701.072 724.426 701.547L724.969 702.091L725.512 702.328C726.124 702.396 726.82 702.328 727.278 701.938C727.736 701.547 728.042 701.021 728.042 700.393C728.11 699.629 727.736 698.848 727.125 698.475H727.108Z" fill="#8259ef"/>
<path d="M578.281 856.9V856.51L577.89 855.661L577.67 855.441L576.821 854.982C576.363 854.914 575.819 854.982 575.429 855.22C574.733 855.458 574.274 855.916 574.122 856.612V857.308L574.19 857.545L574.495 858.156C575.106 858.768 576.04 859.073 576.872 858.768C577.721 858.462 578.264 857.766 578.264 856.917L578.281 856.9Z" fill="#8259ef"/>
<path d="M594.73 597.713L594.798 597.102L594.34 596.033L593.95 595.727L592.795 595.337C591.488 595.337 590.877 596.1 590.724 596.881L590.877 597.34C590.809 598.341 591.335 598.884 591.641 599.037C592.184 599.427 592.948 599.495 593.644 599.275L594.255 598.731L594.476 598.494L594.713 597.73L594.73 597.713Z" fill="#8259ef"/>
<path d="M704.734 856.442H703.511L703.359 856.527C702.663 856.68 702.052 857.223 701.899 857.919V858.072L701.746 858.683V859.379L701.814 859.616L702.204 860.227C702.595 860.618 703.053 860.838 703.596 861.076L704.445 861.144H704.836L705.599 860.754C706.211 860.143 706.363 859.599 706.363 859.294L706.211 859.599L706.601 858.598L706.533 858.207L706.143 857.291C705.684 856.917 705.294 856.68 704.751 856.442H704.734Z" fill="#8259ef"/>
<path d="M439.35 661.606L439.282 662.455L438.824 662.913L438.366 663.609L438.298 663.999V664.848C438.536 665.391 438.841 666.24 439.69 666.698C440.148 666.936 440.607 667.004 441.15 666.936L441.846 666.698L442.151 666.461L442.61 665.918L443.068 665.069C443.459 664.526 443.985 663.694 443.917 662.455L443.764 661.759L443.611 661.538L443.068 660.995L442.983 660.91L441.982 660.672L441.761 660.452C439.995 660.214 439.215 661.148 438.994 662.217L439.384 661.606H439.35Z" fill="#8259ef"/>
<path d="M270.984 611.717L271.9 612.023L272.97 611.955L273.36 611.717L274.124 610.716C274.345 610.172 274.498 609.646 274.124 608.713L273.275 608.017L273.208 607.949L272.97 607.796L272.732 607.643L271.578 607.49L271.187 607.575L270.339 608.186C270.033 608.73 269.575 609.493 269.795 610.342C270.033 610.953 270.407 611.429 270.95 611.734L270.984 611.717Z" fill="#8259ef"/>
<path d="M579.197 804.788L577.805 804.092L577.262 804.177L576.04 805.093C575.734 805.789 575.649 806.791 576.804 807.792L578.196 808.183L578.739 808.03L579.741 807.113C580.199 805.959 579.503 805.11 579.197 804.805V804.788Z" fill="#8259ef"/>
<path d="M520.885 836.666L521.191 836.904L522.26 836.819L522.651 836.751L523.415 836.055L523.805 835.444L523.958 834.443L523.805 833.984L523.194 833.136L523.041 833.051C522.498 832.745 522.04 832.745 521.887 832.745V832.813L521.496 832.745L521.106 832.813L520.189 833.356C519.731 833.967 519.578 834.595 519.731 835.274C519.799 835.886 520.274 836.344 520.885 836.666Z" fill="#8259ef"/>
<path d="M431.507 767.002C431.355 767.919 431.813 768.462 432.119 768.7L432.73 769.243L433.969 769.328L434.427 769.175L435.344 768.326C435.802 766.934 435.276 766.085 434.953 765.712L433.714 765.254H433.561C432.645 765.169 432.102 765.559 431.864 765.797L431.473 767.036L431.507 767.002Z" fill="#8259ef"/>
<path d="M284.514 688.019L284.819 689.02L285.193 689.478L286.432 689.937H286.975L288.045 689.326C288.893 688.171 288.503 686.932 287.654 686.321L286.585 686.083V686.016C285.668 685.931 285.04 686.406 284.819 686.627L284.429 687.628L284.497 688.019H284.514Z" fill="#8259ef"/>
<path d="M505.743 790.003L505.964 790.614C506.116 790.835 506.354 791.157 506.812 791.378L506.965 791.463L507.576 791.768L507.967 791.853L508.968 791.615C510.123 791.004 510.36 790.071 510.428 789.612C510.428 789.154 510.343 788.22 509.359 787.372L508.289 787.066H507.831L506.761 787.677C506.524 787.898 506.15 788.288 505.845 788.984L505.777 789.68V789.986L505.743 790.003Z" fill="#8259ef"/>
<path d="M218.681 859.684L218.375 860.227L218.291 860.465L218.223 861.161C218.375 862.315 219.292 863.096 220.447 863.249C221.686 863.402 222.993 862.791 223.451 861.789L223.604 861.093L223.519 860.788L223.298 860.024C222.45 858.954 221.448 858.717 220.99 858.717C220.141 858.717 219.292 859.022 218.681 859.718V859.684Z" fill="#8259ef"/>
<path d="M153.069 759.754L152.305 759.907L152 760.059L151.389 760.603L151.083 761.061C150.625 762.215 150.93 763.302 152 763.981L152.611 764.133L152.917 764.218L153.681 764.065C154.224 763.828 154.682 763.37 154.92 762.826C155.225 762.13 155.14 761.434 154.835 760.823C154.444 760.212 153.833 759.822 153.069 759.754Z" fill="#8259ef"/>
<path d="M358.511 737.517L358.291 738.366L358.511 739.452L358.749 739.826L359.818 740.522C360.362 740.674 360.973 740.742 361.889 740.369L362.501 739.452L362.653 739.367L362.721 739.13L362.874 738.909L362.959 737.755L362.806 737.364L362.11 736.668C361.567 736.363 360.718 736.057 359.886 736.278C359.275 736.516 358.817 736.889 358.494 737.517H358.511Z" fill="#8259ef"/>
<path d="M127.368 710.561L127.605 709.712L127.368 708.796L127.215 708.49L126.604 707.947C126.451 707.794 125.993 707.404 125.212 707.183L124.363 707.268L124.058 707.421L123.599 707.658C123.362 707.811 122.903 708.117 122.598 708.728L122.445 709.186L122.598 709.95C122.513 711.104 123.209 711.647 123.514 711.8L124.21 711.953H124.278L125.127 712.106H125.517L126.434 711.647C126.672 711.495 127.13 711.189 127.351 710.578L127.368 710.561Z" fill="#8259ef"/>
<path d="M130.61 793.007C129.218 792.939 128.149 793.924 127.69 794.925C127.232 795.995 127.385 797.166 128.149 797.998L129.846 798.303L130.39 798.066L130.933 797.608L130.627 797.913C131.086 797.76 132.087 797.37 132.63 796.216L132.698 796.063V795.061L132.63 794.756C132.325 793.601 131.476 793.211 130.933 793.058L130.627 792.973L130.61 793.007Z" fill="#8259ef"/>
<path d="M69.3784 835.342L69.0728 834.731L68.7673 834.341C68.1562 833.882 67.3073 833.73 66.5434 833.95C65.7795 834.103 65.1515 834.714 64.778 835.41C64.4725 836.106 64.4723 836.87 64.8628 837.413C65.1683 838.109 65.7795 838.483 66.5604 838.72H67.2564C68.1052 838.567 68.869 837.956 69.2595 837.023C69.565 836.48 69.5652 835.868 69.4124 835.325L69.3784 835.342Z" fill="#8259ef"/>
<path d="M313.831 832.049L313.678 833.119L313.831 833.815C313.899 833.967 314.051 834.426 314.527 834.816L315.528 835.122L315.987 835.037L316.903 834.731L317.362 834.035C317.82 833.034 317.447 831.879 316.445 831.336C315.528 830.878 314.442 831.183 313.831 832.032V832.049Z" fill="#8259ef"/>
<path d="M50.2977 791.48V791.565C51.0616 792.023 51.7576 791.938 52.148 791.785L52.6064 791.327L52.6911 791.242C53.1495 790.937 53.4551 790.478 53.6079 789.935V789.324L53.5232 789.086L53.3025 788.543L52.7591 788L52.5214 787.694L51.5199 787.304H51.1465L50.1448 787.542C49.296 788.153 48.9904 789.086 49.296 790.393L50.2127 791.395L50.2807 791.48H50.2977Z" fill="#8259ef"/>
<path d="M10.8459 592.332H11.9154C12.3738 592.247 12.7641 592.094 13.0697 591.941C13.6129 591.551 13.9864 591.093 14.1392 590.482V589.718L14.0712 589.412L13.9185 589.174L13.6808 588.411L13.3753 588.02L12.3058 587.477C12.0003 587.477 11.1515 587.477 10.3876 587.935C9.53877 588.479 9.08039 589.242 9.08039 590.244L9.69149 591.313H9.60674L9.84422 591.704L10.5403 592.162L10.8459 592.315V592.332Z" fill="#8259ef"/>
<path d="M3.69902 824.343L4.61579 823.952L4.92144 823.647L5.37962 822.73L5.44759 822.187C5.53246 821.644 5.68525 820.948 5.44759 820.184L5.22689 819.573L4.9892 819.335L4.44607 818.962C3.83494 818.656 3.13892 818.724 2.52779 819.03L2.30709 819.335L1.61103 819.726C1.15268 820.574 1.15271 821.27 1.22061 821.729L1.52627 820.965L0.982928 822.357L1.13565 822.9L2.13738 824.054C2.44294 824.207 2.98621 824.444 3.66525 824.36L3.69902 824.343Z" fill="#8259ef"/>
<path d="M2.84995 705.876L2.39177 706.182C1.01673 707.556 1.54295 708.88 1.93339 709.559L2.08612 709.797C2.85003 710.561 4.0893 710.714 5.09087 710.103C5.702 709.712 6.1773 709.101 6.33008 708.49V707.794L6.24512 707.556L6.00743 706.945L5.8547 706.725C5.31148 706.029 4.7004 705.723 3.7837 705.655L3.17259 705.808L2.86694 705.876H2.84995Z" fill="#8259ef"/>
<path d="M58.6839 467.687L58.5991 467.381L58.3784 466.838C57.7673 465.921 56.6128 465.446 55.4584 465.768C54.3041 465.989 53.5402 466.838 53.3874 467.839L53.4724 468.756L53.7778 469.299L54.0155 469.537L54.7116 469.995C55.0172 470.148 55.5604 470.385 56.4092 470.385L57.258 470.08L57.5636 469.842L58.1068 469.146L57.954 469.452C58.1068 469.299 58.4971 468.909 58.6499 468.23L58.7349 467.687H58.6839Z" fill="#8259ef"/>
</g>
<defs>
<clipPath id="clip0_129_6028">
<rect width="1879" height="870" fill="white"/>
</clipPath>
</defs>
</svg>
