<?xml version="1.0" encoding="UTF-8"?>
<svg version="1.1" xmlns="http://www.w3.org/2000/svg" width="960" height="720">
<path d="M0 0 C3.61086212 1.64417406 6.97658086 3.64605527 10.375 5.6875 C11.73625 6.48317383 11.73625 6.48317383 13.125 7.29492188 C17.23575301 9.70865653 21.30617633 12.17843611 25.33984375 14.71875 C28.23215086 16.53979162 31.16139473 18.22006623 34.1875 19.8125 C39.53658015 22.69049748 44.66965584 25.86006768 49.82421875 29.0703125 C52.61603746 30.76669435 55.4279491 32.34406894 58.3125 33.875 C63.19486498 36.49339426 67.91689076 39.33354592 72.625 42.25 C73.33696533 42.68683105 74.04893066 43.12366211 74.7824707 43.57373047 C79.88027931 46.76055863 79.88027931 46.76055863 81 49 C81.4375 52.3125 81.4375 52.3125 81 56 C76.42496688 60.48691049 71.07418389 63.41020575 65.5 66.5 C63.62285776 67.55579931 61.74658378 68.61314353 59.87109375 69.671875 C58.42259033 70.48881836 58.42259033 70.48881836 56.94482422 71.32226562 C52.11619284 74.07324845 47.33966744 76.9108769 42.5625 79.75 C35.56152325 83.9048336 28.54054904 88.00968967 21.453125 92.015625 C18.79861484 93.54106749 16.16899987 95.09236223 13.546875 96.671875 C12.78157471 97.13053955 12.01627441 97.5892041 11.2277832 98.06176758 C9.7382399 98.95650977 8.25218256 99.85708999 6.77026367 100.7644043 C6.0919751 101.17086182 5.41368652 101.57731934 4.71484375 101.99609375 C4.11792725 102.35888428 3.52101074 102.7216748 2.90600586 103.09545898 C0.5187896 104.22836999 -1.35483961 104.7773667 -4 105 C-6.67382812 104.04443359 -6.67382812 104.04443359 -9.53125 102.5234375 C-10.58699219 101.96366211 -11.64273438 101.40388672 -12.73046875 100.82714844 C-18.04703156 97.85603463 -23.28552462 94.77137727 -28.5 91.625 C-30.86904407 90.20488902 -33.2406423 88.7890956 -35.61328125 87.375 C-36.21759476 87.01467682 -36.82190826 86.65435364 -37.4445343 86.28311157 C-43.54736211 82.6552771 -49.71561332 79.14589593 -55.89196777 75.64523315 C-59.91286142 73.36053509 -63.91907944 71.0501153 -67.92919922 68.74658203 C-70.70997937 67.16495528 -73.50874505 65.62301362 -76.31640625 64.08984375 C-77.79513317 63.24891038 -79.27307889 62.40660085 -80.75 61.5625 C-81.40572998 61.22234863 -82.06145996 60.88219727 -82.73706055 60.53173828 C-84.484375 59.50390625 -84.484375 59.50390625 -87 57 C-87.81700574 53.82941146 -87.79153269 51.17390904 -87 48 C-84.98046875 45.7109375 -84.98046875 45.7109375 -82 44 C-81.4220166 43.65614258 -80.8440332 43.31228516 -80.24853516 42.95800781 C-78.28938015 41.80819034 -76.30640661 40.7133348 -74.3125 39.625 C-72.87831667 38.83049041 -71.44472128 38.0349186 -70.01171875 37.23828125 C-69.32126465 36.85494629 -68.63081055 36.47161133 -67.91943359 36.07666016 C-63.88794901 33.81529575 -59.94504206 31.40783601 -56 29 C-50.12846542 25.41633924 -44.19481745 21.9744572 -38.1875 18.625 C-33.11341458 15.79541617 -28.11963727 12.88334261 -23.1875 9.8125 C-19.17261789 7.32685958 -15.1554737 4.85539053 -11.0625 2.5 C-10.22847656 2.0153125 -9.39445312 1.530625 -8.53515625 1.03125 C-5.22758896 -0.3142011 -3.57292818 -0.54871465 0 0 Z " fill="#010101" transform="translate(132,261)"/>
<path d="M0 0 C7.59 0 15.18 0 23 0 C23 14.19 23 28.38 23 43 C36.86 43 50.72 43 65 43 C65 28.81 65 14.62 65 0 C72.59 0 80.18 0 88 0 C88 35.31 88 70.62 88 107 C80.41 107 72.82 107 65 107 C65 92.15 65 77.3 65 62 C51.14 62 37.28 62 23 62 C23 76.85 23 91.7 23 107 C15.41 107 7.82 107 0 107 C0 71.69 0 36.38 0 0 Z " fill="#000000" transform="translate(256,308)"/>
<path d="M0 0 C7.97809842 5.46813487 13.03050732 13.4430928 15.6484375 22.6796875 C16.1434375 26.6396875 16.1434375 26.6396875 16.6484375 30.6796875 C9.3884375 30.6796875 2.1284375 30.6796875 -5.3515625 30.6796875 C-6.2178125 28.7821875 -7.0840625 26.8846875 -7.9765625 24.9296875 C-10.51444299 19.83592738 -12.20521685 17.08131547 -17.3515625 14.6796875 C-22.95542248 12.81173417 -29.05897371 12.94432883 -34.6640625 14.7421875 C-42.30819314 20.25307238 -45.31160788 26.7577237 -46.9140625 35.8828125 C-48.41492695 48.90817185 -49.62322449 66.63472776 -41.3515625 77.6796875 C-34.34313969 84.16424841 -28.57129532 85.03210397 -19.18359375 84.9140625 C-14.37343707 84.61986331 -10.77102686 83.5405146 -6.3515625 81.6796875 C-6.3515625 75.7396875 -6.3515625 69.7996875 -6.3515625 63.6796875 C-12.9515625 63.6796875 -19.5515625 63.6796875 -26.3515625 63.6796875 C-26.3515625 58.0696875 -26.3515625 52.4596875 -26.3515625 46.6796875 C-12.1615625 46.6796875 2.0284375 46.6796875 16.6484375 46.6796875 C16.8340625 53.6096875 17.0196875 60.5396875 17.2109375 67.6796875 C17.33384155 70.93779297 17.33384155 70.93779297 17.45922852 74.26171875 C17.7604883 87.80985437 17.7604883 87.80985437 14.82910156 92.73876953 C12.53203588 94.85627109 10.43580643 96.28643164 7.6484375 97.6796875 C5.99714844 98.57300781 5.99714844 98.57300781 4.3125 99.484375 C-11.27307507 104.97338216 -28.44558147 107.74877813 -44.3515625 101.6796875 C-56.61628903 95.53872344 -64.24114774 87.46459861 -68.7265625 74.3671875 C-74.35507717 56.42935596 -73.79973873 33.11460095 -65.62109375 16.07421875 C-59.18232139 4.70033943 -50.95602918 -1.29305211 -38.49316406 -4.85083008 C-26.11575719 -7.56420826 -11.05194311 -6.2052438 0 0 Z " fill="#000000" transform="translate(672.3515625,312.3203125)"/>
<path d="M0 0 C2.8581543 1.40771484 2.8581543 1.40771484 5.82421875 3.2109375 C7.47719971 4.20480469 7.47719971 4.20480469 9.16357422 5.21875 C10.33826973 5.93741242 11.51291053 6.65616428 12.6875 7.375 C13.90055704 8.10784351 15.11426773 8.83960609 16.32861328 9.5703125 C18.15757198 10.67094262 19.98614602 11.772146 21.81262207 12.87689209 C26.96009949 15.98905518 32.15626853 19.00942393 37.375 22 C44.6713609 26.19665583 51.8671584 30.53076891 59 35 C56.53130845 37.75513436 53.82225209 39.39971224 50.6171875 41.22265625 C49.54057861 41.83866699 48.46396973 42.45467773 47.35473633 43.08935547 C46.78671295 43.41143982 46.21868958 43.73352417 45.63345337 44.06536865 C43.26227153 45.4099478 40.89712194 46.76497792 38.5315094 48.11932373 C37.34745273 48.79700781 36.16307598 49.47413294 34.9783783 50.1506958 C30.23666612 52.85905462 25.51734474 55.60321446 20.8125 58.375 C20.15000244 58.76220215 19.48750488 59.1494043 18.80493164 59.54833984 C15.44360181 61.52086677 12.12659168 63.54366598 8.84375 65.64453125 C8.16594482 66.07137207 7.48813965 66.49821289 6.78979492 66.93798828 C5.51508114 67.74351799 4.24878516 68.56260377 2.9934082 69.39794922 C0.2059132 71.14837449 -1.66709279 72.00130723 -4.984375 71.98828125 C-8.66657344 70.78155041 -11.79216887 69.03196358 -15.0625 67 C-16.55795047 66.09529 -18.05410164 65.19173766 -19.55078125 64.2890625 C-20.39592285 63.77633789 -21.24106445 63.26361328 -22.11181641 62.73535156 C-25.42797006 60.7428562 -28.76419672 58.78586945 -32.10546875 56.8359375 C-32.73191788 56.47018616 -33.358367 56.10443481 -34.00379944 55.7276001 C-36.53353674 54.25108891 -39.06363552 52.77519849 -41.59402466 51.29980469 C-50.13638799 46.31514129 -58.59882129 41.21965689 -67 36 C-64.08252244 32.83548318 -61.18463869 30.76705881 -57.43359375 28.671875 C-55.76369385 27.73033569 -55.76369385 27.73033569 -54.06005859 26.76977539 C-53.46956726 26.44059113 -52.87907593 26.11140686 -52.27069092 25.77224731 C-49.13228086 24.02216705 -46.00600803 22.25065185 -42.87890625 20.48046875 C-42.23369019 20.11582016 -41.58847412 19.75117157 -40.92370605 19.37547302 C-32.66252037 14.69493214 -24.51279872 9.82705041 -16.35717773 4.96582031 C-15.28798096 4.32870117 -14.21878418 3.69158203 -13.1171875 3.03515625 C-12.17472168 2.4719165 -11.23225586 1.90867676 -10.26123047 1.32836914 C-6.22625853 -1.04199173 -4.63854663 -1.09294466 0 0 Z " fill="#262626" transform="translate(133,278)"/>
<path d="M0 0 C7.26 0 14.52 0 22 0 C22.33 12.87 22.66 25.74 23 39 C25.31 37.35 27.62 35.7 30 34 C37.34467998 30.91523441 46.93520685 30.62313635 54.5 33.25 C61.16077912 36.58038956 64.41632599 40.0951594 67 47 C69.2685305 54.18925174 69.2583869 60.96898881 69.1953125 68.46875 C69.1924826 69.74480103 69.18965271 71.02085205 69.18673706 72.33557129 C69.17747997 75.70247059 69.15955962 79.06909082 69.1373291 82.43591309 C69.11674672 85.88173024 69.10770904 89.32757639 69.09765625 92.7734375 C69.0756663 99.51571103 69.04117267 106.25781742 69 113 C61.74 113 54.48 113 47 113 C46.98541748 111.3600708 46.97083496 109.7201416 46.95581055 108.03051758 C46.89783377 101.94549771 46.82059992 95.86084811 46.73754883 89.77612305 C46.70429675 87.14272064 46.67626576 84.50924691 46.65356445 81.87573242 C46.62002471 78.09002289 46.5677068 74.30496711 46.51171875 70.51953125 C46.50532883 69.34227982 46.4989389 68.16502838 46.49235535 66.95210266 C46.46266411 65.30095711 46.46266411 65.30095711 46.43237305 63.61645508 C46.41571846 62.16750603 46.41571846 62.16750603 46.39872742 60.68928528 C45.92683999 57.50655977 44.85967088 55.60409522 43 53 C38.98675204 50.2834661 34.68053217 50.42329157 30 51 C27.12853006 52.36997157 27.12853006 52.36997157 25 54 C24.34 54 23.68 54 23 54 C22.67 73.47 22.34 92.94 22 113 C14.74 113 7.48 113 0 113 C0 75.71 0 38.42 0 0 Z " fill="#000000" transform="translate(518,302)"/>
<path d="M0 0 C6.73998706 5.6062739 8.94090463 11.2439581 10.11328125 19.7578125 C10.37981648 23.33426048 10.4366061 26.89501659 10.45703125 30.48046875 C10.47165405 31.46599228 10.48627686 32.45151581 10.50134277 33.46690369 C10.56293824 37.63609544 10.60307033 41.80542532 10.64501953 45.97485352 C10.67897677 49.03937449 10.72401921 52.103601 10.76953125 55.16796875 C10.7774469 56.56052635 10.7774469 56.56052635 10.78552246 57.98121643 C10.79893677 58.86921432 10.81235107 59.75721222 10.82617188 60.67211914 C10.83710876 61.8226754 10.83710876 61.8226754 10.8482666 62.99647522 C11.22968587 66.970698 12.2471899 70.86040142 13.11328125 74.7578125 C5.52328125 74.7578125 -2.06671875 74.7578125 -9.88671875 74.7578125 C-10.54671875 73.1078125 -11.20671875 71.4578125 -11.88671875 69.7578125 C-12.52609375 70.3559375 -13.16546875 70.9540625 -13.82421875 71.5703125 C-21.22880773 76.85930463 -29.22315723 77.71651318 -38.0859375 76.44140625 C-46.52433557 74.6572878 -51.88385178 69.46964781 -56.88671875 62.7578125 C-59.0865228 56.15840034 -59.22711769 46.54348821 -56.26171875 40.1328125 C-51.69898886 32.76224883 -43.73984592 28.5295001 -35.51171875 26.5078125 C-27.75965368 25.1182914 -19.72910682 25.60404018 -11.88671875 25.7578125 C-12.31138372 23.98385742 -12.75195965 22.21370619 -13.19921875 20.4453125 C-13.44285156 19.45917969 -13.68648438 18.47304688 -13.9375 17.45703125 C-14.90134378 14.71622445 -15.60371963 13.49995148 -17.88671875 11.7578125 C-22.71996355 10.32980836 -26.25189933 10.83392519 -30.88671875 12.7578125 C-32.82213355 15.14838192 -32.82213355 15.14838192 -33.88671875 17.7578125 C-34.21671875 18.4178125 -34.54671875 19.0778125 -34.88671875 19.7578125 C-42.14671875 19.7578125 -49.40671875 19.7578125 -56.88671875 19.7578125 C-55.81734547 11.20282624 -54.27517863 6.61027728 -47.83984375 0.9609375 C-34.19133231 -8.8156558 -13.81445302 -9.8776918 0 0 Z M-34.07421875 43.3828125 C-36.44109023 47.79009043 -36.60415793 49.81545372 -35.88671875 54.7578125 C-33.71860596 58.28099578 -32.16179392 58.68904371 -28.13671875 59.6953125 C-23.6764693 60.0364883 -19.67954573 59.16418592 -15.88671875 56.7578125 C-13.04049519 53.94666564 -11.96640092 52.43750141 -11.49609375 48.42578125 C-11.5425 47.27722656 -11.58890625 46.12867188 -11.63671875 44.9453125 C-11.69085938 43.20314453 -11.69085938 43.20314453 -11.74609375 41.42578125 C-11.7925 40.54535156 -11.83890625 39.66492188 -11.88671875 38.7578125 C-23.89578472 38.14904388 -23.89578472 38.14904388 -34.07421875 43.3828125 Z " fill="#000000" transform="translate(415.88671875,340.2421875)"/>
<path d="M0 0 C5.84114896 3.9698179 9.56753315 9.05806821 11.796875 15.74609375 C11.90057559 17.17049843 11.95250473 18.59903793 11.97045898 20.02709961 C11.98394882 20.88907455 11.99743866 21.7510495 12.01133728 22.6391449 C12.02699486 24.03593224 12.02699486 24.03593224 12.04296875 25.4609375 C12.07594228 27.44726945 12.10915327 29.43359747 12.14257812 31.41992188 C12.18970417 34.53976391 12.2340703 37.65959424 12.27368164 40.77954102 C12.43804358 53.12440193 12.79108529 64.72293491 15.796875 76.74609375 C8.206875 76.74609375 0.616875 76.74609375 -7.203125 76.74609375 C-7.533125 75.09609375 -7.863125 73.44609375 -8.203125 71.74609375 C-8.94755859 72.25269531 -8.94755859 72.25269531 -9.70703125 72.76953125 C-18.20070502 78.34602295 -26.55255374 80.21214525 -36.62890625 78.28125 C-43.58741419 76.25018291 -49.8271962 72.47986648 -53.640625 66.18359375 C-56.6302721 59.60637014 -57.36626393 52.69609507 -55.140625 45.74609375 C-52.45609076 39.40310121 -48.13673514 34.35596054 -41.890625 31.37109375 C-31.41263547 27.40455165 -21.24567503 27.51550686 -10.203125 27.74609375 C-10.39266043 23.39625574 -10.78210166 19.68382756 -12.578125 15.68359375 C-16.75842784 12.59813213 -21.18231741 13.22924591 -26.203125 13.74609375 C-27.54444943 14.04565621 -28.88234433 14.3660578 -30.203125 14.74609375 C-30.863125 17.05609375 -31.523125 19.36609375 -32.203125 21.74609375 C-39.463125 21.74609375 -46.723125 21.74609375 -54.203125 21.74609375 C-53.16577613 12.4099539 -51.53039772 7.90209028 -44.41796875 2.203125 C-31.67485441 -6.17991142 -13.47465178 -7.66908373 0 0 Z M-31.265625 44.93359375 C-33.63992641 48.38016031 -34.203125 50.56753185 -34.203125 54.74609375 C-32.94803558 57.8838173 -31.90754445 59.29029293 -29.078125 61.12109375 C-23.87255739 62.25273888 -19.07776413 61.62358441 -14.265625 59.37109375 C-11.97385336 57.738323 -11.97385336 57.738323 -10.203125 54.74609375 C-9.96041675 51.3130221 -9.96041675 51.3130221 -10.078125 47.55859375 C-10.09617187 46.28628906 -10.11421875 45.01398438 -10.1328125 43.703125 C-10.15601563 42.72730469 -10.17921875 41.75148438 -10.203125 40.74609375 C-17.62102503 40.47135671 -25.05030712 40.49408098 -31.265625 44.93359375 Z " fill="#000000" transform="translate(757.203125,338.25390625)"/>
<path d="M0 0 C8.15288164 6.70348046 12.74214881 13.96074404 14.8125 24.3125 C14.8125 30.9125 14.8125 37.5125 14.8125 44.3125 C-1.6875 44.3125 -18.1875 44.3125 -35.1875 44.3125 C-31.17195167 53.59101209 -31.17195167 53.59101209 -24.1875 58.3125 C-17.14710169 60.65929944 -11.04739471 59.37940594 -4.36328125 56.46875 C-1.81390058 55.11396243 0.02729152 53.58458351 1.8125 51.3125 C5.06088923 52.39529641 5.85532583 53.20286845 8 55.75 C8.52980469 56.36746094 9.05960938 56.98492187 9.60546875 57.62109375 C10.8125 59.3125 10.8125 59.3125 10.8125 61.3125 C11.4725 61.3125 12.1325 61.3125 12.8125 61.3125 C13.1425 62.3025 13.4725 63.2925 13.8125 64.3125 C7.12600402 72.23796435 -0.86829519 76.75041854 -11.1875 78.3125 C-24.24096712 79.14129156 -34.57569027 77.19555866 -45.1875 69.3125 C-51.85940934 63.2656835 -56.65798583 55.14286763 -57.36450195 46.02929688 C-57.90715472 23.90808939 -57.90715472 23.90808939 -53.1875 14.3125 C-52.69636719 13.21808594 -52.69636719 13.21808594 -52.1953125 12.1015625 C-48.3005619 4.68163617 -40.59367784 -0.59892826 -32.9375 -3.6875 C-21.89943129 -6.73931792 -10.02178254 -5.30564958 0 0 Z M-31.9375 19.125 C-33.67413305 21.96223144 -33.67413305 21.96223144 -35.1875 28.3125 C-25.6175 28.3125 -16.0475 28.3125 -6.1875 28.3125 C-7.740377 19.58390553 -7.740377 19.58390553 -13.1875 14.3125 C-21.03077356 11.69807548 -26.23927335 13.22326525 -31.9375 19.125 Z " fill="#000000" transform="translate(890.1875,338.6875)"/>
<path d="M0 0 C4.49824794 3.81180076 7.39026005 8.29741585 9.125 13.9375 C9.125 15.9175 9.125 17.8975 9.125 19.9375 C1.865 19.9375 -5.395 19.9375 -12.875 19.9375 C-13.865 17.6275 -14.855 15.3175 -15.875 12.9375 C-18.63951883 10.86977588 -20.97729783 10.68600219 -24.375 10.75 C-25.1278125 10.75644531 -25.880625 10.76289063 -26.65625 10.76953125 C-28.83490143 10.93446437 -30.77704811 11.34149094 -32.875 11.9375 C-33.15132268 13.37017304 -33.39519671 14.80913335 -33.625 16.25 C-33.76421875 17.05050781 -33.9034375 17.85101563 -34.046875 18.67578125 C-34.09445666 21.01109483 -34.09445666 21.01109483 -32.4609375 22.578125 C-28.71778238 24.54582588 -24.84788176 25.40125769 -20.75 26.375 C0.72203497 31.79164302 0.72203497 31.79164302 8.0625 41.5 C10.12434153 48.17066376 10.46026809 55.89249294 7.5625 62.375 C3.06596297 69.8170038 -3.7193615 73.47946367 -11.875 75.9375 C-24.36744582 78.43598916 -35.99412096 77.09287259 -47.3125 71.125 C-52.94365387 66.31791743 -57.22544222 61.31710058 -58.875 53.9375 C-58.875 52.2875 -58.875 50.6375 -58.875 48.9375 C-51.945 48.9375 -45.015 48.9375 -37.875 48.9375 C-36.885 51.9075 -35.895 54.8775 -34.875 57.9375 C-29.96813857 60.39093072 -24.2985596 60.57735815 -18.875 59.9375 C-15.83675425 59.01729268 -15.83675425 59.01729268 -13.875 56.9375 C-12.71688612 53.99020463 -12.71688612 53.99020463 -12.875 50.9375 C-15.30611461 47.33652573 -19.28922177 46.68180998 -23.25 45.5625 C-24.69615707 45.12779988 -26.14146181 44.690255 -27.5859375 44.25 C-28.30749023 44.03085937 -29.02904297 43.81171875 -29.77246094 43.5859375 C-40.13829322 40.38904357 -48.2716883 37.12320009 -54.875 28.25 C-56.79999938 21.87343954 -57.09270778 14.82137374 -54.375 8.625 C-50.38402054 1.85584756 -44.20802119 -2.57203997 -36.875 -5.0625 C-24.87503166 -8.0467303 -10.27294039 -7.15226063 0 0 Z " fill="#000000" transform="translate(495.875,340.0625)"/>
<path d="M0 0 C2.35299271 1.29289882 4.66039686 2.64327865 6.9609375 4.02734375 C7.72277344 4.48367188 8.48460938 4.94 9.26953125 5.41015625 C10.90121689 6.39077521 12.53134804 7.37398403 14.16015625 8.359375 C17.99785292 10.64486521 21.88213686 12.84664797 25.76586914 15.05249023 C30.1795623 17.56517943 34.54115511 20.15314222 38.875 22.80078125 C40.86613546 23.97159873 42.88257521 25.02107785 44.9609375 26.02734375 C44.9609375 26.68734375 44.9609375 27.34734375 44.9609375 28.02734375 C46.06695312 28.18976563 46.06695312 28.18976563 47.1953125 28.35546875 C50.12607691 29.06746236 51.77789585 30.02915827 54.2109375 31.77734375 C57.33241892 33.92596346 60.45341353 36.02661699 63.7109375 37.96484375 C64.40703125 38.38636719 65.103125 38.80789063 65.8203125 39.2421875 C69.16921225 40.47052482 71.65009581 39.61942561 74.8203125 38.1875 C75.44421875 37.82527344 76.068125 37.46304688 76.7109375 37.08984375 C77.89623047 36.40728516 77.89623047 36.40728516 79.10546875 35.7109375 C80.51892578 34.87755859 80.51892578 34.87755859 81.9609375 34.02734375 C83.11064349 33.35150536 84.26038573 32.67572861 85.41015625 32 C87.45292875 30.7983236 89.49489086 29.59533355 91.53515625 28.3894043 C98.39624324 24.33986505 105.30322117 20.37166278 112.2109375 16.40234375 C120.03599247 11.90446427 127.82312385 7.37761412 135.4453125 2.54296875 C142.9946844 -2.00541059 142.9946844 -2.00541059 147.6484375 -1.84765625 C150.9609375 -0.97265625 150.9609375 -0.97265625 152.8984375 0.08984375 C154.30033962 2.64625349 154.42155647 5.11322895 154.5546875 7.9921875 C153.22323295 12.55592317 147.54756927 14.97562335 143.62890625 17.20703125 C142.59556152 17.7987915 141.5622168 18.39055176 140.49755859 19.00024414 C139.39234863 19.62793701 138.28713867 20.25562988 137.1484375 20.90234375 C135.38821028 21.90868781 133.62891007 22.91663999 131.86962891 23.92463684 C130.66808215 24.6129345 129.46625693 25.30074628 128.26416016 25.98808289 C122.43526308 29.32200694 116.63306209 32.70100016 110.8359375 36.08984375 C109.87115479 36.65324463 108.90637207 37.21664551 107.91235352 37.79711914 C104.92821393 39.53995592 101.94453715 41.28358283 98.9609375 43.02734375 C94.50307512 45.63231762 90.04464383 48.23631472 85.5859375 50.83984375 C84.55065918 51.44513916 83.51538086 52.05043457 82.44873047 52.67407227 C81.49627441 53.23022217 80.54381836 53.78637207 79.5625 54.359375 C78.29913818 55.09764526 78.29913818 55.09764526 77.01025391 55.85083008 C73.36294969 57.94474943 71.22317215 58.33202035 66.9609375 58.02734375 C64.27050781 56.91674805 64.27050781 56.91674805 61.5390625 55.3515625 C60.52215332 54.77599609 59.50524414 54.20042969 58.45751953 53.60742188 C57.38614746 52.98287109 56.31477539 52.35832031 55.2109375 51.71484375 C54.10218262 51.08126953 52.99342773 50.44769531 51.85107422 49.79492188 C44.51029563 45.57717988 37.23235014 41.25470252 30.05957031 36.7565918 C26.35754585 34.4416771 22.61330332 32.27174896 18.76953125 30.19921875 C12.36797283 26.74166887 6.13277849 23.02604967 -0.1015625 19.27734375 C-1.22755859 18.60574219 -2.35355469 17.93414062 -3.51367188 17.2421875 C-4.58552734 16.59894531 -5.65738281 15.95570313 -6.76171875 15.29296875 C-7.72859619 14.71321289 -8.69547363 14.13345703 -9.69165039 13.53613281 C-12.0390625 12.02734375 -12.0390625 12.02734375 -14.0390625 10.02734375 C-14.60739809 2.86631533 -14.60739809 2.86631533 -12.7265625 0.08984375 C-8.32233872 -2.68318604 -4.58890401 -2.18895996 0 0 Z " fill="#010101" transform="translate(59.0390625,383.97265625)"/>
<path d="M0 0 C8.41034796 3.01188792 16.22442909 8.54901408 23.87133789 13.11230469 C30.093157 16.80957054 36.32026906 20.48908234 42.62133789 24.04980469 C47.09869582 26.58840236 51.49741623 29.21377951 55.87133789 31.92480469 C64.90269718 38.14515758 64.90269718 38.14515758 75.05883789 41.73730469 C77.35421355 40.89025855 77.35421355 40.89025855 79.65649414 39.45605469 C80.53515137 38.94703613 81.41380859 38.43801758 82.3190918 37.91357422 C83.24383301 37.36040527 84.16857422 36.80723633 85.12133789 36.23730469 C86.06928223 35.68284668 87.01722656 35.12838867 87.99389648 34.55712891 C93.63446052 31.24023306 99.18838393 27.8168855 104.66821289 24.24121094 C108.0783307 22.09595709 111.62390026 20.23246368 115.17602539 18.33496094 C118.36929201 16.56525085 121.46013332 14.66758519 124.55883789 12.73730469 C130.28306122 9.17753203 136.10365337 5.89178362 142.05883789 2.73730469 C143.15196289 2.11855469 144.24508789 1.49980469 145.37133789 0.86230469 C149.39880052 -0.8236099 152.3708803 -0.92899436 156.43383789 0.67480469 C158.6839442 3.53070885 158.95735665 5.76535744 158.71655273 9.36108398 C157.87849172 12.38886714 156.93777812 12.95383381 154.28930664 14.57714844 C153.47163818 15.08463623 152.65396973 15.59212402 151.81152344 16.11499023 C150.90313721 16.650354 149.99475098 17.18571777 149.05883789 17.73730469 C147.62181519 18.58965698 147.62181519 18.58965698 146.15576172 19.45922852 C142.96892195 21.32382291 139.76640379 23.15861316 136.55883789 24.98730469 C134.81960345 25.98411589 133.08111763 26.9822236 131.34269714 27.98045349 C129.63332599 28.96197348 127.9234778 29.94266255 126.21362305 30.92333984 C117.12498891 36.14919897 108.09008064 41.45605919 99.18383789 46.98730469 C94.37345509 49.97118876 89.49340605 52.75458474 84.49633789 55.41308594 C82.00783725 56.71120354 82.00783725 56.71120354 79.62133789 58.40527344 C76.34925891 60.10615595 74.71939214 60.28059863 71.05883789 59.73730469 C68.10937782 58.44816731 65.42059315 56.79963833 62.68383789 55.11230469 C60.98220225 54.09506426 59.28036999 53.07815269 57.57836914 52.06152344 C56.23186279 51.24820557 56.23186279 51.24820557 54.8581543 50.41845703 C50.05900105 47.53628633 45.21171046 44.73698465 40.37133789 41.92480469 C38.34109494 40.74041445 36.31115028 39.55551275 34.28149414 38.37011719 C27.95826369 34.67831803 21.63364465 30.98890246 15.30883789 27.29980469 C9.67037899 24.01074347 9.67037899 24.01074347 6.90454102 22.39404297 C4.86005334 21.20376386 2.8113642 20.02069051 0.76000977 18.84228516 C-0.3221582 18.21854004 -1.40432617 17.59479492 -2.51928711 16.95214844 C-3.50832031 16.38488037 -4.49735352 15.8176123 -5.51635742 15.2331543 C-7.94116211 13.73730469 -7.94116211 13.73730469 -9.94116211 11.73730469 C-10.28087431 8.72842524 -10.49081328 6.64014995 -9.94116211 3.73730469 C-7.05891993 0.15633713 -4.58238573 -0.97819983 0 0 Z " fill="#010101" transform="translate(54.941162109375,344.2626953125)"/>
<path d="M0 0 C7.26 0 14.52 0 22 0 C22 6.27 22 12.54 22 19 C25.1865625 18.9690625 25.1865625 18.9690625 28.4375 18.9375 C30.62499611 18.91626217 32.81360547 18.92741054 35 19 C36.75559942 20.75559942 36.13221919 23.03582442 36.13671875 25.37109375 C36.13285156 26.07363281 36.12898437 26.77617187 36.125 27.5 C36.13080078 28.55380859 36.13080078 28.55380859 36.13671875 29.62890625 C36.12661378 34.87338622 36.12661378 34.87338622 35 36 C32.81360547 36.07258946 30.62499611 36.08373783 28.4375 36.0625 C26.64119141 36.04896484 26.64119141 36.04896484 24.80859375 36.03515625 C23.88175781 36.02355469 22.95492187 36.01195312 22 36 C22.11804305 42.0873778 22.24227642 48.17458535 22.37231445 54.26171875 C22.41569577 56.33362366 22.45736846 58.40556507 22.49731445 60.47753906 C22.55493965 63.45128391 22.61865625 66.42484448 22.68359375 69.3984375 C22.70030624 70.32868744 22.71701874 71.25893738 22.73423767 72.21737671 C22.7641555 73.50848862 22.7641555 73.50848862 22.79467773 74.82568359 C22.81799416 75.96485733 22.81799416 75.96485733 22.84178162 77.12704468 C22.89127127 79.09115721 22.89127127 79.09115721 24 81 C26.02333934 81.46842712 26.02333934 81.46842712 28.375 81.625 C29.16648437 81.69976562 29.95796875 81.77453125 30.7734375 81.8515625 C32.51246725 81.96749782 34.25711002 82 36 82 C36 87.61 36 93.22 36 99 C26.49044378 101.71701606 18.29486975 102.45481602 9.12890625 98.26171875 C4.26368769 95.37829564 1.8592248 91.62773045 0.38824463 86.13742065 C-0.4118038 81.732878 -0.24073903 77.27789006 -0.1953125 72.81640625 C-0.1924826 71.76090073 -0.18965271 70.7053952 -0.18673706 69.61790466 C-0.17559415 66.26598496 -0.15050024 62.91433816 -0.125 59.5625 C-0.1149626 57.28190492 -0.10583808 55.00130562 -0.09765625 52.72070312 C-0.07567407 47.14703119 -0.04118473 41.57356178 0 36 C-3.96 36 -7.92 36 -12 36 C-12 30.39 -12 24.78 -12 19 C-8.04 19 -4.08 19 0 19 C0 12.73 0 6.46 0 0 Z " fill="#000000" transform="translate(789,316)"/>
</svg>