<svg height="767" viewBox="0 0 1927 767" width="1927" xmlns="http://www.w3.org/2000/svg"><path d="m1311.724 577.28v205.72h-33.744v-89.984h-96.792v89.984h-33.744v-205.72h33.744v88.208h96.792v-88.208zm110.112 39.96c12.62933 0 23.828 2.516 33.596 7.548s17.41467 11.297333 22.94 18.796v-23.68h34.04v165.76c0 14.997333-3.15733 28.366667-9.472 40.108s-15.44133 20.966667-27.38 27.676-26.196 10.064-42.772 10.064c-22.10133 0-40.45333-5.18-55.056-15.54s-22.89067-24.42-24.864-42.18h33.448c2.56533 8.485333 8.04133 15.342667 16.428 20.572s18.40133 7.844 30.044 7.844c13.616 0 24.61733-4.144 33.004-12.432s12.58-20.325333 12.58-36.112v-27.232c-5.72267 7.696-13.468 14.158667-23.236 19.388s-20.868 7.844-33.3 7.844c-14.208 0-27.18267-3.601333-38.924-10.804s-21.016-17.266667-27.824-30.192-10.212-27.577333-10.212-43.956 3.404-30.882667 10.212-43.512 16.08267-22.446667 27.824-29.452 24.716-10.508 38.924-10.508zm56.536 84.064c0-11.248-2.31867-21.016-6.956-29.304s-10.70533-14.602667-18.204-18.944-15.58933-6.512-24.272-6.512-16.77333 2.121333-24.272 6.364-13.56667 10.458667-18.204 18.648-6.956 17.908-6.956 29.156 2.31867 21.114667 6.956 29.6 10.75467 14.948 18.352 19.388 15.63867 6.66 24.124 6.66c8.68267 0 16.77333-2.170667 24.272-6.512s13.56667-10.705333 18.204-19.092 6.956-18.204 6.956-29.452zm112.184-57.72c4.93333-8.288 11.49467-14.750667 19.684-19.388s17.908-6.956 29.156-6.956v34.928h-8.584c-13.22133 0-23.236 3.354667-30.044 10.064s-10.212 18.352-10.212 34.928v85.84h-33.744v-163.096h33.744zm68.672 57.128c0-16.378667 3.404-30.882667 10.212-43.512s16.08267-22.446667 27.824-29.452 24.716-10.508 38.924-10.508c12.82667 0 24.02533 2.516 33.596 7.548s17.21733 11.297333 22.94 18.796v-23.68h34.04v163.096h-34.04v-24.272c-5.72267 7.696-13.51733 14.109333-23.384 19.24s-21.11467 7.696-33.744 7.696c-14.01067 0-26.83733-3.601333-38.48-10.804s-20.868-17.266667-27.676-30.192-10.212-27.577333-10.212-43.956zm133.496.592c0-11.248-2.31867-21.016-6.956-29.304s-10.70533-14.602667-18.204-18.944-15.58933-6.512-24.272-6.512-16.77333 2.121333-24.272 6.364-13.56667 10.458667-18.204 18.648-6.956 17.908-6.956 29.156 2.31867 21.114667 6.956 29.6 10.75467 14.948 18.352 19.388 15.63867 6.66 24.124 6.66c8.68267 0 16.77333-2.170667 24.272-6.512s13.56667-10.705333 18.204-19.092 6.956-18.204 6.956-29.452zm112.184-57.424c5.72267-7.498667 13.51733-13.813333 23.384-18.944s21.016-7.696 33.448-7.696c14.208 0 27.18267 3.502667 38.924 10.508s20.96667 16.822667 27.676 29.452 10.064 27.133333 10.064 43.512-3.35467 31.030667-10.064 43.956-15.93467 22.989333-27.676 30.192-24.716 10.804-38.924 10.804c-12.432 0-23.48267-2.516-33.152-7.548s-17.56267-11.297333-23.68-18.796v101.232h-33.744v-240.648h33.744zm99.16 56.832c0-11.248-2.31867-20.966667-6.956-29.156s-10.75467-14.405333-18.352-18.648-15.73733-6.364-24.42-6.364c-8.48533 0-16.52667 2.170667-24.124 6.512s-13.71467 10.656-18.352 18.944-6.956 18.056-6.956 29.304 2.31867 21.065333 6.956 29.452 10.75467 14.750667 18.352 19.092 15.63867 6.512 24.124 6.512c8.68267 0 16.82267-2.22 24.42-6.66s13.71467-10.902667 18.352-19.388 6.956-18.352 6.956-29.6zm152.144-83.472c12.432 0 23.532 2.664 33.3 7.992s17.464 13.221333 23.088 23.68 8.436 23.088 8.436 37.888v96.2h-33.448v-91.168c0-14.602667-3.65067-25.801333-10.952-33.596s-17.26667-11.692-29.896-11.692-22.644 3.897333-30.044 11.692-11.1 18.993333-11.1 33.596v91.168h-33.744v-219.04h33.744v74.888c5.72267-6.906667 12.97467-12.234667 21.756-15.984s18.40133-5.624 28.86-5.624zm-1751.523005-321.24c60.579559 0 109.688995 49.086229 109.688995 109.637162 0 42.564589-24.267228 79.463942-59.727201 97.629754l-.001789 87.330084h413.787v33.477h-446.873l.000853-144.150845c33.961446-7.674768 59.321314-38.020223 59.321314-74.285993 0-42.062098-34.114188-76.160166-76.196172-76.160166s-76.196172 34.098068-76.196172 76.160166c0 36.363465 25.496684 66.774675 59.595964 74.347523l.000672 34.042358c-.049273-.007476-.098535-.014985-.147787-.022527v330.614175l.147328-.022691-.000213 34.042522c-34.09928 7.572848-59.595964 37.984058-59.595964 74.347524 0 42.062098 34.114188 76.160164 76.196172 76.160164s76.196172-34.098066 76.196172-76.160164c0-36.265771-25.359868-66.611226-59.321314-74.285994l.000494-34.061678c52.567802 8.113288 92.813643 53.532741 92.813643 108.347672 0 60.550934-49.109436 109.637164-109.688995 109.637164s-109.688995-49.08623-109.688995-109.637164c0-42.453154 24.140329-79.270696 59.448924-97.486693v-352.375499c-35.308595-18.215997-59.448924-55.033539-59.448924-97.486692 0-60.550933 49.109436-109.637162 109.688995-109.637162zm480.62201 0c60.579559 0 109.688995 49.086229 109.688995 109.637162 0 42.564589-24.267228 79.463942-59.727202 97.629754v352.089375c35.459974 18.165812 59.727202 55.065165 59.727202 97.629755 0 60.550934-49.109436 109.637164-109.688995 109.637164s-109.688995-49.08623-109.688995-109.637164c0-42.463139 24.151686-79.288015 59.47384-97.499544l.21415-89.135502h-413.747v-33.477h446.873l.000147 145.826052c-33.961446 7.674768-59.321314 38.020223-59.321314 74.285994 0 42.062098 34.114188 76.160164 76.196172 76.160164s76.196172-34.098066 76.196172-76.160164c0-36.363466-25.496684-66.774676-59.595964-74.347524v-398.653837c34.09928-7.572848 59.595964-37.984058 59.595964-74.347523 0-42.062098-34.114188-76.160166-76.196172-76.160166s-76.196172 34.098068-76.196172 76.160166c0 36.26577 25.359868 66.611225 59.321314 74.285993l-.000494 34.061679c-52.567802-8.113289-92.813643-53.532741-92.813643-108.347672 0-60.550933 49.109436-109.637162 109.688995-109.637162zm-16.875005 366.294v33.477h-446.873v-33.477z" transform="translate(-295 -296)"/></svg>