<svg width="665" height="180" viewBox="0 0 665 180" fill="none" xmlns="http://www.w3.org/2000/svg">
<path d="M157.24 125.371L124.551 125.427L124.527 125.455L124.45 125.545L124.367 125.529L124.268 125.511C123.337 126.593 122.354 127.647 121.333 128.661C116.327 133.643 110.403 137.609 103.889 140.34C102.421 140.956 100.934 141.506 99.4255 141.992V130.625C115.464 124.126 126.766 108.485 126.766 90.2236C126.766 75.8461 119.761 63.0963 108.954 55.1497C105.932 52.9277 102.639 51.101 99.1539 49.7139V29.5873C96.4032 28.854 93.6061 28.3064 90.7819 27.9482V47.3171C88.1648 46.8426 85.5103 46.6048 82.8505 46.6067C79.8896 46.6067 76.995 46.8974 74.1993 47.4538V28.011C60.1317 29.9026 47.1094 36.4719 37.228 46.6618L22.7232 46.6865H22.5579C27.6518 39.7453 33.9139 33.7428 41.0645 28.9472C45.7063 25.8319 50.6847 23.2502 55.9055 21.2514V12.5717C55.8687 12.5828 55.8325 12.5962 55.7972 12.6116V12.4976C53.9928 13.113 52.2132 13.7891 50.4583 14.5261C45.542 16.5948 40.8355 19.1305 36.4037 22.0984C32.1231 24.9718 28.1204 28.2389 24.4477 31.857C24.3281 31.9709 24.2141 32.0886 24.0964 32.2007L23.857 32.4381C19.5618 36.7557 15.7578 41.5355 12.5146 46.6903C10.8583 49.3303 7.9601 54.9578 7.9601 54.9578L40.5935 54.9028L40.9296 54.859L40.9867 54.8154C46.5335 48.354 53.5116 43.2762 61.3659 39.9859C62.8284 39.372 64.3163 38.8202 65.8254 38.3316V49.6987C49.7898 56.198 38.4872 71.8406 38.4872 90.1002C38.4872 104.487 45.4955 117.242 56.3138 125.186C59.3009 127.38 62.5535 129.189 65.9945 130.566C66.0286 130.582 66.0704 130.595 66.1027 130.61V150.736C68.854 151.47 71.6517 152.019 74.4766 152.377V133.005C77.0502 133.47 79.6958 133.712 82.408 133.712C85.3126 133.716 88.2104 133.433 91.0592 132.866V152.308C104.732 150.464 117.428 144.206 127.218 134.485C127.421 134.283 127.619 134.082 127.818 133.879C127.892 133.806 127.96 133.732 128.031 133.658H128.358L142.507 133.633H142.699C137.605 140.575 131.344 146.577 124.194 151.372C119.552 154.487 114.572 157.069 109.351 159.067V167.746C109.388 167.736 109.426 167.724 109.461 167.709V167.822C111.263 167.208 113.044 166.531 114.798 165.792C119.715 163.724 124.421 161.189 128.853 158.222C133.134 155.348 137.138 152.081 140.81 148.463L141.048 148.226C141.162 148.112 141.282 147.996 141.396 147.876C145.692 143.559 149.495 138.778 152.738 133.624C154.396 130.982 155.903 128.248 157.253 125.437L157.292 125.353H157.24V125.371ZM110.014 67.5311C115.323 73.8567 118.228 81.8533 118.219 90.1116C118.226 98.3682 115.321 106.363 110.014 112.688V67.5311ZM55.3395 112.829C49.9602 106.484 47.0117 98.4336 47.0206 90.1154C47.0206 81.466 50.1488 73.548 55.3395 67.4038V112.829ZM63.6583 60.1904C69.3417 56.6325 75.9137 54.7504 82.6188 54.7604C89.3694 54.7556 95.9833 56.6627 101.695 60.2606V85.9844H63.6602L63.6583 60.1904ZM82.6264 125.472C75.656 125.472 69.153 123.478 63.664 120.041V94.2482H101.703V119.972C95.9939 123.577 89.3779 125.484 82.6264 125.472ZM82.5124 158.075C80.6458 158.072 78.8104 158.554 77.1862 159.474C75.562 160.394 74.2047 161.721 73.2478 163.323C73.2478 163.323 73.2478 163.333 73.2383 163.333C73.2022 163.333 73.168 163.323 73.1338 163.323C64.9371 162.289 56.9686 159.904 49.5524 156.263C46.6523 154.825 43.8482 153.2 41.1575 151.399C37.2232 148.758 33.5498 145.747 30.1873 142.408L30.1341 142.355L30.0772 142.3C26.7657 138.995 23.7738 135.385 21.1411 131.518C15.7024 123.523 11.895 114.534 9.93725 105.065C7.84291 94.8741 7.93094 84.3554 10.1956 74.2013H21.3481C19.9803 79.3959 19.2909 84.7457 19.2969 90.1172C19.2969 98.5805 20.972 106.802 24.273 114.561C25.8679 118.299 27.8205 121.874 30.1038 125.235C32.3685 128.565 34.9481 131.67 37.8073 134.507L37.9155 134.616C40.7456 137.414 43.835 139.938 47.1421 142.152C49.4423 143.694 54.9995 146.644 54.9995 146.644V137.284C50.9537 134.931 47.2255 132.071 43.9058 128.771L43.8488 128.717L43.7956 128.663C38.7895 123.706 34.7958 117.821 32.0373 111.338C29.1724 104.627 27.7017 97.4043 27.7145 90.1078C27.6991 81.7005 29.6531 73.4064 33.4199 65.8901H3.67723C2.88488 68.4322 2.21931 71.012 1.68299 73.6202C0.567655 79.0438 0.00638378 84.5668 0.00782576 90.104C0.00782576 95.6442 0.573811 101.188 1.68299 106.594C3.13143 113.606 5.49473 120.398 8.71222 126.795L8.82618 127.022C12.7937 134.833 17.9855 141.96 24.2046 148.131C35.6615 159.513 50.2025 167.289 66.0305 170.499C68.028 170.905 70.0402 171.236 72.0626 171.492C72.0816 171.492 72.1006 171.492 72.1215 171.497L72.1519 171.612C72.7904 173.867 74.149 175.852 76.0205 177.264C77.892 178.676 80.1739 179.436 82.5181 179.431C84.8734 179.432 87.1641 178.661 89.0396 177.236C90.9151 175.812 92.2724 173.813 92.9034 171.543C93.1508 170.631 93.2754 169.692 93.2737 168.747C93.276 166.845 92.7663 164.977 91.798 163.34C90.8432 161.73 89.4852 160.396 87.8578 159.471C86.2305 158.546 84.3901 158.061 82.5181 158.064L82.5124 158.075ZM165.245 89.707C165.22 84.3051 164.658 78.919 163.57 73.6278C162.475 68.3239 160.855 63.1418 158.736 58.1582C156.651 53.27 154.097 48.5951 151.112 44.1985C148.152 39.8501 144.782 35.795 141.048 32.0886C129.592 20.707 115.053 12.9308 99.226 9.72087C97.1984 9.30936 95.1558 8.97423 93.1029 8.71615C92.4636 6.46069 91.1046 4.47606 89.2327 3.06472C87.3609 1.65339 85.079 0.892744 82.7347 0.898717C80.3794 0.897711 78.0887 1.66844 76.2132 3.09296C74.3376 4.51748 72.9804 6.51732 72.3494 8.78642C72.102 9.69767 71.9775 10.6379 71.9791 11.5822C71.9791 13.5575 72.5185 15.4034 73.4548 16.9875C74.4091 18.5984 75.7669 19.9326 77.3944 20.8585C79.0217 21.7845 80.8623 22.27 82.7347 22.2675C84.6014 22.2727 86.4373 21.7913 88.0613 20.8708C89.6852 19.9502 91.0412 18.6222 91.9955 17.0179L92.005 17.0084C92.0411 17.0084 92.0753 17.0179 92.1095 17.0179C98.8373 17.8651 105.419 19.6241 111.672 22.2466C113.049 22.8278 114.412 23.4489 115.755 24.1117L115.971 24.2161C123.018 27.75 129.461 32.3819 135.056 37.9384L135.164 38.0448C138.476 41.3495 141.469 44.9596 144.102 48.827C149.541 56.8223 153.349 65.8124 155.306 75.282C157.401 85.4726 157.313 95.9913 155.048 106.145H143.893C145.261 100.951 145.951 95.601 145.945 90.2293C145.945 81.7661 144.271 73.5441 140.968 65.7856C139.422 62.1621 137.54 58.6914 135.347 55.4194L135.137 55.1098C132.873 51.7799 130.295 48.6755 127.436 45.8394L127.381 45.7863L127.326 45.7312C124.496 42.9321 121.407 40.408 118.101 38.1929C115.926 36.7335 113.661 35.4116 111.321 34.2348L110.238 33.7221V43.0569C114.285 45.4096 118.014 48.2704 121.333 51.5696L121.442 51.6778C126.449 56.6355 130.442 62.5199 133.2 69.003C136.065 75.7136 137.536 82.9366 137.523 90.2332C137.539 98.6411 135.585 106.936 131.818 114.453H161.572C162.366 111.907 163.029 109.327 163.566 106.723C164.648 101.454 165.214 96.0431 165.239 90.6415V89.7165L165.245 89.707ZM248.631 94.4383H217.798V117.925H207.208V61.7821H217.798V84.9457H248.631V61.7821H259.301V117.925H248.631V94.4383ZM289.748 118.789C279.472 118.789 270.93 111.042 270.93 97.912C270.93 84.7804 279.472 77.0333 289.826 77.0333C298.289 77.0333 302.32 82.2506 303.194 83.9087V77.8974H313.312V117.908H303.271V111.583C302.477 113.241 298.525 118.782 289.748 118.782V118.789ZM292.436 85.8972C285.638 85.8972 281.207 91.1145 281.207 97.9196C281.207 104.725 285.638 109.942 292.436 109.942C299.232 109.942 303.349 104.725 303.349 97.9196C303.349 91.1145 299.005 85.8972 292.436 85.8972ZM338.607 101.559C329.831 100.843 323.9 96.8903 323.9 89.0652C323.9 81.2402 330.773 76.8073 341.531 76.8073C355.84 76.8073 360.192 84.241 361.144 88.1137H350.474C349.836 87.2401 347.393 84.4766 341.46 84.4766C336.635 84.4766 334.106 86.1327 334.106 88.5069C334.106 90.7233 335.764 92.2237 339.804 92.6947L346.6 93.4108C357.435 94.3604 361.858 98.5484 361.858 106.375C361.858 114.2 355.534 119.024 343.354 119.024C328.488 119.024 323.664 110.405 322.878 106.689H333.713C334.106 107.638 336.558 111.199 343.363 111.199C348.894 111.199 351.59 109.296 351.59 106.766C351.59 104.237 350.168 102.736 345.658 102.256C343.306 102.064 340.959 101.826 338.616 101.542L338.607 101.559ZM382.093 117.925H372.052V59.7328H382.093V84.6418C383.594 81.7967 388.105 77.0503 395.38 77.0503C405.422 77.0503 412.062 84.4063 412.062 94.6054V117.934H401.863V96.5863C401.863 90.2618 398.068 86.0719 392.134 86.0719C386.203 86.0719 382.093 90.4175 382.093 96.5863V117.934V117.925ZM441.081 118.633C430.646 118.633 422.026 110.808 422.026 97.8323C422.026 84.8602 430.646 77.0352 441.081 77.0352C449.7 77.0352 453.966 82.4082 454.759 83.9961V77.907H464.88V117.045C464.88 128.037 457.84 135.706 443.375 135.706C427.959 135.706 422.977 126.135 422.341 123.213H433.96C434.512 124.006 436.883 127.323 443.366 127.323C450.642 127.323 454.829 123.528 454.829 116.888V111.353C453.958 113.091 449.77 118.63 441.071 118.63L441.081 118.633ZM443.688 85.8972C436.725 85.8972 432.302 91.0366 432.302 97.8323C432.302 104.63 436.735 109.767 443.688 109.767C450.642 109.767 454.917 104.472 454.917 97.8323C454.917 91.1943 450.494 85.8972 443.688 85.8972ZM487.963 117.925H477.922V77.9145H487.963V84.6323C488.992 82.338 492.073 77.6695 500.927 77.6695H510.254V87.711H499.584C491.043 87.711 487.963 90.5561 487.963 96.8807V117.925ZM535.097 118.789C524.819 118.789 516.277 111.042 516.277 97.912C516.277 84.7804 524.819 77.0333 535.175 77.0333C543.638 77.0333 547.669 82.2506 548.541 83.9087V77.8974H558.661V117.908H548.62V111.583C547.826 113.241 543.874 118.782 535.097 118.782V118.789ZM537.783 85.8972C530.987 85.8972 526.554 91.1145 526.554 97.9196C526.554 104.725 530.987 109.942 537.783 109.942C544.581 109.942 548.698 104.725 548.698 97.9196C548.698 91.1145 544.352 85.8972 537.783 85.8972ZM581.661 134.686H571.698V77.9145H581.74V84.2391C582.455 82.7387 586.799 77.0409 595.497 77.0409C605.933 77.0409 614.473 84.8679 614.473 97.9196C614.473 110.971 605.933 118.798 595.497 118.798C586.799 118.798 582.455 113.423 581.661 111.836V134.686ZM592.88 109.935C599.844 109.935 604.267 104.717 604.267 97.912C604.267 91.105 599.834 85.8896 592.88 85.8896C585.927 85.8896 581.575 91.0272 581.575 97.912C581.575 104.795 585.998 109.935 592.88 109.935ZM635.031 117.925H624.988V59.7328H635.031V84.6418C636.532 81.7967 641.042 77.0503 648.318 77.0503C658.36 77.0503 665 84.4063 665 94.6054V117.934H654.801V96.5863C654.801 90.2618 651.006 86.0719 645.073 86.0719C639.139 86.0719 635.031 90.4175 635.031 96.5863V117.934V117.925Z" fill="white"/>
<path d="M157.232 125.371L124.543 125.427L124.519 125.455L124.443 125.545L124.359 125.529L124.26 125.511C123.329 126.593 122.346 127.647 121.326 128.661C116.319 133.643 110.395 137.609 103.881 140.34C102.413 140.956 100.926 141.506 99.4177 141.992V130.625C115.457 124.126 126.758 108.485 126.758 90.2236C126.758 75.8461 119.753 63.0963 108.946 55.1497C105.924 52.9277 102.631 51.101 99.146 49.7139V29.5873C96.3953 28.854 93.5983 28.3064 90.7741 27.9482V47.3171C88.1569 46.8426 85.5024 46.6048 82.8427 46.6067C79.8818 46.6067 76.9872 46.8974 74.1915 47.4538V28.011C60.1239 29.9026 47.1016 36.4719 37.2201 46.6618L22.7154 46.6865H22.5501C27.6439 39.7453 33.9061 33.7428 41.0567 28.9472C45.6985 25.8319 50.6769 23.2502 55.8976 21.2514V12.5717C55.8608 12.5828 55.8247 12.5962 55.7894 12.6116V12.4976C53.985 13.113 52.2054 13.7891 50.4505 14.5261C45.5342 16.5948 40.8277 19.1305 36.3959 22.0984C32.1153 24.9718 28.1125 28.2389 24.4399 31.857C24.3203 31.9709 24.2062 32.0886 24.0886 32.2007L23.8492 32.4381C19.554 36.7557 15.75 41.5355 12.5068 46.6903C10.8505 49.3303 7.95228 54.9578 7.95228 54.9578L40.5856 54.9028L40.9218 54.859L40.9789 54.8154C46.5256 48.354 53.5038 43.2762 61.3581 39.9859C62.8206 39.372 64.3085 38.8202 65.8176 38.3316V49.6987C49.782 56.198 38.4793 71.8406 38.4793 90.1002C38.4793 104.487 45.4877 117.242 56.306 125.186C59.2931 127.38 62.5457 129.189 65.9866 130.566C66.0207 130.582 66.0626 130.595 66.0949 130.61V150.736C68.8462 151.47 71.6439 152.019 74.4688 152.377V133.005C77.0423 133.47 79.6879 133.712 82.4001 133.712C85.3048 133.716 88.2026 133.433 91.0514 132.866V152.308C104.724 150.464 117.42 144.206 127.21 134.485C127.414 134.283 127.611 134.082 127.81 133.879C127.884 133.806 127.952 133.732 128.023 133.658H128.35L142.499 133.633H142.691C137.598 140.575 131.336 146.577 124.186 151.372C119.544 154.487 114.564 157.069 109.343 159.067V167.746C109.38 167.736 109.418 167.724 109.453 167.709V167.822C111.255 167.208 113.036 166.531 114.791 165.792C119.707 163.724 124.414 161.189 128.845 158.222C133.126 155.348 137.13 152.081 140.802 148.463L141.041 148.226C141.154 148.112 141.274 147.996 141.388 147.876C145.684 143.559 149.487 138.778 152.73 133.624C154.389 130.982 155.896 128.248 157.245 125.437L157.285 125.353H157.232V125.371ZM110.006 67.5311C115.315 73.8567 118.221 81.8533 118.211 90.1116C118.218 98.3682 115.313 106.363 110.006 112.688V67.5311ZM55.3316 112.829C49.9524 106.484 47.0039 98.4336 47.0128 90.1154C47.0128 81.466 50.1409 73.548 55.3316 67.4038V112.829ZM63.6505 60.1904C69.3339 56.6325 75.9058 54.7504 82.611 54.7604C89.3615 54.7556 95.9755 56.6627 101.687 60.2606V85.9844H63.6524L63.6505 60.1904ZM82.6186 125.472C75.6482 125.472 69.1451 123.478 63.6562 120.041V94.2482H101.695V119.972C95.986 123.577 89.3701 125.484 82.6186 125.472ZM82.5046 158.075C80.638 158.072 78.8025 158.554 77.1783 159.474C75.5541 160.394 74.1969 161.721 73.24 163.323C73.24 163.323 73.24 163.333 73.2304 163.333C73.1944 163.333 73.1602 163.323 73.126 163.323C64.9293 162.289 56.9608 159.904 49.5446 156.263C46.6445 154.825 43.8404 153.2 41.1497 151.399C37.2154 148.758 33.542 145.747 30.1795 142.408L30.1263 142.355L30.0693 142.3C26.7579 138.995 23.766 135.385 21.1332 131.518C15.6946 123.523 11.8872 114.534 9.92943 105.065C7.83509 94.8741 7.92311 84.3554 10.1877 74.2013H21.3402C19.9725 79.3959 19.2831 84.7457 19.2891 90.1172C19.2891 98.5805 20.9642 106.802 24.2651 114.561C25.86 118.299 27.8127 121.874 30.0959 125.235C32.3607 128.565 34.9403 131.67 37.7994 134.507L37.9077 134.616C40.7377 137.414 43.8272 139.938 47.1343 142.152C49.4344 143.694 54.9916 146.644 54.9916 146.644V137.284C50.9459 134.931 47.2177 132.071 43.898 128.771L43.841 128.717L43.7878 128.663C38.7817 123.706 34.788 117.821 32.0295 111.338C29.1646 104.627 27.6939 97.4043 27.7067 90.1078C27.6912 81.7005 29.6452 73.4064 33.4121 65.8901H3.6694C2.87706 68.4322 2.21149 71.012 1.67517 73.6202C0.559832 79.0438 -0.00143921 84.5668 2.7714e-06 90.104C2.7714e-06 95.6442 0.565988 101.188 1.67517 106.594C3.12361 113.606 5.4869 120.398 8.70439 126.795L8.81835 127.022C12.7859 134.833 17.9776 141.96 24.1968 148.131C35.6537 159.513 50.1947 167.289 66.0227 170.499C68.0202 170.905 70.0324 171.236 72.0548 171.492C72.0738 171.492 72.0928 171.492 72.1137 171.497L72.144 171.612C72.7825 173.867 74.1411 175.852 76.0127 177.264C77.8842 178.676 80.1661 179.436 82.5103 179.431C84.8655 179.432 87.1562 178.661 89.0318 177.236C90.9073 175.812 92.2645 173.813 92.8955 171.543C93.143 170.631 93.2676 169.692 93.2659 168.747C93.2682 166.845 92.7585 164.977 91.7902 163.34C90.8354 161.73 89.4774 160.396 87.85 159.471C86.2227 158.546 84.3822 158.061 82.5103 158.064L82.5046 158.075ZM165.238 89.707C165.212 84.3051 164.65 78.919 163.562 73.6278C162.467 68.3239 160.848 63.1418 158.728 58.1582C156.643 53.27 154.089 48.5951 151.104 44.1985C148.144 39.8501 144.774 35.795 141.041 32.0886C129.584 20.707 115.045 12.9308 99.2182 9.72087C97.1905 9.30936 95.1479 8.97423 93.095 8.71615C92.4558 6.46069 91.0967 4.47606 89.2249 3.06472C87.353 1.65339 85.0712 0.892744 82.7268 0.898717C80.3716 0.897711 78.0809 1.66844 76.2054 3.09296C74.3298 4.51748 72.9726 6.51732 72.3416 8.78642C72.0942 9.69767 71.9696 10.6379 71.9712 11.5822C71.9712 13.5575 72.5106 15.4034 73.447 16.9875C74.4012 18.5984 75.7591 19.9326 77.3865 20.8585C79.0138 21.7845 80.8545 22.27 82.7268 22.2675C84.5935 22.2727 86.4295 21.7913 88.0534 20.8708C89.6774 19.9502 91.0333 18.6222 91.9877 17.0179L91.9972 17.0084C92.0333 17.0084 92.0675 17.0179 92.1016 17.0179C98.8295 17.8651 105.411 19.6241 111.664 22.2466C113.041 22.8278 114.404 23.4489 115.747 24.1117L115.963 24.2161C123.011 27.75 129.454 32.3819 135.048 37.9384L135.156 38.0448C138.469 41.3495 141.461 44.9596 144.094 48.827C149.533 56.8223 153.341 65.8124 155.298 75.282C157.393 85.4726 157.305 95.9913 155.04 106.145H143.885C145.254 100.951 145.943 95.601 145.937 90.2293C145.937 81.7661 144.264 73.5441 140.96 65.7856C139.415 62.1621 137.532 58.6914 135.339 55.4194L135.13 55.1098C132.865 51.7799 130.287 48.6755 127.429 45.8394L127.373 45.7863L127.318 45.7312C124.489 42.9321 121.4 40.408 118.093 38.1929C115.918 36.7335 113.654 35.4116 111.313 34.2348L110.23 33.7221V43.0569C114.277 45.4096 118.006 48.2704 121.326 51.5696L121.434 51.6778C126.441 56.6355 130.434 62.5199 133.193 69.003C136.057 75.7136 137.528 82.9366 137.515 90.2332C137.531 98.6411 135.577 106.936 131.81 114.453H161.564C162.358 111.907 163.021 109.327 163.558 106.723C164.64 101.454 165.207 96.0431 165.231 90.6415V89.7165L165.238 89.707Z" fill="url(#paint0_linear_85_138)"/>
<path d="M229.958 171.5L227.997 166.949H215.491L213.53 171.5H207.203L218.71 145.193H225.148L236.618 171.5H229.958ZM217.748 161.695H225.74L221.744 152.408L217.748 161.695Z" fill="white"/>
<path d="M266.798 149.781C263.875 149.781 262.21 150.706 262.21 152.26C262.21 153.703 263.468 154.517 265.762 154.776C267.205 154.924 268.278 154.998 269.906 155.146C275.9 155.664 279.859 157.847 279.859 163.508C279.859 168.651 275.863 171.981 268.204 171.981C259.213 171.981 255.883 167.467 255.032 163.73H261.655C262.21 165.136 264.134 166.912 268.204 166.912C271.682 166.912 273.347 165.728 273.347 163.952C273.347 161.991 271.867 161.325 269.536 161.066C267.982 160.881 266.872 160.807 265.355 160.659C259.583 160.104 255.772 157.44 255.772 152.519C255.772 147.487 260.323 144.749 266.798 144.749C275.419 144.749 278.453 148.819 279.23 152.186H272.903C272.311 151.187 270.498 149.781 266.798 149.781Z" fill="white"/>
<path d="M311.649 149.781C308.726 149.781 307.061 150.706 307.061 152.26C307.061 153.703 308.319 154.517 310.613 154.776C312.056 154.924 313.129 154.998 314.757 155.146C320.751 155.664 324.71 157.847 324.71 163.508C324.71 168.651 320.714 171.981 313.055 171.981C304.064 171.981 300.734 167.467 299.883 163.73H306.506C307.061 165.136 308.985 166.912 313.055 166.912C316.533 166.912 318.198 165.728 318.198 163.952C318.198 161.991 316.718 161.325 314.387 161.066C312.833 160.881 311.723 160.807 310.206 160.659C304.434 160.104 300.623 157.44 300.623 152.519C300.623 147.487 305.174 144.749 311.649 144.749C320.27 144.749 323.304 148.819 324.081 152.186H317.754C317.162 151.187 315.349 149.781 311.649 149.781Z" fill="white"/>
<path d="M359.312 171.944C351.394 171.944 345.363 166.394 345.363 158.365C345.363 150.299 351.431 144.786 359.312 144.786C367.156 144.786 373.224 150.299 373.224 158.365C373.224 166.357 367.156 171.944 359.312 171.944ZM359.312 166.32C363.937 166.32 366.823 162.805 366.823 158.365C366.823 153.962 363.937 150.41 359.312 150.41C354.687 150.41 351.764 153.925 351.764 158.365C351.764 162.842 354.687 166.32 359.312 166.32Z" fill="white"/>
<path d="M407.403 171.944C399.522 171.944 393.935 166.172 393.935 158.365C393.935 150.558 399.522 144.786 407.403 144.786C415.95 144.786 419.206 150.669 419.835 153.666H413.434C412.842 152.63 411.029 150.447 407.403 150.447C403.037 150.447 400.373 154.036 400.373 158.365C400.373 162.694 403.037 166.283 407.403 166.283C411.288 166.283 412.916 164.063 413.471 163.064H419.835C419.317 165.691 416.246 171.944 407.403 171.944Z" fill="white"/>
<path d="M441.636 171.5V145.23H447.926V171.5H441.636Z" fill="white"/>
<path d="M491.44 171.5L489.479 166.949H476.973L475.012 171.5H468.685L480.192 145.193H486.63L498.1 171.5H491.44ZM479.23 161.695H487.222L483.226 152.408L479.23 161.695Z" fill="white"/>
<path d="M513.731 150.706V145.23H539.89V150.706H529.937V171.5H523.684V150.706H513.731Z" fill="white"/>
<path d="M561.302 171.5V145.23H567.592V171.5H561.302Z" fill="white"/>
<path d="M603.558 171.944C595.64 171.944 589.609 166.394 589.609 158.365C589.609 150.299 595.677 144.786 603.558 144.786C611.402 144.786 617.47 150.299 617.47 158.365C617.47 166.357 611.402 171.944 603.558 171.944ZM603.558 166.32C608.183 166.32 611.069 162.805 611.069 158.365C611.069 153.962 608.183 150.41 603.558 150.41C598.933 150.41 596.01 153.925 596.01 158.365C596.01 162.842 598.933 166.32 603.558 166.32Z" fill="white"/>
<path d="M665.006 145.23V171.574H659.9L645.581 153.407V171.5H639.439V145.23H646.58L659.012 161.325V145.23H665.006Z" fill="white"/>
<path d="M207.207 14.1889V8.71291H233.366V14.1889H223.413V34.9829H217.16V14.1889H207.207Z" fill="white"/>
<path d="M271.285 34.9829V24.5859H258.446V34.9829H252.156V8.71291H258.446V19.0359H271.285V8.71291H277.538V34.9829H271.285Z" fill="white"/>
<path d="M298.253 34.9829V8.71291H320.231V13.8929H304.543V18.6289H313.904V23.9199H304.543V29.5439H321.674V34.9829H298.253Z" fill="white"/>
<path d="M157.24 125.371L124.551 125.427L124.527 125.455L124.45 125.545L124.367 125.529L124.268 125.511C123.337 126.593 122.354 127.647 121.333 128.661C116.327 133.643 110.403 137.609 103.889 140.34C102.421 140.956 100.934 141.506 99.4255 141.992V130.625C115.464 124.126 126.766 108.485 126.766 90.2236C126.766 75.8461 119.761 63.0963 108.954 55.1497C105.932 52.9277 102.639 51.101 99.1539 49.7139V29.5873C96.4032 28.854 93.6061 28.3064 90.7819 27.9482V47.3171C88.1648 46.8426 85.5103 46.6048 82.8505 46.6067C79.8896 46.6067 76.995 46.8974 74.1993 47.4538V28.011C60.1317 29.9026 47.1094 36.4719 37.228 46.6618L22.7232 46.6865H22.5579C27.6518 39.7453 33.9139 33.7428 41.0645 28.9472C45.7063 25.8319 50.6847 23.2502 55.9055 21.2514V12.5717C55.8687 12.5828 55.8325 12.5962 55.7972 12.6116V12.4976C53.9928 13.113 52.2132 13.7891 50.4583 14.5261C45.542 16.5948 40.8355 19.1305 36.4037 22.0984C32.1231 24.9718 28.1204 28.2389 24.4477 31.857C24.3281 31.9709 24.2141 32.0886 24.0964 32.2007L23.857 32.4381C19.5618 36.7557 15.7578 41.5355 12.5146 46.6903C10.8583 49.3303 7.9601 54.9578 7.9601 54.9578L40.5935 54.9028L40.9296 54.859L40.9867 54.8154C46.5335 48.354 53.5116 43.2762 61.3659 39.9859C62.8284 39.372 64.3163 38.8202 65.8254 38.3316V49.6987C49.7898 56.198 38.4872 71.8406 38.4872 90.1002C38.4872 104.487 45.4955 117.242 56.3138 125.186C59.3009 127.38 62.5535 129.189 65.9945 130.566C66.0286 130.582 66.0704 130.595 66.1027 130.61V150.736C68.854 151.47 71.6517 152.019 74.4766 152.377V133.005C77.0502 133.47 79.6958 133.712 82.408 133.712C85.3126 133.716 88.2104 133.433 91.0592 132.866V152.308C104.732 150.464 117.428 144.206 127.218 134.485C127.421 134.283 127.619 134.082 127.818 133.879C127.892 133.806 127.96 133.732 128.031 133.658H128.358L142.507 133.633H142.699C137.605 140.575 131.344 146.577 124.194 151.372C119.552 154.487 114.572 157.069 109.351 159.067V167.746C109.388 167.736 109.426 167.724 109.461 167.709V167.822C111.263 167.208 113.044 166.531 114.798 165.792C119.715 163.724 124.421 161.189 128.853 158.222C133.134 155.348 137.138 152.081 140.81 148.463L141.048 148.226C141.162 148.112 141.282 147.996 141.396 147.876C145.692 143.559 149.495 138.778 152.738 133.624C154.396 130.982 155.903 128.248 157.253 125.437L157.292 125.353H157.24V125.371ZM110.014 67.5311C115.323 73.8567 118.228 81.8533 118.219 90.1116C118.226 98.3682 115.321 106.363 110.014 112.688V67.5311ZM55.3395 112.829C49.9602 106.484 47.0117 98.4336 47.0206 90.1154C47.0206 81.466 50.1488 73.548 55.3395 67.4038V112.829ZM63.6583 60.1904C69.3417 56.6325 75.9137 54.7504 82.6188 54.7604C89.3694 54.7556 95.9833 56.6627 101.695 60.2606V85.9844H63.6602L63.6583 60.1904ZM82.6264 125.472C75.656 125.472 69.153 123.478 63.664 120.041V94.2482H101.703V119.972C95.9939 123.577 89.3779 125.484 82.6264 125.472ZM82.5124 158.075C80.6458 158.072 78.8104 158.554 77.1862 159.474C75.562 160.394 74.2047 161.721 73.2478 163.323C73.2478 163.323 73.2478 163.333 73.2383 163.333C73.2022 163.333 73.168 163.323 73.1338 163.323C64.9371 162.289 56.9686 159.904 49.5524 156.263C46.6523 154.825 43.8482 153.2 41.1575 151.399C37.2232 148.758 33.5498 145.747 30.1873 142.408L30.1341 142.355L30.0772 142.3C26.7657 138.995 23.7738 135.385 21.1411 131.518C15.7024 123.523 11.895 114.534 9.93725 105.065C7.84291 94.8741 7.93094 84.3554 10.1956 74.2013H21.3481C19.9803 79.3959 19.2909 84.7457 19.2969 90.1172C19.2969 98.5805 20.972 106.802 24.273 114.561C25.8679 118.299 27.8205 121.874 30.1038 125.235C32.3685 128.565 34.9481 131.67 37.8073 134.507L37.9155 134.616C40.7456 137.414 43.835 139.938 47.1421 142.152C49.4423 143.694 54.9995 146.644 54.9995 146.644V137.284C50.9537 134.931 47.2255 132.071 43.9058 128.771L43.8488 128.717L43.7956 128.663C38.7895 123.706 34.7958 117.821 32.0373 111.338C29.1724 104.627 27.7017 97.4043 27.7145 90.1078C27.6991 81.7005 29.6531 73.4064 33.4199 65.8901H3.67723C2.88488 68.4322 2.21931 71.012 1.68299 73.6202C0.567655 79.0438 0.00638378 84.5668 0.00782576 90.104C0.00782576 95.6442 0.573811 101.188 1.68299 106.594C3.13143 113.606 5.49473 120.398 8.71222 126.795L8.82618 127.022C12.7937 134.833 17.9855 141.96 24.2046 148.131C35.6615 159.513 50.2025 167.289 66.0305 170.499C68.028 170.905 70.0402 171.236 72.0626 171.492C72.0816 171.492 72.1006 171.492 72.1215 171.497L72.1519 171.612C72.7904 173.867 74.149 175.852 76.0205 177.264C77.892 178.676 80.1739 179.436 82.5181 179.431C84.8734 179.432 87.1641 178.661 89.0396 177.236C90.9151 175.812 92.2724 173.813 92.9034 171.543C93.1508 170.631 93.2754 169.692 93.2737 168.747C93.276 166.845 92.7663 164.977 91.798 163.34C90.8432 161.73 89.4852 160.396 87.8578 159.471C86.2305 158.546 84.3901 158.061 82.5181 158.064L82.5124 158.075ZM165.245 89.707C165.22 84.3051 164.658 78.919 163.57 73.6278C162.475 68.3239 160.855 63.1418 158.736 58.1582C156.651 53.27 154.097 48.5951 151.112 44.1985C148.152 39.8501 144.782 35.795 141.048 32.0886C129.592 20.707 115.053 12.9308 99.226 9.72087C97.1984 9.30936 95.1558 8.97423 93.1029 8.71615C92.4636 6.46069 91.1046 4.47606 89.2327 3.06472C87.3609 1.65339 85.079 0.892744 82.7347 0.898717C80.3794 0.897711 78.0887 1.66844 76.2132 3.09296C74.3376 4.51748 72.9804 6.51732 72.3494 8.78642C72.102 9.69767 71.9775 10.6379 71.9791 11.5822C71.9791 13.5575 72.5185 15.4034 73.4548 16.9875C74.4091 18.5984 75.7669 19.9326 77.3944 20.8585C79.0217 21.7845 80.8623 22.27 82.7347 22.2675C84.6014 22.2727 86.4373 21.7913 88.0613 20.8708C89.6852 19.9502 91.0412 18.6222 91.9955 17.0179L92.005 17.0084C92.0411 17.0084 92.0753 17.0179 92.1095 17.0179C98.8373 17.8651 105.419 19.6241 111.672 22.2466C113.049 22.8278 114.412 23.4489 115.755 24.1117L115.971 24.2161C123.018 27.75 129.461 32.3819 135.056 37.9384L135.164 38.0448C138.476 41.3495 141.469 44.9596 144.102 48.827C149.541 56.8223 153.349 65.8124 155.306 75.282C157.401 85.4726 157.313 95.9913 155.048 106.145H143.893C145.261 100.951 145.951 95.601 145.945 90.2293C145.945 81.7661 144.271 73.5441 140.968 65.7856C139.422 62.1621 137.54 58.6914 135.347 55.4194L135.137 55.1098C132.873 51.7799 130.295 48.6755 127.436 45.8394L127.381 45.7863L127.326 45.7312C124.496 42.9321 121.407 40.408 118.101 38.1929C115.926 36.7335 113.661 35.4116 111.321 34.2348L110.238 33.7221V43.0569C114.285 45.4096 118.014 48.2704 121.333 51.5696L121.442 51.6778C126.449 56.6355 130.442 62.5199 133.2 69.003C136.065 75.7136 137.536 82.9366 137.523 90.2332C137.539 98.6411 135.585 106.936 131.818 114.453H161.572C162.366 111.907 163.029 109.327 163.566 106.723C164.648 101.454 165.214 96.0431 165.239 90.6415V89.7165L165.245 89.707ZM248.631 94.4383H217.798V117.925H207.208V61.7821H217.798V84.9457H248.631V61.7821H259.301V117.925H248.631V94.4383ZM289.748 118.789C279.472 118.789 270.93 111.042 270.93 97.912C270.93 84.7804 279.472 77.0333 289.826 77.0333C298.289 77.0333 302.32 82.2506 303.194 83.9087V77.8974H313.312V117.908H303.271V111.583C302.477 113.241 298.525 118.782 289.748 118.782V118.789ZM292.436 85.8972C285.638 85.8972 281.207 91.1145 281.207 97.9196C281.207 104.725 285.638 109.942 292.436 109.942C299.232 109.942 303.349 104.725 303.349 97.9196C303.349 91.1145 299.005 85.8972 292.436 85.8972ZM338.607 101.559C329.831 100.843 323.9 96.8903 323.9 89.0652C323.9 81.2402 330.773 76.8073 341.531 76.8073C355.84 76.8073 360.192 84.241 361.144 88.1137H350.474C349.836 87.2401 347.393 84.4766 341.46 84.4766C336.635 84.4766 334.106 86.1327 334.106 88.5069C334.106 90.7233 335.764 92.2237 339.804 92.6947L346.6 93.4108C357.435 94.3604 361.858 98.5484 361.858 106.375C361.858 114.2 355.534 119.024 343.354 119.024C328.488 119.024 323.664 110.405 322.878 106.689H333.713C334.106 107.638 336.558 111.199 343.363 111.199C348.894 111.199 351.59 109.296 351.59 106.766C351.59 104.237 350.168 102.736 345.658 102.256C343.306 102.064 340.959 101.826 338.616 101.542L338.607 101.559ZM382.093 117.925H372.052V59.7328H382.093V84.6418C383.594 81.7967 388.105 77.0503 395.38 77.0503C405.422 77.0503 412.062 84.4063 412.062 94.6054V117.934H401.863V96.5863C401.863 90.2618 398.068 86.0719 392.134 86.0719C386.203 86.0719 382.093 90.4175 382.093 96.5863V117.934V117.925ZM441.081 118.633C430.646 118.633 422.026 110.808 422.026 97.8323C422.026 84.8602 430.646 77.0352 441.081 77.0352C449.7 77.0352 453.966 82.4082 454.759 83.9961V77.907H464.88V117.045C464.88 128.037 457.84 135.706 443.375 135.706C427.959 135.706 422.977 126.135 422.341 123.213H433.96C434.512 124.006 436.883 127.323 443.366 127.323C450.642 127.323 454.829 123.528 454.829 116.888V111.353C453.958 113.091 449.77 118.63 441.071 118.63L441.081 118.633ZM443.688 85.8972C436.725 85.8972 432.302 91.0366 432.302 97.8323C432.302 104.63 436.735 109.767 443.688 109.767C450.642 109.767 454.917 104.472 454.917 97.8323C454.917 91.1943 450.494 85.8972 443.688 85.8972ZM487.963 117.925H477.922V77.9145H487.963V84.6323C488.992 82.338 492.073 77.6695 500.927 77.6695H510.254V87.711H499.584C491.043 87.711 487.963 90.5561 487.963 96.8807V117.925ZM535.097 118.789C524.819 118.789 516.277 111.042 516.277 97.912C516.277 84.7804 524.819 77.0333 535.175 77.0333C543.638 77.0333 547.669 82.2506 548.541 83.9087V77.8974H558.661V117.908H548.62V111.583C547.826 113.241 543.874 118.782 535.097 118.782V118.789ZM537.783 85.8972C530.987 85.8972 526.554 91.1145 526.554 97.9196C526.554 104.725 530.987 109.942 537.783 109.942C544.581 109.942 548.698 104.725 548.698 97.9196C548.698 91.1145 544.352 85.8972 537.783 85.8972ZM581.661 134.686H571.698V77.9145H581.74V84.2391C582.455 82.7387 586.799 77.0409 595.497 77.0409C605.933 77.0409 614.473 84.8679 614.473 97.9196C614.473 110.971 605.933 118.798 595.497 118.798C586.799 118.798 582.455 113.423 581.661 111.836V134.686ZM592.88 109.935C599.844 109.935 604.267 104.717 604.267 97.912C604.267 91.105 599.834 85.8896 592.88 85.8896C585.927 85.8896 581.575 91.0272 581.575 97.912C581.575 104.795 585.998 109.935 592.88 109.935ZM635.031 117.925H624.988V59.7328H635.031V84.6418C636.532 81.7967 641.042 77.0503 648.318 77.0503C658.36 77.0503 665 84.4063 665 94.6054V117.934H654.801V96.5863C654.801 90.2618 651.006 86.0719 645.073 86.0719C639.139 86.0719 635.031 90.4175 635.031 96.5863V117.934V117.925Z" fill="white"/>
<path d="M157.232 125.371L124.543 125.427L124.519 125.455L124.443 125.545L124.359 125.529L124.26 125.511C123.329 126.593 122.346 127.647 121.326 128.661C116.319 133.643 110.395 137.609 103.881 140.34C102.413 140.956 100.926 141.506 99.4177 141.992V130.625C115.457 124.126 126.758 108.485 126.758 90.2236C126.758 75.8461 119.753 63.0963 108.946 55.1497C105.924 52.9277 102.631 51.101 99.146 49.7139V29.5873C96.3953 28.854 93.5983 28.3064 90.7741 27.9482V47.3171C88.1569 46.8426 85.5024 46.6048 82.8427 46.6067C79.8818 46.6067 76.9872 46.8974 74.1915 47.4538V28.011C60.1239 29.9026 47.1016 36.4719 37.2201 46.6618L22.7154 46.6865H22.5501C27.6439 39.7453 33.9061 33.7428 41.0567 28.9472C45.6985 25.8319 50.6769 23.2502 55.8976 21.2514V12.5717C55.8608 12.5828 55.8247 12.5962 55.7894 12.6116V12.4976C53.985 13.113 52.2054 13.7891 50.4505 14.5261C45.5342 16.5948 40.8277 19.1305 36.3959 22.0984C32.1153 24.9718 28.1125 28.2389 24.4399 31.857C24.3203 31.9709 24.2062 32.0886 24.0886 32.2007L23.8492 32.4381C19.554 36.7557 15.75 41.5355 12.5068 46.6903C10.8505 49.3303 7.95228 54.9578 7.95228 54.9578L40.5856 54.9028L40.9218 54.859L40.9789 54.8154C46.5256 48.354 53.5038 43.2762 61.3581 39.9859C62.8206 39.372 64.3085 38.8202 65.8176 38.3316V49.6987C49.782 56.198 38.4793 71.8406 38.4793 90.1002C38.4793 104.487 45.4877 117.242 56.306 125.186C59.2931 127.38 62.5457 129.189 65.9866 130.566C66.0207 130.582 66.0626 130.595 66.0949 130.61V150.736C68.8462 151.47 71.6439 152.019 74.4688 152.377V133.005C77.0423 133.47 79.6879 133.712 82.4001 133.712C85.3048 133.716 88.2026 133.433 91.0514 132.866V152.308C104.724 150.464 117.42 144.206 127.21 134.485C127.414 134.283 127.611 134.082 127.81 133.879C127.884 133.806 127.952 133.732 128.023 133.658H128.35L142.499 133.633H142.691C137.598 140.575 131.336 146.577 124.186 151.372C119.544 154.487 114.564 157.069 109.343 159.067V167.746C109.38 167.736 109.418 167.724 109.453 167.709V167.822C111.255 167.208 113.036 166.531 114.791 165.792C119.707 163.724 124.414 161.189 128.845 158.222C133.126 155.348 137.13 152.081 140.802 148.463L141.041 148.226C141.154 148.112 141.274 147.996 141.388 147.876C145.684 143.559 149.487 138.778 152.73 133.624C154.389 130.982 155.896 128.248 157.245 125.437L157.285 125.353H157.232V125.371ZM110.006 67.5311C115.315 73.8567 118.221 81.8533 118.211 90.1116C118.218 98.3682 115.313 106.363 110.006 112.688V67.5311ZM55.3316 112.829C49.9524 106.484 47.0039 98.4336 47.0128 90.1154C47.0128 81.466 50.1409 73.548 55.3316 67.4038V112.829ZM63.6505 60.1904C69.3339 56.6325 75.9058 54.7504 82.611 54.7604C89.3615 54.7556 95.9755 56.6627 101.687 60.2606V85.9844H63.6524L63.6505 60.1904ZM82.6186 125.472C75.6482 125.472 69.1451 123.478 63.6562 120.041V94.2482H101.695V119.972C95.986 123.577 89.3701 125.484 82.6186 125.472ZM82.5046 158.075C80.638 158.072 78.8025 158.554 77.1783 159.474C75.5541 160.394 74.1969 161.721 73.24 163.323C73.24 163.323 73.24 163.333 73.2304 163.333C73.1944 163.333 73.1602 163.323 73.126 163.323C64.9293 162.289 56.9608 159.904 49.5446 156.263C46.6445 154.825 43.8404 153.2 41.1497 151.399C37.2154 148.758 33.542 145.747 30.1795 142.408L30.1263 142.355L30.0693 142.3C26.7579 138.995 23.766 135.385 21.1332 131.518C15.6946 123.523 11.8872 114.534 9.92943 105.065C7.83509 94.8741 7.92311 84.3554 10.1877 74.2013H21.3402C19.9725 79.3959 19.2831 84.7457 19.2891 90.1172C19.2891 98.5805 20.9642 106.802 24.2651 114.561C25.86 118.299 27.8127 121.874 30.0959 125.235C32.3607 128.565 34.9403 131.67 37.7994 134.507L37.9077 134.616C40.7377 137.414 43.8272 139.938 47.1343 142.152C49.4344 143.694 54.9916 146.644 54.9916 146.644V137.284C50.9459 134.931 47.2177 132.071 43.898 128.771L43.841 128.717L43.7878 128.663C38.7817 123.706 34.788 117.821 32.0295 111.338C29.1646 104.627 27.6939 97.4043 27.7067 90.1078C27.6912 81.7005 29.6452 73.4064 33.4121 65.8901H3.6694C2.87706 68.4322 2.21149 71.012 1.67517 73.6202C0.559832 79.0438 -0.00143921 84.5668 2.7714e-06 90.104C2.7714e-06 95.6442 0.565988 101.188 1.67517 106.594C3.12361 113.606 5.4869 120.398 8.70439 126.795L8.81835 127.022C12.7859 134.833 17.9776 141.96 24.1968 148.131C35.6537 159.513 50.1947 167.289 66.0227 170.499C68.0202 170.905 70.0324 171.236 72.0548 171.492C72.0738 171.492 72.0928 171.492 72.1137 171.497L72.144 171.612C72.7825 173.867 74.1411 175.852 76.0127 177.264C77.8842 178.676 80.1661 179.436 82.5103 179.431C84.8655 179.432 87.1562 178.661 89.0318 177.236C90.9073 175.812 92.2645 173.813 92.8955 171.543C93.143 170.631 93.2676 169.692 93.2659 168.747C93.2682 166.845 92.7585 164.977 91.7902 163.34C90.8354 161.73 89.4774 160.396 87.85 159.471C86.2227 158.546 84.3822 158.061 82.5103 158.064L82.5046 158.075ZM165.238 89.707C165.212 84.3051 164.65 78.919 163.562 73.6278C162.467 68.3239 160.848 63.1418 158.728 58.1582C156.643 53.27 154.089 48.5951 151.104 44.1985C148.144 39.8501 144.774 35.795 141.041 32.0886C129.584 20.707 115.045 12.9308 99.2182 9.72087C97.1905 9.30936 95.1479 8.97423 93.095 8.71615C92.4558 6.46069 91.0967 4.47606 89.2249 3.06472C87.353 1.65339 85.0712 0.892744 82.7268 0.898717C80.3716 0.897711 78.0809 1.66844 76.2054 3.09296C74.3298 4.51748 72.9726 6.51732 72.3416 8.78642C72.0942 9.69767 71.9696 10.6379 71.9712 11.5822C71.9712 13.5575 72.5106 15.4034 73.447 16.9875C74.4012 18.5984 75.7591 19.9326 77.3865 20.8585C79.0138 21.7845 80.8545 22.27 82.7268 22.2675C84.5935 22.2727 86.4295 21.7913 88.0534 20.8708C89.6774 19.9502 91.0333 18.6222 91.9877 17.0179L91.9972 17.0084C92.0333 17.0084 92.0675 17.0179 92.1016 17.0179C98.8295 17.8651 105.411 19.6241 111.664 22.2466C113.041 22.8278 114.404 23.4489 115.747 24.1117L115.963 24.2161C123.011 27.75 129.454 32.3819 135.048 37.9384L135.156 38.0448C138.469 41.3495 141.461 44.9596 144.094 48.827C149.533 56.8223 153.341 65.8124 155.298 75.282C157.393 85.4726 157.305 95.9913 155.04 106.145H143.885C145.254 100.951 145.943 95.601 145.937 90.2293C145.937 81.7661 144.264 73.5441 140.96 65.7856C139.415 62.1621 137.532 58.6914 135.339 55.4194L135.13 55.1098C132.865 51.7799 130.287 48.6755 127.429 45.8394L127.373 45.7863L127.318 45.7312C124.489 42.9321 121.4 40.408 118.093 38.1929C115.918 36.7335 113.654 35.4116 111.313 34.2348L110.23 33.7221V43.0569C114.277 45.4096 118.006 48.2704 121.326 51.5696L121.434 51.6778C126.441 56.6355 130.434 62.5199 133.193 69.003C136.057 75.7136 137.528 82.9366 137.515 90.2332C137.531 98.6411 135.577 106.936 131.81 114.453H161.564C162.358 111.907 163.021 109.327 163.558 106.723C164.64 101.454 165.207 96.0431 165.231 90.6415V89.7165L165.238 89.707Z" fill="url(#paint1_linear_85_138)"/>
<path d="M229.958 171.5L227.997 166.949H215.491L213.53 171.5H207.203L218.71 145.193H225.148L236.618 171.5H229.958ZM217.748 161.695H225.74L221.744 152.408L217.748 161.695Z" fill="white"/>
<path d="M266.798 149.781C263.875 149.781 262.21 150.706 262.21 152.26C262.21 153.703 263.468 154.517 265.762 154.776C267.205 154.924 268.278 154.998 269.906 155.146C275.9 155.664 279.859 157.847 279.859 163.508C279.859 168.651 275.863 171.981 268.204 171.981C259.213 171.981 255.883 167.467 255.032 163.73H261.655C262.21 165.136 264.134 166.912 268.204 166.912C271.682 166.912 273.347 165.728 273.347 163.952C273.347 161.991 271.867 161.325 269.536 161.066C267.982 160.881 266.872 160.807 265.355 160.659C259.583 160.104 255.772 157.44 255.772 152.519C255.772 147.487 260.323 144.749 266.798 144.749C275.419 144.749 278.453 148.819 279.23 152.186H272.903C272.311 151.187 270.498 149.781 266.798 149.781Z" fill="white"/>
<path d="M311.649 149.781C308.726 149.781 307.061 150.706 307.061 152.26C307.061 153.703 308.319 154.517 310.613 154.776C312.056 154.924 313.129 154.998 314.757 155.146C320.751 155.664 324.71 157.847 324.71 163.508C324.71 168.651 320.714 171.981 313.055 171.981C304.064 171.981 300.734 167.467 299.883 163.73H306.506C307.061 165.136 308.985 166.912 313.055 166.912C316.533 166.912 318.198 165.728 318.198 163.952C318.198 161.991 316.718 161.325 314.387 161.066C312.833 160.881 311.723 160.807 310.206 160.659C304.434 160.104 300.623 157.44 300.623 152.519C300.623 147.487 305.174 144.749 311.649 144.749C320.27 144.749 323.304 148.819 324.081 152.186H317.754C317.162 151.187 315.349 149.781 311.649 149.781Z" fill="white"/>
<path d="M359.312 171.944C351.394 171.944 345.363 166.394 345.363 158.365C345.363 150.299 351.431 144.786 359.312 144.786C367.156 144.786 373.224 150.299 373.224 158.365C373.224 166.357 367.156 171.944 359.312 171.944ZM359.312 166.32C363.937 166.32 366.823 162.805 366.823 158.365C366.823 153.962 363.937 150.41 359.312 150.41C354.687 150.41 351.764 153.925 351.764 158.365C351.764 162.842 354.687 166.32 359.312 166.32Z" fill="white"/>
<path d="M407.403 171.944C399.522 171.944 393.935 166.172 393.935 158.365C393.935 150.558 399.522 144.786 407.403 144.786C415.95 144.786 419.206 150.669 419.835 153.666H413.434C412.842 152.63 411.029 150.447 407.403 150.447C403.037 150.447 400.373 154.036 400.373 158.365C400.373 162.694 403.037 166.283 407.403 166.283C411.288 166.283 412.916 164.063 413.471 163.064H419.835C419.317 165.691 416.246 171.944 407.403 171.944Z" fill="white"/>
<path d="M441.636 171.5V145.23H447.926V171.5H441.636Z" fill="white"/>
<path d="M491.44 171.5L489.479 166.949H476.973L475.012 171.5H468.685L480.192 145.193H486.63L498.1 171.5H491.44ZM479.23 161.695H487.222L483.226 152.408L479.23 161.695Z" fill="white"/>
<path d="M513.731 150.706V145.23H539.89V150.706H529.937V171.5H523.684V150.706H513.731Z" fill="white"/>
<path d="M561.302 171.5V145.23H567.592V171.5H561.302Z" fill="white"/>
<path d="M603.558 171.944C595.64 171.944 589.609 166.394 589.609 158.365C589.609 150.299 595.677 144.786 603.558 144.786C611.402 144.786 617.47 150.299 617.47 158.365C617.47 166.357 611.402 171.944 603.558 171.944ZM603.558 166.32C608.183 166.32 611.069 162.805 611.069 158.365C611.069 153.962 608.183 150.41 603.558 150.41C598.933 150.41 596.01 153.925 596.01 158.365C596.01 162.842 598.933 166.32 603.558 166.32Z" fill="white"/>
<path d="M665.006 145.23V171.574H659.9L645.581 153.407V171.5H639.439V145.23H646.58L659.012 161.325V145.23H665.006Z" fill="white"/>
<path d="M207.207 14.1889V8.71291H233.366V14.1889H223.413V34.9829H217.16V14.1889H207.207Z" fill="white"/>
<path d="M271.285 34.9829V24.5859H258.446V34.9829H252.156V8.71291H258.446V19.0359H271.285V8.71291H277.538V34.9829H271.285Z" fill="white"/>
<path d="M298.253 34.9829V8.71291H320.231V13.8929H304.543V18.6289H313.904V23.9199H304.543V29.5439H321.674V34.9829H298.253Z" fill="white"/>
<defs>
<linearGradient id="paint0_linear_85_138" x1="3.77632" y1="65.9748" x2="161.563" y2="114.444" gradientUnits="userSpaceOnUse">
<stop offset="2.16901e-05" stop-color="#82549E"/>
<stop offset="1" stop-color="#62C5F0"/>
</linearGradient>
<linearGradient id="paint1_linear_85_138" x1="3.77632" y1="65.9748" x2="161.563" y2="114.444" gradientUnits="userSpaceOnUse">
<stop offset="2.16901e-05" stop-color="#82549E"/>
<stop offset="1" stop-color="#62C5F0"/>
</linearGradient>
</defs>
</svg>
